<mxfile host="app.diagrams.net" agent="Mozilla/5.0 (Windows NT 10.0; Win64; x64) AppleWebKit/537.36 (KHTML, like Gecko) Chrome/129.0.0.0 Safari/537.36" version="24.7.16">
  <diagram name="페이지-1" id="4F5Ve__LRi0R0wIW_MTT">
    <mxGraphModel dx="3585" dy="1950" grid="0" gridSize="10" guides="1" tooltips="1" connect="1" arrows="1" fold="1" page="1" pageScale="1" pageWidth="10000" pageHeight="10000" background="none" math="0" shadow="0">
      <root>
        <mxCell id="0" />
        <mxCell id="1" parent="0" />
        <mxCell id="At6EdBGd9hR8QfE1C5nS-3" value="MEMBER" style="shape=table;startSize=30;container=1;collapsible=1;childLayout=tableLayout;fixedRows=1;rowLines=0;fontStyle=1;align=center;resizeLast=1;html=1;movable=0;resizable=0;rotatable=0;deletable=0;editable=0;locked=1;connectable=0;" parent="1" vertex="1">
          <mxGeometry x="3160" y="3160" width="180" height="181" as="geometry" />
        </mxCell>
        <mxCell id="At6EdBGd9hR8QfE1C5nS-4" value="" style="shape=tableRow;horizontal=0;startSize=0;swimlaneHead=0;swimlaneBody=0;fillColor=none;collapsible=0;dropTarget=0;points=[[0,0.5],[1,0.5]];portConstraint=eastwest;top=0;left=0;right=0;bottom=1;movable=0;resizable=0;rotatable=0;deletable=0;editable=0;locked=1;connectable=0;" parent="At6EdBGd9hR8QfE1C5nS-3" vertex="1">
          <mxGeometry y="30" width="180" height="30" as="geometry" />
        </mxCell>
        <mxCell id="At6EdBGd9hR8QfE1C5nS-5" value="PK" style="shape=partialRectangle;connectable=0;fillColor=none;top=0;left=0;bottom=0;right=0;fontStyle=1;overflow=hidden;whiteSpace=wrap;html=1;movable=0;resizable=0;rotatable=0;deletable=0;editable=0;locked=1;" parent="At6EdBGd9hR8QfE1C5nS-4" vertex="1">
          <mxGeometry width="30" height="30" as="geometry">
            <mxRectangle width="30" height="30" as="alternateBounds" />
          </mxGeometry>
        </mxCell>
        <mxCell id="At6EdBGd9hR8QfE1C5nS-6" value="USER_ID" style="shape=partialRectangle;connectable=0;fillColor=none;top=0;left=0;bottom=0;right=0;align=left;spacingLeft=6;fontStyle=1;overflow=hidden;whiteSpace=wrap;html=1;movable=0;resizable=0;rotatable=0;deletable=0;editable=0;locked=1;" parent="At6EdBGd9hR8QfE1C5nS-4" vertex="1">
          <mxGeometry x="30" width="150" height="30" as="geometry">
            <mxRectangle width="150" height="30" as="alternateBounds" />
          </mxGeometry>
        </mxCell>
        <mxCell id="At6EdBGd9hR8QfE1C5nS-7" value="" style="shape=tableRow;horizontal=0;startSize=0;swimlaneHead=0;swimlaneBody=0;fillColor=none;collapsible=0;dropTarget=0;points=[[0,0.5],[1,0.5]];portConstraint=eastwest;top=0;left=0;right=0;bottom=0;movable=0;resizable=0;rotatable=0;deletable=0;editable=0;locked=1;connectable=0;" parent="At6EdBGd9hR8QfE1C5nS-3" vertex="1">
          <mxGeometry y="60" width="180" height="30" as="geometry" />
        </mxCell>
        <mxCell id="At6EdBGd9hR8QfE1C5nS-8" value="" style="shape=partialRectangle;connectable=0;fillColor=none;top=0;left=0;bottom=0;right=0;editable=0;overflow=hidden;whiteSpace=wrap;html=1;movable=0;resizable=0;rotatable=0;deletable=0;locked=1;" parent="At6EdBGd9hR8QfE1C5nS-7" vertex="1">
          <mxGeometry width="30" height="30" as="geometry">
            <mxRectangle width="30" height="30" as="alternateBounds" />
          </mxGeometry>
        </mxCell>
        <mxCell id="At6EdBGd9hR8QfE1C5nS-9" value="userpw" style="shape=partialRectangle;connectable=0;fillColor=none;top=0;left=0;bottom=0;right=0;align=left;spacingLeft=6;overflow=hidden;whiteSpace=wrap;html=1;movable=0;resizable=0;rotatable=0;deletable=0;editable=0;locked=1;" parent="At6EdBGd9hR8QfE1C5nS-7" vertex="1">
          <mxGeometry x="30" width="150" height="30" as="geometry">
            <mxRectangle width="150" height="30" as="alternateBounds" />
          </mxGeometry>
        </mxCell>
        <mxCell id="At6EdBGd9hR8QfE1C5nS-10" value="" style="shape=tableRow;horizontal=0;startSize=0;swimlaneHead=0;swimlaneBody=0;fillColor=none;collapsible=0;dropTarget=0;points=[[0,0.5],[1,0.5]];portConstraint=eastwest;top=0;left=0;right=0;bottom=0;movable=0;resizable=0;rotatable=0;deletable=0;editable=0;locked=1;connectable=0;" parent="At6EdBGd9hR8QfE1C5nS-3" vertex="1">
          <mxGeometry y="90" width="180" height="30" as="geometry" />
        </mxCell>
        <mxCell id="At6EdBGd9hR8QfE1C5nS-11" value="" style="shape=partialRectangle;connectable=0;fillColor=none;top=0;left=0;bottom=0;right=0;editable=0;overflow=hidden;whiteSpace=wrap;html=1;movable=0;resizable=0;rotatable=0;deletable=0;locked=1;" parent="At6EdBGd9hR8QfE1C5nS-10" vertex="1">
          <mxGeometry width="30" height="30" as="geometry">
            <mxRectangle width="30" height="30" as="alternateBounds" />
          </mxGeometry>
        </mxCell>
        <mxCell id="At6EdBGd9hR8QfE1C5nS-12" value="username" style="shape=partialRectangle;connectable=0;fillColor=none;top=0;left=0;bottom=0;right=0;align=left;spacingLeft=6;overflow=hidden;whiteSpace=wrap;html=1;movable=0;resizable=0;rotatable=0;deletable=0;editable=0;locked=1;" parent="At6EdBGd9hR8QfE1C5nS-10" vertex="1">
          <mxGeometry x="30" width="150" height="30" as="geometry">
            <mxRectangle width="150" height="30" as="alternateBounds" />
          </mxGeometry>
        </mxCell>
        <mxCell id="At6EdBGd9hR8QfE1C5nS-59" value="" style="shape=tableRow;horizontal=0;startSize=0;swimlaneHead=0;swimlaneBody=0;fillColor=none;collapsible=0;dropTarget=0;points=[[0,0.5],[1,0.5]];portConstraint=eastwest;top=0;left=0;right=0;bottom=0;movable=0;resizable=0;rotatable=0;deletable=0;editable=0;locked=1;connectable=0;" parent="At6EdBGd9hR8QfE1C5nS-3" vertex="1">
          <mxGeometry y="120" width="180" height="30" as="geometry" />
        </mxCell>
        <mxCell id="At6EdBGd9hR8QfE1C5nS-60" value="" style="shape=partialRectangle;connectable=0;fillColor=none;top=0;left=0;bottom=0;right=0;editable=0;overflow=hidden;whiteSpace=wrap;html=1;movable=0;resizable=0;rotatable=0;deletable=0;locked=1;" parent="At6EdBGd9hR8QfE1C5nS-59" vertex="1">
          <mxGeometry width="30" height="30" as="geometry">
            <mxRectangle width="30" height="30" as="alternateBounds" />
          </mxGeometry>
        </mxCell>
        <mxCell id="At6EdBGd9hR8QfE1C5nS-61" value="userphone" style="shape=partialRectangle;connectable=0;fillColor=none;top=0;left=0;bottom=0;right=0;align=left;spacingLeft=6;overflow=hidden;whiteSpace=wrap;html=1;movable=0;resizable=0;rotatable=0;deletable=0;editable=0;locked=1;" parent="At6EdBGd9hR8QfE1C5nS-59" vertex="1">
          <mxGeometry x="30" width="150" height="30" as="geometry">
            <mxRectangle width="150" height="30" as="alternateBounds" />
          </mxGeometry>
        </mxCell>
        <mxCell id="At6EdBGd9hR8QfE1C5nS-13" value="" style="shape=tableRow;horizontal=0;startSize=0;swimlaneHead=0;swimlaneBody=0;fillColor=none;collapsible=0;dropTarget=0;points=[[0,0.5],[1,0.5]];portConstraint=eastwest;top=0;left=0;right=0;bottom=0;movable=0;resizable=0;rotatable=0;deletable=0;editable=0;locked=1;connectable=0;" parent="At6EdBGd9hR8QfE1C5nS-3" vertex="1">
          <mxGeometry y="150" width="180" height="30" as="geometry" />
        </mxCell>
        <mxCell id="At6EdBGd9hR8QfE1C5nS-14" value="" style="shape=partialRectangle;connectable=0;fillColor=none;top=0;left=0;bottom=0;right=0;editable=0;overflow=hidden;whiteSpace=wrap;html=1;movable=0;resizable=0;rotatable=0;deletable=0;locked=1;" parent="At6EdBGd9hR8QfE1C5nS-13" vertex="1">
          <mxGeometry width="30" height="30" as="geometry">
            <mxRectangle width="30" height="30" as="alternateBounds" />
          </mxGeometry>
        </mxCell>
        <mxCell id="At6EdBGd9hR8QfE1C5nS-15" value="usergender" style="shape=partialRectangle;connectable=0;fillColor=none;top=0;left=0;bottom=0;right=0;align=left;spacingLeft=6;overflow=hidden;whiteSpace=wrap;html=1;movable=0;resizable=0;rotatable=0;deletable=0;editable=0;locked=1;" parent="At6EdBGd9hR8QfE1C5nS-13" vertex="1">
          <mxGeometry x="30" width="150" height="30" as="geometry">
            <mxRectangle width="150" height="30" as="alternateBounds" />
          </mxGeometry>
        </mxCell>
        <mxCell id="At6EdBGd9hR8QfE1C5nS-64" value="CART" style="shape=table;startSize=30;container=1;collapsible=1;childLayout=tableLayout;fixedRows=1;rowLines=0;fontStyle=1;align=center;resizeLast=1;html=1;movable=0;resizable=0;rotatable=0;deletable=0;editable=0;locked=1;connectable=0;" parent="1" vertex="1">
          <mxGeometry x="3440" y="3172" width="180" height="240" as="geometry" />
        </mxCell>
        <mxCell id="At6EdBGd9hR8QfE1C5nS-65" value="" style="shape=tableRow;horizontal=0;startSize=0;swimlaneHead=0;swimlaneBody=0;fillColor=none;collapsible=0;dropTarget=0;points=[[0,0.5],[1,0.5]];portConstraint=eastwest;top=0;left=0;right=0;bottom=1;movable=0;resizable=0;rotatable=0;deletable=0;editable=0;locked=1;connectable=0;" parent="At6EdBGd9hR8QfE1C5nS-64" vertex="1">
          <mxGeometry y="30" width="180" height="30" as="geometry" />
        </mxCell>
        <mxCell id="At6EdBGd9hR8QfE1C5nS-66" value="PK" style="shape=partialRectangle;connectable=0;fillColor=none;top=0;left=0;bottom=0;right=0;fontStyle=1;overflow=hidden;whiteSpace=wrap;html=1;movable=0;resizable=0;rotatable=0;deletable=0;editable=0;locked=1;" parent="At6EdBGd9hR8QfE1C5nS-65" vertex="1">
          <mxGeometry width="30" height="30" as="geometry">
            <mxRectangle width="30" height="30" as="alternateBounds" />
          </mxGeometry>
        </mxCell>
        <mxCell id="At6EdBGd9hR8QfE1C5nS-67" value="CART_NUM" style="shape=partialRectangle;connectable=0;fillColor=none;top=0;left=0;bottom=0;right=0;align=left;spacingLeft=6;fontStyle=1;overflow=hidden;whiteSpace=wrap;html=1;movable=0;resizable=0;rotatable=0;deletable=0;editable=0;locked=1;" parent="At6EdBGd9hR8QfE1C5nS-65" vertex="1">
          <mxGeometry x="30" width="150" height="30" as="geometry">
            <mxRectangle width="150" height="30" as="alternateBounds" />
          </mxGeometry>
        </mxCell>
        <mxCell id="At6EdBGd9hR8QfE1C5nS-77" value="" style="shape=tableRow;horizontal=0;startSize=0;swimlaneHead=0;swimlaneBody=0;fillColor=none;collapsible=0;dropTarget=0;points=[[0,0.5],[1,0.5]];portConstraint=eastwest;top=0;left=0;right=0;bottom=1;movable=0;resizable=0;rotatable=0;deletable=0;editable=0;locked=1;connectable=0;" parent="At6EdBGd9hR8QfE1C5nS-64" vertex="1">
          <mxGeometry y="60" width="180" height="30" as="geometry" />
        </mxCell>
        <mxCell id="At6EdBGd9hR8QfE1C5nS-78" value="FK" style="shape=partialRectangle;connectable=0;fillColor=none;top=0;left=0;bottom=0;right=0;fontStyle=1;overflow=hidden;whiteSpace=wrap;html=1;movable=0;resizable=0;rotatable=0;deletable=0;editable=0;locked=1;" parent="At6EdBGd9hR8QfE1C5nS-77" vertex="1">
          <mxGeometry width="30" height="30" as="geometry">
            <mxRectangle width="30" height="30" as="alternateBounds" />
          </mxGeometry>
        </mxCell>
        <mxCell id="At6EdBGd9hR8QfE1C5nS-79" value="USERID" style="shape=partialRectangle;connectable=0;fillColor=none;top=0;left=0;bottom=0;right=0;align=left;spacingLeft=6;fontStyle=1;overflow=hidden;whiteSpace=wrap;html=1;movable=0;resizable=0;rotatable=0;deletable=0;editable=0;locked=1;" parent="At6EdBGd9hR8QfE1C5nS-77" vertex="1">
          <mxGeometry x="30" width="150" height="30" as="geometry">
            <mxRectangle width="150" height="30" as="alternateBounds" />
          </mxGeometry>
        </mxCell>
        <mxCell id="At6EdBGd9hR8QfE1C5nS-423" value="" style="shape=tableRow;horizontal=0;startSize=0;swimlaneHead=0;swimlaneBody=0;fillColor=none;collapsible=0;dropTarget=0;points=[[0,0.5],[1,0.5]];portConstraint=eastwest;top=0;left=0;right=0;bottom=1;movable=0;resizable=0;rotatable=0;deletable=0;editable=0;locked=1;connectable=0;" parent="At6EdBGd9hR8QfE1C5nS-64" vertex="1">
          <mxGeometry y="90" width="180" height="30" as="geometry" />
        </mxCell>
        <mxCell id="At6EdBGd9hR8QfE1C5nS-424" value="FK" style="shape=partialRectangle;connectable=0;fillColor=none;top=0;left=0;bottom=0;right=0;fontStyle=1;overflow=hidden;whiteSpace=wrap;html=1;movable=0;resizable=0;rotatable=0;deletable=0;editable=0;locked=1;" parent="At6EdBGd9hR8QfE1C5nS-423" vertex="1">
          <mxGeometry width="30" height="30" as="geometry">
            <mxRectangle width="30" height="30" as="alternateBounds" />
          </mxGeometry>
        </mxCell>
        <mxCell id="At6EdBGd9hR8QfE1C5nS-425" value="ITEM_NUM" style="shape=partialRectangle;connectable=0;fillColor=none;top=0;left=0;bottom=0;right=0;align=left;spacingLeft=6;fontStyle=1;overflow=hidden;whiteSpace=wrap;html=1;movable=0;resizable=0;rotatable=0;deletable=0;editable=0;locked=1;" parent="At6EdBGd9hR8QfE1C5nS-423" vertex="1">
          <mxGeometry x="30" width="150" height="30" as="geometry">
            <mxRectangle width="150" height="30" as="alternateBounds" />
          </mxGeometry>
        </mxCell>
        <mxCell id="At6EdBGd9hR8QfE1C5nS-71" value="" style="shape=tableRow;horizontal=0;startSize=0;swimlaneHead=0;swimlaneBody=0;fillColor=none;collapsible=0;dropTarget=0;points=[[0,0.5],[1,0.5]];portConstraint=eastwest;top=0;left=0;right=0;bottom=0;movable=0;resizable=0;rotatable=0;deletable=0;editable=0;locked=1;connectable=0;" parent="At6EdBGd9hR8QfE1C5nS-64" vertex="1">
          <mxGeometry y="120" width="180" height="30" as="geometry" />
        </mxCell>
        <mxCell id="At6EdBGd9hR8QfE1C5nS-72" value="" style="shape=partialRectangle;connectable=0;fillColor=none;top=0;left=0;bottom=0;right=0;editable=0;overflow=hidden;whiteSpace=wrap;html=1;movable=0;resizable=0;rotatable=0;deletable=0;locked=1;" parent="At6EdBGd9hR8QfE1C5nS-71" vertex="1">
          <mxGeometry width="30" height="30" as="geometry">
            <mxRectangle width="30" height="30" as="alternateBounds" />
          </mxGeometry>
        </mxCell>
        <mxCell id="At6EdBGd9hR8QfE1C5nS-73" value="itemname" style="shape=partialRectangle;connectable=0;fillColor=none;top=0;left=0;bottom=0;right=0;align=left;spacingLeft=6;overflow=hidden;whiteSpace=wrap;html=1;movable=0;resizable=0;rotatable=0;deletable=0;editable=0;locked=1;" parent="At6EdBGd9hR8QfE1C5nS-71" vertex="1">
          <mxGeometry x="30" width="150" height="30" as="geometry">
            <mxRectangle width="150" height="30" as="alternateBounds" />
          </mxGeometry>
        </mxCell>
        <mxCell id="At6EdBGd9hR8QfE1C5nS-396" value="" style="shape=tableRow;horizontal=0;startSize=0;swimlaneHead=0;swimlaneBody=0;fillColor=none;collapsible=0;dropTarget=0;points=[[0,0.5],[1,0.5]];portConstraint=eastwest;top=0;left=0;right=0;bottom=0;movable=0;resizable=0;rotatable=0;deletable=0;editable=0;locked=1;connectable=0;" parent="At6EdBGd9hR8QfE1C5nS-64" vertex="1">
          <mxGeometry y="150" width="180" height="30" as="geometry" />
        </mxCell>
        <mxCell id="At6EdBGd9hR8QfE1C5nS-397" value="" style="shape=partialRectangle;connectable=0;fillColor=none;top=0;left=0;bottom=0;right=0;editable=0;overflow=hidden;whiteSpace=wrap;html=1;movable=0;resizable=0;rotatable=0;deletable=0;locked=1;" parent="At6EdBGd9hR8QfE1C5nS-396" vertex="1">
          <mxGeometry width="30" height="30" as="geometry">
            <mxRectangle width="30" height="30" as="alternateBounds" />
          </mxGeometry>
        </mxCell>
        <mxCell id="At6EdBGd9hR8QfE1C5nS-398" value="itemcount" style="shape=partialRectangle;connectable=0;fillColor=none;top=0;left=0;bottom=0;right=0;align=left;spacingLeft=6;overflow=hidden;whiteSpace=wrap;html=1;movable=0;resizable=0;rotatable=0;deletable=0;editable=0;locked=1;" parent="At6EdBGd9hR8QfE1C5nS-396" vertex="1">
          <mxGeometry x="30" width="150" height="30" as="geometry">
            <mxRectangle width="150" height="30" as="alternateBounds" />
          </mxGeometry>
        </mxCell>
        <mxCell id="At6EdBGd9hR8QfE1C5nS-399" value="" style="shape=tableRow;horizontal=0;startSize=0;swimlaneHead=0;swimlaneBody=0;fillColor=none;collapsible=0;dropTarget=0;points=[[0,0.5],[1,0.5]];portConstraint=eastwest;top=0;left=0;right=0;bottom=0;movable=0;resizable=0;rotatable=0;deletable=0;editable=0;locked=1;connectable=0;" parent="At6EdBGd9hR8QfE1C5nS-64" vertex="1">
          <mxGeometry y="180" width="180" height="30" as="geometry" />
        </mxCell>
        <mxCell id="At6EdBGd9hR8QfE1C5nS-400" value="" style="shape=partialRectangle;connectable=0;fillColor=none;top=0;left=0;bottom=0;right=0;editable=0;overflow=hidden;whiteSpace=wrap;html=1;movable=0;resizable=0;rotatable=0;deletable=0;locked=1;" parent="At6EdBGd9hR8QfE1C5nS-399" vertex="1">
          <mxGeometry width="30" height="30" as="geometry">
            <mxRectangle width="30" height="30" as="alternateBounds" />
          </mxGeometry>
        </mxCell>
        <mxCell id="At6EdBGd9hR8QfE1C5nS-401" value="itemprice" style="shape=partialRectangle;connectable=0;fillColor=none;top=0;left=0;bottom=0;right=0;align=left;spacingLeft=6;overflow=hidden;whiteSpace=wrap;html=1;movable=0;resizable=0;rotatable=0;deletable=0;editable=0;locked=1;" parent="At6EdBGd9hR8QfE1C5nS-399" vertex="1">
          <mxGeometry x="30" width="150" height="30" as="geometry">
            <mxRectangle width="150" height="30" as="alternateBounds" />
          </mxGeometry>
        </mxCell>
        <mxCell id="At6EdBGd9hR8QfE1C5nS-74" value="" style="shape=tableRow;horizontal=0;startSize=0;swimlaneHead=0;swimlaneBody=0;fillColor=none;collapsible=0;dropTarget=0;points=[[0,0.5],[1,0.5]];portConstraint=eastwest;top=0;left=0;right=0;bottom=0;movable=0;resizable=0;rotatable=0;deletable=0;editable=0;locked=1;connectable=0;" parent="At6EdBGd9hR8QfE1C5nS-64" vertex="1">
          <mxGeometry y="210" width="180" height="30" as="geometry" />
        </mxCell>
        <mxCell id="At6EdBGd9hR8QfE1C5nS-75" value="" style="shape=partialRectangle;connectable=0;fillColor=none;top=0;left=0;bottom=0;right=0;editable=0;overflow=hidden;whiteSpace=wrap;html=1;movable=0;resizable=0;rotatable=0;deletable=0;locked=1;" parent="At6EdBGd9hR8QfE1C5nS-74" vertex="1">
          <mxGeometry width="30" height="30" as="geometry">
            <mxRectangle width="30" height="30" as="alternateBounds" />
          </mxGeometry>
        </mxCell>
        <mxCell id="At6EdBGd9hR8QfE1C5nS-76" value="itemimage" style="shape=partialRectangle;connectable=0;fillColor=none;top=0;left=0;bottom=0;right=0;align=left;spacingLeft=6;overflow=hidden;whiteSpace=wrap;html=1;movable=0;resizable=0;rotatable=0;deletable=0;editable=0;locked=1;" parent="At6EdBGd9hR8QfE1C5nS-74" vertex="1">
          <mxGeometry x="30" width="150" height="30" as="geometry">
            <mxRectangle width="150" height="30" as="alternateBounds" />
          </mxGeometry>
        </mxCell>
        <mxCell id="At6EdBGd9hR8QfE1C5nS-106" style="edgeStyle=orthogonalEdgeStyle;rounded=0;orthogonalLoop=1;jettySize=auto;html=1;endArrow=ERmany;endFill=0;startArrow=ERone;startFill=0;movable=0;resizable=0;rotatable=0;deletable=0;editable=0;locked=1;connectable=0;" parent="1" source="At6EdBGd9hR8QfE1C5nS-4" edge="1">
          <mxGeometry relative="1" as="geometry">
            <mxPoint x="3440" y="3246" as="targetPoint" />
            <Array as="points">
              <mxPoint x="3390" y="3215" />
              <mxPoint x="3390" y="3246" />
              <mxPoint x="3440" y="3246" />
            </Array>
          </mxGeometry>
        </mxCell>
        <mxCell id="At6EdBGd9hR8QfE1C5nS-284" value="장바구니 클릭" style="edgeLabel;html=1;align=center;verticalAlign=middle;resizable=0;points=[];fontFamily=Helvetica;fontSize=11;fontColor=default;labelBackgroundColor=default;movable=0;rotatable=0;deletable=0;editable=0;locked=1;connectable=0;" parent="At6EdBGd9hR8QfE1C5nS-106" connectable="0" vertex="1">
          <mxGeometry x="0.0329" y="-1" relative="1" as="geometry">
            <mxPoint as="offset" />
          </mxGeometry>
        </mxCell>
        <mxCell id="At6EdBGd9hR8QfE1C5nS-109" style="edgeStyle=orthogonalEdgeStyle;rounded=0;orthogonalLoop=1;jettySize=auto;html=1;endArrow=ERmany;endFill=0;startArrow=ERone;startFill=0;movable=0;resizable=0;rotatable=0;deletable=0;editable=0;locked=1;connectable=0;" parent="1" edge="1">
          <mxGeometry relative="1" as="geometry">
            <mxPoint x="2840" y="2800" as="sourcePoint" />
            <mxPoint x="3020.25" y="2800" as="targetPoint" />
          </mxGeometry>
        </mxCell>
        <mxCell id="At6EdBGd9hR8QfE1C5nS-165" value="" style="group;movable=1;resizable=1;rotatable=1;deletable=1;editable=1;locked=0;connectable=1;" parent="1" connectable="0" vertex="1">
          <mxGeometry x="3160" y="2750" width="800" height="237.00000000000136" as="geometry" />
        </mxCell>
        <mxCell id="At6EdBGd9hR8QfE1C5nS-114" value="&lt;font style=&quot;font-size: 22px;&quot;&gt;REVIEW&lt;/font&gt;" style="shape=table;startSize=30;container=1;collapsible=1;childLayout=tableLayout;fixedRows=1;rowLines=0;fontStyle=1;align=center;resizeLast=1;html=1;rounded=1;strokeWidth=2;movable=1;resizable=1;rotatable=1;deletable=1;editable=1;locked=0;connectable=1;" parent="At6EdBGd9hR8QfE1C5nS-165" vertex="1">
          <mxGeometry width="800" height="266.00000000000136" as="geometry" />
        </mxCell>
        <mxCell id="At6EdBGd9hR8QfE1C5nS-118" value="" style="shape=tableRow;horizontal=0;startSize=0;swimlaneHead=0;swimlaneBody=0;fillColor=none;collapsible=0;dropTarget=0;points=[[0,0.5],[1,0.5]];portConstraint=eastwest;top=0;left=0;right=0;bottom=0;movable=1;resizable=1;rotatable=1;deletable=1;editable=1;locked=0;connectable=1;" parent="At6EdBGd9hR8QfE1C5nS-114" vertex="1">
          <mxGeometry y="30" width="800" height="30" as="geometry" />
        </mxCell>
        <mxCell id="At6EdBGd9hR8QfE1C5nS-119" value="&lt;font style=&quot;font-size: 17px;&quot;&gt;PK&lt;/font&gt;" style="shape=partialRectangle;connectable=1;fillColor=none;top=0;left=0;bottom=0;right=0;editable=1;overflow=hidden;whiteSpace=wrap;html=1;movable=1;resizable=1;rotatable=1;deletable=1;locked=0;" parent="At6EdBGd9hR8QfE1C5nS-118" vertex="1">
          <mxGeometry width="80" height="30" as="geometry">
            <mxRectangle width="80" height="30" as="alternateBounds" />
          </mxGeometry>
        </mxCell>
        <mxCell id="At6EdBGd9hR8QfE1C5nS-120" value="" style="shape=partialRectangle;connectable=0;fillColor=none;top=0;left=0;bottom=0;right=0;align=left;spacingLeft=6;overflow=hidden;whiteSpace=wrap;html=1;movable=0;resizable=0;rotatable=0;deletable=0;editable=0;locked=1;" parent="At6EdBGd9hR8QfE1C5nS-118" vertex="1">
          <mxGeometry x="80" width="720" height="30" as="geometry">
            <mxRectangle width="720" height="30" as="alternateBounds" />
          </mxGeometry>
        </mxCell>
        <mxCell id="At6EdBGd9hR8QfE1C5nS-139" value="" style="shape=tableRow;horizontal=0;startSize=0;swimlaneHead=0;swimlaneBody=0;fillColor=none;collapsible=0;dropTarget=0;points=[[0,0.5],[1,0.5]];portConstraint=eastwest;top=0;left=0;right=0;bottom=0;movable=1;resizable=1;rotatable=1;deletable=1;editable=1;locked=0;connectable=1;" parent="At6EdBGd9hR8QfE1C5nS-114" vertex="1">
          <mxGeometry y="60" width="800" height="29" as="geometry" />
        </mxCell>
        <mxCell id="At6EdBGd9hR8QfE1C5nS-140" value="&lt;font style=&quot;font-size: 17px;&quot;&gt;PK&lt;/font&gt;" style="shape=partialRectangle;connectable=1;fillColor=none;top=0;left=0;bottom=0;right=0;editable=1;overflow=hidden;whiteSpace=wrap;html=1;movable=1;resizable=1;rotatable=1;deletable=1;locked=0;" parent="At6EdBGd9hR8QfE1C5nS-139" vertex="1">
          <mxGeometry width="80" height="29" as="geometry">
            <mxRectangle width="80" height="29" as="alternateBounds" />
          </mxGeometry>
        </mxCell>
        <mxCell id="At6EdBGd9hR8QfE1C5nS-141" value="" style="shape=partialRectangle;connectable=0;fillColor=none;top=0;left=0;bottom=0;right=0;align=left;spacingLeft=6;overflow=hidden;whiteSpace=wrap;html=1;movable=0;resizable=0;rotatable=0;deletable=0;editable=0;locked=1;" parent="At6EdBGd9hR8QfE1C5nS-139" vertex="1">
          <mxGeometry x="80" width="720" height="29" as="geometry">
            <mxRectangle width="720" height="29" as="alternateBounds" />
          </mxGeometry>
        </mxCell>
        <mxCell id="At6EdBGd9hR8QfE1C5nS-142" value="" style="shape=tableRow;horizontal=0;startSize=0;swimlaneHead=0;swimlaneBody=0;fillColor=none;collapsible=0;dropTarget=0;points=[[0,0.5],[1,0.5]];portConstraint=eastwest;top=0;left=0;right=0;bottom=0;movable=1;resizable=1;rotatable=1;deletable=1;editable=1;locked=0;connectable=1;" parent="At6EdBGd9hR8QfE1C5nS-114" vertex="1">
          <mxGeometry y="89" width="800" height="30" as="geometry" />
        </mxCell>
        <mxCell id="At6EdBGd9hR8QfE1C5nS-143" value="" style="shape=partialRectangle;connectable=1;fillColor=none;top=0;left=0;bottom=0;right=0;editable=1;overflow=hidden;whiteSpace=wrap;html=1;movable=1;resizable=1;rotatable=1;deletable=1;locked=0;" parent="At6EdBGd9hR8QfE1C5nS-142" vertex="1">
          <mxGeometry width="80" height="30" as="geometry">
            <mxRectangle width="80" height="30" as="alternateBounds" />
          </mxGeometry>
        </mxCell>
        <mxCell id="At6EdBGd9hR8QfE1C5nS-144" value="&lt;font style=&quot;font-size: 17px;&quot;&gt;Row 1&lt;/font&gt;" style="shape=partialRectangle;connectable=0;fillColor=none;top=0;left=0;bottom=0;right=0;align=left;spacingLeft=6;overflow=hidden;whiteSpace=wrap;html=1;movable=0;resizable=0;rotatable=0;deletable=0;editable=0;locked=1;" parent="At6EdBGd9hR8QfE1C5nS-142" vertex="1">
          <mxGeometry x="80" width="720" height="30" as="geometry">
            <mxRectangle width="720" height="30" as="alternateBounds" />
          </mxGeometry>
        </mxCell>
        <mxCell id="At6EdBGd9hR8QfE1C5nS-145" value="" style="shape=tableRow;horizontal=0;startSize=0;swimlaneHead=0;swimlaneBody=0;fillColor=none;collapsible=0;dropTarget=0;points=[[0,0.5],[1,0.5]];portConstraint=eastwest;top=0;left=0;right=0;bottom=0;movable=1;resizable=1;rotatable=1;deletable=1;editable=1;locked=0;connectable=1;" parent="At6EdBGd9hR8QfE1C5nS-114" vertex="1">
          <mxGeometry y="119" width="800" height="30" as="geometry" />
        </mxCell>
        <mxCell id="At6EdBGd9hR8QfE1C5nS-146" value="" style="shape=partialRectangle;connectable=1;fillColor=none;top=0;left=0;bottom=0;right=0;editable=1;overflow=hidden;whiteSpace=wrap;html=1;movable=1;resizable=1;rotatable=1;deletable=1;locked=0;" parent="At6EdBGd9hR8QfE1C5nS-145" vertex="1">
          <mxGeometry width="80" height="30" as="geometry">
            <mxRectangle width="80" height="30" as="alternateBounds" />
          </mxGeometry>
        </mxCell>
        <mxCell id="At6EdBGd9hR8QfE1C5nS-147" value="&lt;font style=&quot;font-size: 17px;&quot;&gt;Row 1&lt;/font&gt;" style="shape=partialRectangle;connectable=0;fillColor=none;top=0;left=0;bottom=0;right=0;align=left;spacingLeft=6;overflow=hidden;whiteSpace=wrap;html=1;movable=0;resizable=0;rotatable=0;deletable=0;editable=0;locked=1;" parent="At6EdBGd9hR8QfE1C5nS-145" vertex="1">
          <mxGeometry x="80" width="720" height="30" as="geometry">
            <mxRectangle width="720" height="30" as="alternateBounds" />
          </mxGeometry>
        </mxCell>
        <mxCell id="At6EdBGd9hR8QfE1C5nS-148" value="" style="shape=tableRow;horizontal=0;startSize=0;swimlaneHead=0;swimlaneBody=0;fillColor=none;collapsible=0;dropTarget=0;points=[[0,0.5],[1,0.5]];portConstraint=eastwest;top=0;left=0;right=0;bottom=0;movable=1;resizable=1;rotatable=1;deletable=1;editable=1;locked=0;connectable=1;" parent="At6EdBGd9hR8QfE1C5nS-114" vertex="1">
          <mxGeometry y="149" width="800" height="30" as="geometry" />
        </mxCell>
        <mxCell id="At6EdBGd9hR8QfE1C5nS-149" value="" style="shape=partialRectangle;connectable=1;fillColor=none;top=0;left=0;bottom=0;right=0;editable=1;overflow=hidden;whiteSpace=wrap;html=1;movable=1;resizable=1;rotatable=1;deletable=1;locked=0;" parent="At6EdBGd9hR8QfE1C5nS-148" vertex="1">
          <mxGeometry width="80" height="30" as="geometry">
            <mxRectangle width="80" height="30" as="alternateBounds" />
          </mxGeometry>
        </mxCell>
        <mxCell id="At6EdBGd9hR8QfE1C5nS-150" value="&lt;font style=&quot;font-size: 17px;&quot;&gt;Row 1&lt;/font&gt;" style="shape=partialRectangle;connectable=0;fillColor=none;top=0;left=0;bottom=0;right=0;align=left;spacingLeft=6;overflow=hidden;whiteSpace=wrap;html=1;movable=0;resizable=0;rotatable=0;deletable=0;editable=0;locked=1;" parent="At6EdBGd9hR8QfE1C5nS-148" vertex="1">
          <mxGeometry x="80" width="720" height="30" as="geometry">
            <mxRectangle width="720" height="30" as="alternateBounds" />
          </mxGeometry>
        </mxCell>
        <mxCell id="At6EdBGd9hR8QfE1C5nS-151" value="" style="shape=tableRow;horizontal=0;startSize=0;swimlaneHead=0;swimlaneBody=0;fillColor=none;collapsible=0;dropTarget=0;points=[[0,0.5],[1,0.5]];portConstraint=eastwest;top=0;left=0;right=0;bottom=0;movable=1;resizable=1;rotatable=1;deletable=1;editable=1;locked=0;connectable=1;" parent="At6EdBGd9hR8QfE1C5nS-114" vertex="1">
          <mxGeometry y="179" width="800" height="29" as="geometry" />
        </mxCell>
        <mxCell id="At6EdBGd9hR8QfE1C5nS-152" value="" style="shape=partialRectangle;connectable=1;fillColor=none;top=0;left=0;bottom=0;right=0;editable=1;overflow=hidden;whiteSpace=wrap;html=1;movable=1;resizable=1;rotatable=1;deletable=1;locked=0;" parent="At6EdBGd9hR8QfE1C5nS-151" vertex="1">
          <mxGeometry width="80" height="29" as="geometry">
            <mxRectangle width="80" height="29" as="alternateBounds" />
          </mxGeometry>
        </mxCell>
        <mxCell id="At6EdBGd9hR8QfE1C5nS-153" value="&lt;font style=&quot;font-size: 17px;&quot;&gt;Row 1&lt;/font&gt;" style="shape=partialRectangle;connectable=0;fillColor=none;top=0;left=0;bottom=0;right=0;align=left;spacingLeft=6;overflow=hidden;whiteSpace=wrap;html=1;movable=0;resizable=0;rotatable=0;deletable=0;editable=0;locked=1;" parent="At6EdBGd9hR8QfE1C5nS-151" vertex="1">
          <mxGeometry x="80" width="720" height="29" as="geometry">
            <mxRectangle width="720" height="29" as="alternateBounds" />
          </mxGeometry>
        </mxCell>
        <mxCell id="At6EdBGd9hR8QfE1C5nS-160" value="" style="shape=tableRow;horizontal=0;startSize=0;swimlaneHead=0;swimlaneBody=0;fillColor=none;collapsible=0;dropTarget=0;points=[[0,0.5],[1,0.5]];portConstraint=eastwest;top=0;left=0;right=0;bottom=0;movable=1;resizable=1;rotatable=1;deletable=1;editable=1;locked=0;connectable=1;" parent="At6EdBGd9hR8QfE1C5nS-114" vertex="1">
          <mxGeometry y="208" width="800" height="29" as="geometry" />
        </mxCell>
        <mxCell id="At6EdBGd9hR8QfE1C5nS-161" value="" style="shape=partialRectangle;connectable=1;fillColor=none;top=0;left=0;bottom=0;right=0;editable=1;overflow=hidden;whiteSpace=wrap;html=1;movable=1;resizable=1;rotatable=1;deletable=1;locked=0;" parent="At6EdBGd9hR8QfE1C5nS-160" vertex="1">
          <mxGeometry width="80" height="29" as="geometry">
            <mxRectangle width="80" height="29" as="alternateBounds" />
          </mxGeometry>
        </mxCell>
        <mxCell id="At6EdBGd9hR8QfE1C5nS-162" value="&lt;font style=&quot;font-size: 17px;&quot;&gt;Row 1&lt;/font&gt;" style="shape=partialRectangle;connectable=0;fillColor=none;top=0;left=0;bottom=0;right=0;align=left;spacingLeft=6;overflow=hidden;whiteSpace=wrap;html=1;movable=0;resizable=0;rotatable=0;deletable=0;editable=0;locked=1;" parent="At6EdBGd9hR8QfE1C5nS-160" vertex="1">
          <mxGeometry x="80" width="720" height="29" as="geometry">
            <mxRectangle width="720" height="29" as="alternateBounds" />
          </mxGeometry>
        </mxCell>
        <mxCell id="MEfVUGlpha1yjeblBSF6-4" value="" style="shape=tableRow;horizontal=0;startSize=0;swimlaneHead=0;swimlaneBody=0;fillColor=none;collapsible=0;dropTarget=0;points=[[0,0.5],[1,0.5]];portConstraint=eastwest;top=0;left=0;right=0;bottom=0;movable=1;resizable=1;rotatable=1;deletable=1;editable=1;locked=0;connectable=1;" parent="At6EdBGd9hR8QfE1C5nS-114" vertex="1">
          <mxGeometry y="237" width="800" height="29" as="geometry" />
        </mxCell>
        <mxCell id="MEfVUGlpha1yjeblBSF6-5" value="" style="shape=partialRectangle;connectable=1;fillColor=none;top=0;left=0;bottom=0;right=0;editable=1;overflow=hidden;whiteSpace=wrap;html=1;movable=1;resizable=1;rotatable=1;deletable=1;locked=0;" parent="MEfVUGlpha1yjeblBSF6-4" vertex="1">
          <mxGeometry width="80" height="29" as="geometry">
            <mxRectangle width="80" height="29" as="alternateBounds" />
          </mxGeometry>
        </mxCell>
        <mxCell id="MEfVUGlpha1yjeblBSF6-6" value="&lt;font style=&quot;font-size: 17px;&quot;&gt;Row 1&lt;/font&gt;" style="shape=partialRectangle;connectable=0;fillColor=none;top=0;left=0;bottom=0;right=0;align=left;spacingLeft=6;overflow=hidden;whiteSpace=wrap;html=1;movable=0;resizable=0;rotatable=0;deletable=0;editable=0;locked=1;" parent="MEfVUGlpha1yjeblBSF6-4" vertex="1">
          <mxGeometry x="80" width="720" height="29" as="geometry">
            <mxRectangle width="720" height="29" as="alternateBounds" />
          </mxGeometry>
        </mxCell>
        <mxCell id="At6EdBGd9hR8QfE1C5nS-164" value="" style="endArrow=none;html=1;rounded=0;strokeWidth=2;entryX=0.449;entryY=1.034;entryDx=0;entryDy=0;entryPerimeter=0;movable=0;resizable=0;rotatable=0;deletable=0;editable=0;locked=1;connectable=0;" parent="At6EdBGd9hR8QfE1C5nS-165" target="MEfVUGlpha1yjeblBSF6-4" edge="1">
          <mxGeometry width="50" height="50" relative="1" as="geometry">
            <mxPoint x="360" y="29" as="sourcePoint" />
            <mxPoint x="360" y="229" as="targetPoint" />
          </mxGeometry>
        </mxCell>
        <mxCell id="At6EdBGd9hR8QfE1C5nS-166" value="ORDER" style="shape=table;startSize=30;container=1;collapsible=1;childLayout=tableLayout;fixedRows=1;rowLines=0;fontStyle=1;align=center;resizeLast=1;html=1;movable=1;resizable=1;rotatable=1;deletable=1;editable=1;locked=0;connectable=1;" parent="1" vertex="1">
          <mxGeometry x="3440" y="3440" width="180" height="180" as="geometry" />
        </mxCell>
        <mxCell id="At6EdBGd9hR8QfE1C5nS-167" value="" style="shape=tableRow;horizontal=0;startSize=0;swimlaneHead=0;swimlaneBody=0;fillColor=none;collapsible=0;dropTarget=0;points=[[0,0.5],[1,0.5]];portConstraint=eastwest;top=0;left=0;right=0;bottom=1;movable=1;resizable=1;rotatable=1;deletable=1;editable=1;locked=0;connectable=1;" parent="At6EdBGd9hR8QfE1C5nS-166" vertex="1">
          <mxGeometry y="30" width="180" height="30" as="geometry" />
        </mxCell>
        <mxCell id="At6EdBGd9hR8QfE1C5nS-168" value="PK" style="shape=partialRectangle;connectable=1;fillColor=none;top=0;left=0;bottom=0;right=0;fontStyle=1;overflow=hidden;whiteSpace=wrap;html=1;movable=1;resizable=1;rotatable=1;deletable=1;editable=1;locked=0;" parent="At6EdBGd9hR8QfE1C5nS-167" vertex="1">
          <mxGeometry width="30" height="30" as="geometry">
            <mxRectangle width="30" height="30" as="alternateBounds" />
          </mxGeometry>
        </mxCell>
        <mxCell id="At6EdBGd9hR8QfE1C5nS-169" value="ORDER_NUM" style="shape=partialRectangle;connectable=1;fillColor=none;top=0;left=0;bottom=0;right=0;align=left;spacingLeft=6;fontStyle=1;overflow=hidden;whiteSpace=wrap;html=1;movable=1;resizable=1;rotatable=1;deletable=1;editable=1;locked=0;" parent="At6EdBGd9hR8QfE1C5nS-167" vertex="1">
          <mxGeometry x="30" width="150" height="30" as="geometry">
            <mxRectangle width="150" height="30" as="alternateBounds" />
          </mxGeometry>
        </mxCell>
        <mxCell id="At6EdBGd9hR8QfE1C5nS-170" value="" style="shape=tableRow;horizontal=0;startSize=0;swimlaneHead=0;swimlaneBody=0;fillColor=none;collapsible=0;dropTarget=0;points=[[0,0.5],[1,0.5]];portConstraint=eastwest;top=0;left=0;right=0;bottom=1;movable=1;resizable=1;rotatable=1;deletable=1;editable=1;locked=0;connectable=1;" parent="At6EdBGd9hR8QfE1C5nS-166" vertex="1">
          <mxGeometry y="60" width="180" height="30" as="geometry" />
        </mxCell>
        <mxCell id="At6EdBGd9hR8QfE1C5nS-171" value="FK" style="shape=partialRectangle;connectable=1;fillColor=none;top=0;left=0;bottom=0;right=0;fontStyle=1;overflow=hidden;whiteSpace=wrap;html=1;movable=1;resizable=1;rotatable=1;deletable=1;editable=1;locked=0;" parent="At6EdBGd9hR8QfE1C5nS-170" vertex="1">
          <mxGeometry width="30" height="30" as="geometry">
            <mxRectangle width="30" height="30" as="alternateBounds" />
          </mxGeometry>
        </mxCell>
        <mxCell id="At6EdBGd9hR8QfE1C5nS-172" value="ITEM_NUM" style="shape=partialRectangle;connectable=1;fillColor=none;top=0;left=0;bottom=0;right=0;align=left;spacingLeft=6;fontStyle=1;overflow=hidden;whiteSpace=wrap;html=1;movable=1;resizable=1;rotatable=1;deletable=1;editable=1;locked=0;" parent="At6EdBGd9hR8QfE1C5nS-170" vertex="1">
          <mxGeometry x="30" width="150" height="30" as="geometry">
            <mxRectangle width="150" height="30" as="alternateBounds" />
          </mxGeometry>
        </mxCell>
        <mxCell id="At6EdBGd9hR8QfE1C5nS-173" value="" style="shape=tableRow;horizontal=0;startSize=0;swimlaneHead=0;swimlaneBody=0;fillColor=none;collapsible=0;dropTarget=0;points=[[0,0.5],[1,0.5]];portConstraint=eastwest;top=0;left=0;right=0;bottom=0;movable=1;resizable=1;rotatable=1;deletable=1;editable=1;locked=0;connectable=1;" parent="At6EdBGd9hR8QfE1C5nS-166" vertex="1">
          <mxGeometry y="90" width="180" height="30" as="geometry" />
        </mxCell>
        <mxCell id="At6EdBGd9hR8QfE1C5nS-174" value="" style="shape=partialRectangle;connectable=1;fillColor=none;top=0;left=0;bottom=0;right=0;editable=1;overflow=hidden;whiteSpace=wrap;html=1;movable=1;resizable=1;rotatable=1;deletable=1;locked=0;" parent="At6EdBGd9hR8QfE1C5nS-173" vertex="1">
          <mxGeometry width="30" height="30" as="geometry">
            <mxRectangle width="30" height="30" as="alternateBounds" />
          </mxGeometry>
        </mxCell>
        <mxCell id="At6EdBGd9hR8QfE1C5nS-175" value="itemname" style="shape=partialRectangle;connectable=1;fillColor=none;top=0;left=0;bottom=0;right=0;align=left;spacingLeft=6;overflow=hidden;whiteSpace=wrap;html=1;movable=1;resizable=1;rotatable=1;deletable=1;editable=1;locked=0;" parent="At6EdBGd9hR8QfE1C5nS-173" vertex="1">
          <mxGeometry x="30" width="150" height="30" as="geometry">
            <mxRectangle width="150" height="30" as="alternateBounds" />
          </mxGeometry>
        </mxCell>
        <mxCell id="At6EdBGd9hR8QfE1C5nS-176" value="" style="shape=tableRow;horizontal=0;startSize=0;swimlaneHead=0;swimlaneBody=0;fillColor=none;collapsible=0;dropTarget=0;points=[[0,0.5],[1,0.5]];portConstraint=eastwest;top=0;left=0;right=0;bottom=0;movable=1;resizable=1;rotatable=1;deletable=1;editable=1;locked=0;connectable=1;" parent="At6EdBGd9hR8QfE1C5nS-166" vertex="1">
          <mxGeometry y="120" width="180" height="30" as="geometry" />
        </mxCell>
        <mxCell id="At6EdBGd9hR8QfE1C5nS-177" value="" style="shape=partialRectangle;connectable=1;fillColor=none;top=0;left=0;bottom=0;right=0;editable=1;overflow=hidden;whiteSpace=wrap;html=1;movable=1;resizable=1;rotatable=1;deletable=1;locked=0;" parent="At6EdBGd9hR8QfE1C5nS-176" vertex="1">
          <mxGeometry width="30" height="30" as="geometry">
            <mxRectangle width="30" height="30" as="alternateBounds" />
          </mxGeometry>
        </mxCell>
        <mxCell id="At6EdBGd9hR8QfE1C5nS-178" value="itemcount" style="shape=partialRectangle;connectable=1;fillColor=none;top=0;left=0;bottom=0;right=0;align=left;spacingLeft=6;overflow=hidden;whiteSpace=wrap;html=1;movable=1;resizable=1;rotatable=1;deletable=1;editable=1;locked=0;" parent="At6EdBGd9hR8QfE1C5nS-176" vertex="1">
          <mxGeometry x="30" width="150" height="30" as="geometry">
            <mxRectangle width="150" height="30" as="alternateBounds" />
          </mxGeometry>
        </mxCell>
        <mxCell id="At6EdBGd9hR8QfE1C5nS-179" value="" style="shape=tableRow;horizontal=0;startSize=0;swimlaneHead=0;swimlaneBody=0;fillColor=none;collapsible=0;dropTarget=0;points=[[0,0.5],[1,0.5]];portConstraint=eastwest;top=0;left=0;right=0;bottom=0;movable=1;resizable=1;rotatable=1;deletable=1;editable=1;locked=0;connectable=1;" parent="At6EdBGd9hR8QfE1C5nS-166" vertex="1">
          <mxGeometry y="150" width="180" height="30" as="geometry" />
        </mxCell>
        <mxCell id="At6EdBGd9hR8QfE1C5nS-180" value="" style="shape=partialRectangle;connectable=1;fillColor=none;top=0;left=0;bottom=0;right=0;editable=1;overflow=hidden;whiteSpace=wrap;html=1;movable=1;resizable=1;rotatable=1;deletable=1;locked=0;" parent="At6EdBGd9hR8QfE1C5nS-179" vertex="1">
          <mxGeometry width="30" height="30" as="geometry">
            <mxRectangle width="30" height="30" as="alternateBounds" />
          </mxGeometry>
        </mxCell>
        <mxCell id="At6EdBGd9hR8QfE1C5nS-181" value="itemprice" style="shape=partialRectangle;connectable=1;fillColor=none;top=0;left=0;bottom=0;right=0;align=left;spacingLeft=6;overflow=hidden;whiteSpace=wrap;html=1;movable=1;resizable=1;rotatable=1;deletable=1;editable=1;locked=0;" parent="At6EdBGd9hR8QfE1C5nS-179" vertex="1">
          <mxGeometry x="30" width="150" height="30" as="geometry">
            <mxRectangle width="150" height="30" as="alternateBounds" />
          </mxGeometry>
        </mxCell>
        <mxCell id="At6EdBGd9hR8QfE1C5nS-201" style="edgeStyle=orthogonalEdgeStyle;rounded=0;orthogonalLoop=1;jettySize=auto;html=1;endArrow=ERone;endFill=0;startArrow=ERmany;startFill=0;exitX=0;exitY=0.5;exitDx=0;exitDy=0;entryX=1;entryY=0.5;entryDx=0;entryDy=0;movable=0;resizable=0;rotatable=0;deletable=0;editable=0;locked=1;connectable=0;" parent="1" source="At6EdBGd9hR8QfE1C5nS-170" target="At6EdBGd9hR8QfE1C5nS-243" edge="1">
          <mxGeometry relative="1" as="geometry">
            <mxPoint x="3760" y="3240" as="sourcePoint" />
            <mxPoint x="3380" y="3485" as="targetPoint" />
            <Array as="points">
              <mxPoint x="3390" y="3515" />
              <mxPoint x="3390" y="3485" />
            </Array>
          </mxGeometry>
        </mxCell>
        <mxCell id="At6EdBGd9hR8QfE1C5nS-286" value="(백)물건들" style="edgeLabel;html=1;align=center;verticalAlign=middle;resizable=0;points=[];fontFamily=Helvetica;fontSize=11;fontColor=default;labelBackgroundColor=default;movable=0;rotatable=0;deletable=0;editable=0;locked=1;connectable=0;" parent="At6EdBGd9hR8QfE1C5nS-201" connectable="0" vertex="1">
          <mxGeometry x="0.0175" y="1" relative="1" as="geometry">
            <mxPoint as="offset" />
          </mxGeometry>
        </mxCell>
        <mxCell id="At6EdBGd9hR8QfE1C5nS-242" value="ITEMS" style="shape=table;startSize=30;container=1;collapsible=1;childLayout=tableLayout;fixedRows=1;rowLines=0;fontStyle=1;align=center;resizeLast=1;html=1;movable=0;resizable=0;rotatable=0;deletable=0;editable=0;locked=1;connectable=0;" parent="1" vertex="1">
          <mxGeometry x="3160" y="3440" width="180" height="210" as="geometry" />
        </mxCell>
        <mxCell id="At6EdBGd9hR8QfE1C5nS-243" value="" style="shape=tableRow;horizontal=0;startSize=0;swimlaneHead=0;swimlaneBody=0;fillColor=none;collapsible=0;dropTarget=0;points=[[0,0.5],[1,0.5]];portConstraint=eastwest;top=0;left=0;right=0;bottom=1;movable=0;resizable=0;rotatable=0;deletable=0;editable=0;locked=1;connectable=0;" parent="At6EdBGd9hR8QfE1C5nS-242" vertex="1">
          <mxGeometry y="30" width="180" height="30" as="geometry" />
        </mxCell>
        <mxCell id="At6EdBGd9hR8QfE1C5nS-244" value="PK" style="shape=partialRectangle;connectable=0;fillColor=none;top=0;left=0;bottom=0;right=0;fontStyle=1;overflow=hidden;whiteSpace=wrap;html=1;movable=0;resizable=0;rotatable=0;deletable=0;editable=0;locked=1;" parent="At6EdBGd9hR8QfE1C5nS-243" vertex="1">
          <mxGeometry width="30" height="30" as="geometry">
            <mxRectangle width="30" height="30" as="alternateBounds" />
          </mxGeometry>
        </mxCell>
        <mxCell id="At6EdBGd9hR8QfE1C5nS-245" value="ITEM_NUM" style="shape=partialRectangle;connectable=0;fillColor=none;top=0;left=0;bottom=0;right=0;align=left;spacingLeft=6;fontStyle=1;overflow=hidden;whiteSpace=wrap;html=1;movable=0;resizable=0;rotatable=0;deletable=0;editable=0;locked=1;" parent="At6EdBGd9hR8QfE1C5nS-243" vertex="1">
          <mxGeometry x="30" width="150" height="30" as="geometry">
            <mxRectangle width="150" height="30" as="alternateBounds" />
          </mxGeometry>
        </mxCell>
        <mxCell id="At6EdBGd9hR8QfE1C5nS-246" value="" style="shape=tableRow;horizontal=0;startSize=0;swimlaneHead=0;swimlaneBody=0;fillColor=none;collapsible=0;dropTarget=0;points=[[0,0.5],[1,0.5]];portConstraint=eastwest;top=0;left=0;right=0;bottom=1;movable=0;resizable=0;rotatable=0;deletable=0;editable=0;locked=1;connectable=0;" parent="At6EdBGd9hR8QfE1C5nS-242" vertex="1">
          <mxGeometry y="60" width="180" height="30" as="geometry" />
        </mxCell>
        <mxCell id="At6EdBGd9hR8QfE1C5nS-247" value="FK" style="shape=partialRectangle;connectable=0;fillColor=none;top=0;left=0;bottom=0;right=0;fontStyle=1;overflow=hidden;whiteSpace=wrap;html=1;movable=0;resizable=0;rotatable=0;deletable=0;editable=0;locked=1;" parent="At6EdBGd9hR8QfE1C5nS-246" vertex="1">
          <mxGeometry width="30" height="30" as="geometry">
            <mxRectangle width="30" height="30" as="alternateBounds" />
          </mxGeometry>
        </mxCell>
        <mxCell id="At6EdBGd9hR8QfE1C5nS-248" value="CATEGORY" style="shape=partialRectangle;connectable=0;fillColor=none;top=0;left=0;bottom=0;right=0;align=left;spacingLeft=6;fontStyle=1;overflow=hidden;whiteSpace=wrap;html=1;movable=0;resizable=0;rotatable=0;deletable=0;editable=0;locked=1;" parent="At6EdBGd9hR8QfE1C5nS-246" vertex="1">
          <mxGeometry x="30" width="150" height="30" as="geometry">
            <mxRectangle width="150" height="30" as="alternateBounds" />
          </mxGeometry>
        </mxCell>
        <mxCell id="At6EdBGd9hR8QfE1C5nS-249" value="" style="shape=tableRow;horizontal=0;startSize=0;swimlaneHead=0;swimlaneBody=0;fillColor=none;collapsible=0;dropTarget=0;points=[[0,0.5],[1,0.5]];portConstraint=eastwest;top=0;left=0;right=0;bottom=0;movable=0;resizable=0;rotatable=0;deletable=0;editable=0;locked=1;connectable=0;" parent="At6EdBGd9hR8QfE1C5nS-242" vertex="1">
          <mxGeometry y="90" width="180" height="30" as="geometry" />
        </mxCell>
        <mxCell id="At6EdBGd9hR8QfE1C5nS-250" value="" style="shape=partialRectangle;connectable=0;fillColor=none;top=0;left=0;bottom=0;right=0;editable=0;overflow=hidden;whiteSpace=wrap;html=1;movable=0;resizable=0;rotatable=0;deletable=0;locked=1;" parent="At6EdBGd9hR8QfE1C5nS-249" vertex="1">
          <mxGeometry width="30" height="30" as="geometry">
            <mxRectangle width="30" height="30" as="alternateBounds" />
          </mxGeometry>
        </mxCell>
        <mxCell id="At6EdBGd9hR8QfE1C5nS-251" value="itemname" style="shape=partialRectangle;connectable=0;fillColor=none;top=0;left=0;bottom=0;right=0;align=left;spacingLeft=6;overflow=hidden;whiteSpace=wrap;html=1;movable=0;resizable=0;rotatable=0;deletable=0;editable=0;locked=1;" parent="At6EdBGd9hR8QfE1C5nS-249" vertex="1">
          <mxGeometry x="30" width="150" height="30" as="geometry">
            <mxRectangle width="150" height="30" as="alternateBounds" />
          </mxGeometry>
        </mxCell>
        <mxCell id="At6EdBGd9hR8QfE1C5nS-252" value="" style="shape=tableRow;horizontal=0;startSize=0;swimlaneHead=0;swimlaneBody=0;fillColor=none;collapsible=0;dropTarget=0;points=[[0,0.5],[1,0.5]];portConstraint=eastwest;top=0;left=0;right=0;bottom=0;movable=0;resizable=0;rotatable=0;deletable=0;editable=0;locked=1;connectable=0;" parent="At6EdBGd9hR8QfE1C5nS-242" vertex="1">
          <mxGeometry y="120" width="180" height="30" as="geometry" />
        </mxCell>
        <mxCell id="At6EdBGd9hR8QfE1C5nS-253" value="" style="shape=partialRectangle;connectable=0;fillColor=none;top=0;left=0;bottom=0;right=0;editable=0;overflow=hidden;whiteSpace=wrap;html=1;movable=0;resizable=0;rotatable=0;deletable=0;locked=1;" parent="At6EdBGd9hR8QfE1C5nS-252" vertex="1">
          <mxGeometry width="30" height="30" as="geometry">
            <mxRectangle width="30" height="30" as="alternateBounds" />
          </mxGeometry>
        </mxCell>
        <mxCell id="At6EdBGd9hR8QfE1C5nS-254" value="itemcount" style="shape=partialRectangle;connectable=0;fillColor=none;top=0;left=0;bottom=0;right=0;align=left;spacingLeft=6;overflow=hidden;whiteSpace=wrap;html=1;movable=0;resizable=0;rotatable=0;deletable=0;editable=0;locked=1;" parent="At6EdBGd9hR8QfE1C5nS-252" vertex="1">
          <mxGeometry x="30" width="150" height="30" as="geometry">
            <mxRectangle width="150" height="30" as="alternateBounds" />
          </mxGeometry>
        </mxCell>
        <mxCell id="At6EdBGd9hR8QfE1C5nS-255" value="" style="shape=tableRow;horizontal=0;startSize=0;swimlaneHead=0;swimlaneBody=0;fillColor=none;collapsible=0;dropTarget=0;points=[[0,0.5],[1,0.5]];portConstraint=eastwest;top=0;left=0;right=0;bottom=0;movable=0;resizable=0;rotatable=0;deletable=0;editable=0;locked=1;connectable=0;" parent="At6EdBGd9hR8QfE1C5nS-242" vertex="1">
          <mxGeometry y="150" width="180" height="30" as="geometry" />
        </mxCell>
        <mxCell id="At6EdBGd9hR8QfE1C5nS-256" value="" style="shape=partialRectangle;connectable=0;fillColor=none;top=0;left=0;bottom=0;right=0;editable=0;overflow=hidden;whiteSpace=wrap;html=1;movable=0;resizable=0;rotatable=0;deletable=0;locked=1;" parent="At6EdBGd9hR8QfE1C5nS-255" vertex="1">
          <mxGeometry width="30" height="30" as="geometry">
            <mxRectangle width="30" height="30" as="alternateBounds" />
          </mxGeometry>
        </mxCell>
        <mxCell id="At6EdBGd9hR8QfE1C5nS-257" value="itemprice" style="shape=partialRectangle;connectable=0;fillColor=none;top=0;left=0;bottom=0;right=0;align=left;spacingLeft=6;overflow=hidden;whiteSpace=wrap;html=1;movable=0;resizable=0;rotatable=0;deletable=0;editable=0;locked=1;" parent="At6EdBGd9hR8QfE1C5nS-255" vertex="1">
          <mxGeometry x="30" width="150" height="30" as="geometry">
            <mxRectangle width="150" height="30" as="alternateBounds" />
          </mxGeometry>
        </mxCell>
        <mxCell id="At6EdBGd9hR8QfE1C5nS-278" value="" style="shape=tableRow;horizontal=0;startSize=0;swimlaneHead=0;swimlaneBody=0;fillColor=none;collapsible=0;dropTarget=0;points=[[0,0.5],[1,0.5]];portConstraint=eastwest;top=0;left=0;right=0;bottom=0;movable=0;resizable=0;rotatable=0;deletable=0;editable=0;locked=1;connectable=0;" parent="At6EdBGd9hR8QfE1C5nS-242" vertex="1">
          <mxGeometry y="180" width="180" height="30" as="geometry" />
        </mxCell>
        <mxCell id="At6EdBGd9hR8QfE1C5nS-279" value="" style="shape=partialRectangle;connectable=0;fillColor=none;top=0;left=0;bottom=0;right=0;editable=0;overflow=hidden;whiteSpace=wrap;html=1;movable=0;resizable=0;rotatable=0;deletable=0;locked=1;" parent="At6EdBGd9hR8QfE1C5nS-278" vertex="1">
          <mxGeometry width="30" height="30" as="geometry">
            <mxRectangle width="30" height="30" as="alternateBounds" />
          </mxGeometry>
        </mxCell>
        <mxCell id="At6EdBGd9hR8QfE1C5nS-280" value="itemimage" style="shape=partialRectangle;connectable=0;fillColor=none;top=0;left=0;bottom=0;right=0;align=left;spacingLeft=6;overflow=hidden;whiteSpace=wrap;html=1;movable=0;resizable=0;rotatable=0;deletable=0;editable=0;locked=1;" parent="At6EdBGd9hR8QfE1C5nS-278" vertex="1">
          <mxGeometry x="30" width="150" height="30" as="geometry">
            <mxRectangle width="150" height="30" as="alternateBounds" />
          </mxGeometry>
        </mxCell>
        <mxCell id="At6EdBGd9hR8QfE1C5nS-362" value="&lt;span style=&quot;text-align: left; text-wrap: wrap;&quot;&gt;ORDERED&lt;/span&gt;" style="shape=table;startSize=30;container=1;collapsible=1;childLayout=tableLayout;fixedRows=1;rowLines=0;fontStyle=1;align=center;resizeLast=1;html=1;movable=0;resizable=0;rotatable=0;deletable=0;editable=0;locked=1;connectable=0;" parent="1" vertex="1">
          <mxGeometry x="3720" y="3440" width="180" height="210" as="geometry" />
        </mxCell>
        <mxCell id="At6EdBGd9hR8QfE1C5nS-363" value="" style="shape=tableRow;horizontal=0;startSize=0;swimlaneHead=0;swimlaneBody=0;fillColor=none;collapsible=0;dropTarget=0;points=[[0,0.5],[1,0.5]];portConstraint=eastwest;top=0;left=0;right=0;bottom=1;movable=0;resizable=0;rotatable=0;deletable=0;editable=0;locked=1;connectable=0;" parent="At6EdBGd9hR8QfE1C5nS-362" vertex="1">
          <mxGeometry y="30" width="180" height="30" as="geometry" />
        </mxCell>
        <mxCell id="At6EdBGd9hR8QfE1C5nS-364" value="PK" style="shape=partialRectangle;connectable=0;fillColor=none;top=0;left=0;bottom=0;right=0;fontStyle=1;overflow=hidden;whiteSpace=wrap;html=1;movable=0;resizable=0;rotatable=0;deletable=0;editable=0;locked=1;" parent="At6EdBGd9hR8QfE1C5nS-363" vertex="1">
          <mxGeometry width="30" height="30" as="geometry">
            <mxRectangle width="30" height="30" as="alternateBounds" />
          </mxGeometry>
        </mxCell>
        <mxCell id="At6EdBGd9hR8QfE1C5nS-365" value="ORDER_NUM" style="shape=partialRectangle;connectable=0;fillColor=none;top=0;left=0;bottom=0;right=0;align=left;spacingLeft=6;fontStyle=1;overflow=hidden;whiteSpace=wrap;html=1;movable=0;resizable=0;rotatable=0;deletable=0;editable=0;locked=1;" parent="At6EdBGd9hR8QfE1C5nS-363" vertex="1">
          <mxGeometry x="30" width="150" height="30" as="geometry">
            <mxRectangle width="150" height="30" as="alternateBounds" />
          </mxGeometry>
        </mxCell>
        <mxCell id="At6EdBGd9hR8QfE1C5nS-366" value="" style="shape=tableRow;horizontal=0;startSize=0;swimlaneHead=0;swimlaneBody=0;fillColor=none;collapsible=0;dropTarget=0;points=[[0,0.5],[1,0.5]];portConstraint=eastwest;top=0;left=0;right=0;bottom=1;movable=0;resizable=0;rotatable=0;deletable=0;editable=0;locked=1;connectable=0;" parent="At6EdBGd9hR8QfE1C5nS-362" vertex="1">
          <mxGeometry y="60" width="180" height="30" as="geometry" />
        </mxCell>
        <mxCell id="At6EdBGd9hR8QfE1C5nS-367" value="FK" style="shape=partialRectangle;connectable=0;fillColor=none;top=0;left=0;bottom=0;right=0;fontStyle=1;overflow=hidden;whiteSpace=wrap;html=1;movable=0;resizable=0;rotatable=0;deletable=0;editable=0;locked=1;" parent="At6EdBGd9hR8QfE1C5nS-366" vertex="1">
          <mxGeometry width="30" height="30" as="geometry">
            <mxRectangle width="30" height="30" as="alternateBounds" />
          </mxGeometry>
        </mxCell>
        <mxCell id="At6EdBGd9hR8QfE1C5nS-368" value="ORDER_NUM" style="shape=partialRectangle;connectable=0;fillColor=none;top=0;left=0;bottom=0;right=0;align=left;spacingLeft=6;fontStyle=1;overflow=hidden;whiteSpace=wrap;html=1;movable=0;resizable=0;rotatable=0;deletable=0;editable=0;locked=1;" parent="At6EdBGd9hR8QfE1C5nS-366" vertex="1">
          <mxGeometry x="30" width="150" height="30" as="geometry">
            <mxRectangle width="150" height="30" as="alternateBounds" />
          </mxGeometry>
        </mxCell>
        <mxCell id="At6EdBGd9hR8QfE1C5nS-369" value="" style="shape=tableRow;horizontal=0;startSize=0;swimlaneHead=0;swimlaneBody=0;fillColor=none;collapsible=0;dropTarget=0;points=[[0,0.5],[1,0.5]];portConstraint=eastwest;top=0;left=0;right=0;bottom=0;movable=0;resizable=0;rotatable=0;deletable=0;editable=0;locked=1;connectable=0;" parent="At6EdBGd9hR8QfE1C5nS-362" vertex="1">
          <mxGeometry y="90" width="180" height="30" as="geometry" />
        </mxCell>
        <mxCell id="At6EdBGd9hR8QfE1C5nS-370" value="" style="shape=partialRectangle;connectable=0;fillColor=none;top=0;left=0;bottom=0;right=0;editable=0;overflow=hidden;whiteSpace=wrap;html=1;movable=0;resizable=0;rotatable=0;deletable=0;locked=1;" parent="At6EdBGd9hR8QfE1C5nS-369" vertex="1">
          <mxGeometry width="30" height="30" as="geometry">
            <mxRectangle width="30" height="30" as="alternateBounds" />
          </mxGeometry>
        </mxCell>
        <mxCell id="At6EdBGd9hR8QfE1C5nS-371" value="itemname" style="shape=partialRectangle;connectable=0;fillColor=none;top=0;left=0;bottom=0;right=0;align=left;spacingLeft=6;overflow=hidden;whiteSpace=wrap;html=1;movable=0;resizable=0;rotatable=0;deletable=0;editable=0;locked=1;" parent="At6EdBGd9hR8QfE1C5nS-369" vertex="1">
          <mxGeometry x="30" width="150" height="30" as="geometry">
            <mxRectangle width="150" height="30" as="alternateBounds" />
          </mxGeometry>
        </mxCell>
        <mxCell id="MEfVUGlpha1yjeblBSF6-38" value="" style="shape=tableRow;horizontal=0;startSize=0;swimlaneHead=0;swimlaneBody=0;fillColor=none;collapsible=0;dropTarget=0;points=[[0,0.5],[1,0.5]];portConstraint=eastwest;top=0;left=0;right=0;bottom=0;movable=0;resizable=0;rotatable=0;deletable=0;editable=0;locked=1;connectable=0;" parent="At6EdBGd9hR8QfE1C5nS-362" vertex="1">
          <mxGeometry y="120" width="180" height="30" as="geometry" />
        </mxCell>
        <mxCell id="MEfVUGlpha1yjeblBSF6-39" value="" style="shape=partialRectangle;connectable=0;fillColor=none;top=0;left=0;bottom=0;right=0;editable=0;overflow=hidden;whiteSpace=wrap;html=1;movable=0;resizable=0;rotatable=0;deletable=0;locked=1;" parent="MEfVUGlpha1yjeblBSF6-38" vertex="1">
          <mxGeometry width="30" height="30" as="geometry">
            <mxRectangle width="30" height="30" as="alternateBounds" />
          </mxGeometry>
        </mxCell>
        <mxCell id="MEfVUGlpha1yjeblBSF6-40" value="itemcount" style="shape=partialRectangle;connectable=0;fillColor=none;top=0;left=0;bottom=0;right=0;align=left;spacingLeft=6;overflow=hidden;whiteSpace=wrap;html=1;movable=0;resizable=0;rotatable=0;deletable=0;editable=0;locked=1;" parent="MEfVUGlpha1yjeblBSF6-38" vertex="1">
          <mxGeometry x="30" width="150" height="30" as="geometry">
            <mxRectangle width="150" height="30" as="alternateBounds" />
          </mxGeometry>
        </mxCell>
        <mxCell id="At6EdBGd9hR8QfE1C5nS-372" value="" style="shape=tableRow;horizontal=0;startSize=0;swimlaneHead=0;swimlaneBody=0;fillColor=none;collapsible=0;dropTarget=0;points=[[0,0.5],[1,0.5]];portConstraint=eastwest;top=0;left=0;right=0;bottom=0;movable=0;resizable=0;rotatable=0;deletable=0;editable=0;locked=1;connectable=0;" parent="At6EdBGd9hR8QfE1C5nS-362" vertex="1">
          <mxGeometry y="150" width="180" height="30" as="geometry" />
        </mxCell>
        <mxCell id="At6EdBGd9hR8QfE1C5nS-373" value="" style="shape=partialRectangle;connectable=0;fillColor=none;top=0;left=0;bottom=0;right=0;editable=0;overflow=hidden;whiteSpace=wrap;html=1;movable=0;resizable=0;rotatable=0;deletable=0;locked=1;" parent="At6EdBGd9hR8QfE1C5nS-372" vertex="1">
          <mxGeometry width="30" height="30" as="geometry">
            <mxRectangle width="30" height="30" as="alternateBounds" />
          </mxGeometry>
        </mxCell>
        <mxCell id="At6EdBGd9hR8QfE1C5nS-374" value="itemprice" style="shape=partialRectangle;connectable=0;fillColor=none;top=0;left=0;bottom=0;right=0;align=left;spacingLeft=6;overflow=hidden;whiteSpace=wrap;html=1;movable=0;resizable=0;rotatable=0;deletable=0;editable=0;locked=1;" parent="At6EdBGd9hR8QfE1C5nS-372" vertex="1">
          <mxGeometry x="30" width="150" height="30" as="geometry">
            <mxRectangle width="150" height="30" as="alternateBounds" />
          </mxGeometry>
        </mxCell>
        <mxCell id="At6EdBGd9hR8QfE1C5nS-375" value="" style="shape=tableRow;horizontal=0;startSize=0;swimlaneHead=0;swimlaneBody=0;fillColor=none;collapsible=0;dropTarget=0;points=[[0,0.5],[1,0.5]];portConstraint=eastwest;top=0;left=0;right=0;bottom=0;movable=0;resizable=0;rotatable=0;deletable=0;editable=0;locked=1;connectable=0;" parent="At6EdBGd9hR8QfE1C5nS-362" vertex="1">
          <mxGeometry y="180" width="180" height="30" as="geometry" />
        </mxCell>
        <mxCell id="At6EdBGd9hR8QfE1C5nS-376" value="" style="shape=partialRectangle;connectable=0;fillColor=none;top=0;left=0;bottom=0;right=0;editable=0;overflow=hidden;whiteSpace=wrap;html=1;movable=0;resizable=0;rotatable=0;deletable=0;locked=1;" parent="At6EdBGd9hR8QfE1C5nS-375" vertex="1">
          <mxGeometry width="30" height="30" as="geometry">
            <mxRectangle width="30" height="30" as="alternateBounds" />
          </mxGeometry>
        </mxCell>
        <mxCell id="At6EdBGd9hR8QfE1C5nS-377" value="ordereddate" style="shape=partialRectangle;connectable=0;fillColor=none;top=0;left=0;bottom=0;right=0;align=left;spacingLeft=6;overflow=hidden;whiteSpace=wrap;html=1;movable=0;resizable=0;rotatable=0;deletable=0;editable=0;locked=1;" parent="At6EdBGd9hR8QfE1C5nS-375" vertex="1">
          <mxGeometry x="30" width="150" height="30" as="geometry">
            <mxRectangle width="150" height="30" as="alternateBounds" />
          </mxGeometry>
        </mxCell>
        <mxCell id="At6EdBGd9hR8QfE1C5nS-378" style="edgeStyle=orthogonalEdgeStyle;shape=connector;rounded=0;orthogonalLoop=1;jettySize=auto;html=1;entryX=1;entryY=0.5;entryDx=0;entryDy=0;strokeColor=default;align=center;verticalAlign=middle;fontFamily=Helvetica;fontSize=11;fontColor=default;labelBackgroundColor=default;startArrow=ERmany;startFill=0;endArrow=ERone;endFill=0;movable=0;resizable=0;rotatable=0;deletable=0;editable=0;locked=1;connectable=0;" parent="1" source="At6EdBGd9hR8QfE1C5nS-366" target="At6EdBGd9hR8QfE1C5nS-167" edge="1">
          <mxGeometry relative="1" as="geometry" />
        </mxCell>
        <mxCell id="At6EdBGd9hR8QfE1C5nS-379" value="주문 내역" style="edgeLabel;html=1;align=center;verticalAlign=middle;resizable=0;points=[];fontFamily=Helvetica;fontSize=11;fontColor=default;labelBackgroundColor=default;movable=0;rotatable=0;deletable=0;editable=0;locked=1;connectable=0;" parent="At6EdBGd9hR8QfE1C5nS-378" connectable="0" vertex="1">
          <mxGeometry x="0.0281" y="-1" relative="1" as="geometry">
            <mxPoint as="offset" />
          </mxGeometry>
        </mxCell>
        <mxCell id="At6EdBGd9hR8QfE1C5nS-380" value="&lt;span style=&quot;text-wrap: wrap;&quot;&gt;REFUND&lt;/span&gt;" style="shape=table;startSize=30;container=1;collapsible=1;childLayout=tableLayout;fixedRows=1;rowLines=0;fontStyle=1;align=center;resizeLast=1;html=1;movable=0;resizable=0;rotatable=0;deletable=0;editable=0;locked=1;connectable=0;" parent="1" vertex="1">
          <mxGeometry x="4000" y="3440" width="180" height="240" as="geometry" />
        </mxCell>
        <mxCell id="At6EdBGd9hR8QfE1C5nS-381" value="" style="shape=tableRow;horizontal=0;startSize=0;swimlaneHead=0;swimlaneBody=0;fillColor=none;collapsible=0;dropTarget=0;points=[[0,0.5],[1,0.5]];portConstraint=eastwest;top=0;left=0;right=0;bottom=1;movable=0;resizable=0;rotatable=0;deletable=0;editable=0;locked=1;connectable=0;" parent="At6EdBGd9hR8QfE1C5nS-380" vertex="1">
          <mxGeometry y="30" width="180" height="30" as="geometry" />
        </mxCell>
        <mxCell id="At6EdBGd9hR8QfE1C5nS-382" value="PK" style="shape=partialRectangle;connectable=0;fillColor=none;top=0;left=0;bottom=0;right=0;fontStyle=1;overflow=hidden;whiteSpace=wrap;html=1;movable=0;resizable=0;rotatable=0;deletable=0;editable=0;locked=1;" parent="At6EdBGd9hR8QfE1C5nS-381" vertex="1">
          <mxGeometry width="30" height="30" as="geometry">
            <mxRectangle width="30" height="30" as="alternateBounds" />
          </mxGeometry>
        </mxCell>
        <mxCell id="At6EdBGd9hR8QfE1C5nS-383" value="REFUND" style="shape=partialRectangle;connectable=0;fillColor=none;top=0;left=0;bottom=0;right=0;align=left;spacingLeft=6;fontStyle=1;overflow=hidden;whiteSpace=wrap;html=1;movable=0;resizable=0;rotatable=0;deletable=0;editable=0;locked=1;" parent="At6EdBGd9hR8QfE1C5nS-381" vertex="1">
          <mxGeometry x="30" width="150" height="30" as="geometry">
            <mxRectangle width="150" height="30" as="alternateBounds" />
          </mxGeometry>
        </mxCell>
        <mxCell id="At6EdBGd9hR8QfE1C5nS-384" value="" style="shape=tableRow;horizontal=0;startSize=0;swimlaneHead=0;swimlaneBody=0;fillColor=none;collapsible=0;dropTarget=0;points=[[0,0.5],[1,0.5]];portConstraint=eastwest;top=0;left=0;right=0;bottom=1;movable=0;resizable=0;rotatable=0;deletable=0;editable=0;locked=1;connectable=0;" parent="At6EdBGd9hR8QfE1C5nS-380" vertex="1">
          <mxGeometry y="60" width="180" height="30" as="geometry" />
        </mxCell>
        <mxCell id="At6EdBGd9hR8QfE1C5nS-385" value="FK" style="shape=partialRectangle;connectable=0;fillColor=none;top=0;left=0;bottom=0;right=0;fontStyle=1;overflow=hidden;whiteSpace=wrap;html=1;movable=0;resizable=0;rotatable=0;deletable=0;editable=0;locked=1;" parent="At6EdBGd9hR8QfE1C5nS-384" vertex="1">
          <mxGeometry width="30" height="30" as="geometry">
            <mxRectangle width="30" height="30" as="alternateBounds" />
          </mxGeometry>
        </mxCell>
        <mxCell id="At6EdBGd9hR8QfE1C5nS-386" value="ORDER_NUM" style="shape=partialRectangle;connectable=0;fillColor=none;top=0;left=0;bottom=0;right=0;align=left;spacingLeft=6;fontStyle=1;overflow=hidden;whiteSpace=wrap;html=1;movable=0;resizable=0;rotatable=0;deletable=0;editable=0;locked=1;" parent="At6EdBGd9hR8QfE1C5nS-384" vertex="1">
          <mxGeometry x="30" width="150" height="30" as="geometry">
            <mxRectangle width="150" height="30" as="alternateBounds" />
          </mxGeometry>
        </mxCell>
        <mxCell id="At6EdBGd9hR8QfE1C5nS-387" value="" style="shape=tableRow;horizontal=0;startSize=0;swimlaneHead=0;swimlaneBody=0;fillColor=none;collapsible=0;dropTarget=0;points=[[0,0.5],[1,0.5]];portConstraint=eastwest;top=0;left=0;right=0;bottom=0;movable=0;resizable=0;rotatable=0;deletable=0;editable=0;locked=1;connectable=0;" parent="At6EdBGd9hR8QfE1C5nS-380" vertex="1">
          <mxGeometry y="90" width="180" height="30" as="geometry" />
        </mxCell>
        <mxCell id="At6EdBGd9hR8QfE1C5nS-388" value="" style="shape=partialRectangle;connectable=0;fillColor=none;top=0;left=0;bottom=0;right=0;editable=0;overflow=hidden;whiteSpace=wrap;html=1;movable=0;resizable=0;rotatable=0;deletable=0;locked=1;" parent="At6EdBGd9hR8QfE1C5nS-387" vertex="1">
          <mxGeometry width="30" height="30" as="geometry">
            <mxRectangle width="30" height="30" as="alternateBounds" />
          </mxGeometry>
        </mxCell>
        <mxCell id="At6EdBGd9hR8QfE1C5nS-389" value="itemname" style="shape=partialRectangle;connectable=0;fillColor=none;top=0;left=0;bottom=0;right=0;align=left;spacingLeft=6;overflow=hidden;whiteSpace=wrap;html=1;movable=0;resizable=0;rotatable=0;deletable=0;editable=0;locked=1;" parent="At6EdBGd9hR8QfE1C5nS-387" vertex="1">
          <mxGeometry x="30" width="150" height="30" as="geometry">
            <mxRectangle width="150" height="30" as="alternateBounds" />
          </mxGeometry>
        </mxCell>
        <mxCell id="MEfVUGlpha1yjeblBSF6-41" value="" style="shape=tableRow;horizontal=0;startSize=0;swimlaneHead=0;swimlaneBody=0;fillColor=none;collapsible=0;dropTarget=0;points=[[0,0.5],[1,0.5]];portConstraint=eastwest;top=0;left=0;right=0;bottom=0;movable=0;resizable=0;rotatable=0;deletable=0;editable=0;locked=1;connectable=0;" parent="At6EdBGd9hR8QfE1C5nS-380" vertex="1">
          <mxGeometry y="120" width="180" height="30" as="geometry" />
        </mxCell>
        <mxCell id="MEfVUGlpha1yjeblBSF6-42" value="" style="shape=partialRectangle;connectable=0;fillColor=none;top=0;left=0;bottom=0;right=0;editable=0;overflow=hidden;whiteSpace=wrap;html=1;movable=0;resizable=0;rotatable=0;deletable=0;locked=1;" parent="MEfVUGlpha1yjeblBSF6-41" vertex="1">
          <mxGeometry width="30" height="30" as="geometry">
            <mxRectangle width="30" height="30" as="alternateBounds" />
          </mxGeometry>
        </mxCell>
        <mxCell id="MEfVUGlpha1yjeblBSF6-43" value="itemcount" style="shape=partialRectangle;connectable=0;fillColor=none;top=0;left=0;bottom=0;right=0;align=left;spacingLeft=6;overflow=hidden;whiteSpace=wrap;html=1;movable=0;resizable=0;rotatable=0;deletable=0;editable=0;locked=1;" parent="MEfVUGlpha1yjeblBSF6-41" vertex="1">
          <mxGeometry x="30" width="150" height="30" as="geometry">
            <mxRectangle width="150" height="30" as="alternateBounds" />
          </mxGeometry>
        </mxCell>
        <mxCell id="At6EdBGd9hR8QfE1C5nS-390" value="" style="shape=tableRow;horizontal=0;startSize=0;swimlaneHead=0;swimlaneBody=0;fillColor=none;collapsible=0;dropTarget=0;points=[[0,0.5],[1,0.5]];portConstraint=eastwest;top=0;left=0;right=0;bottom=0;movable=0;resizable=0;rotatable=0;deletable=0;editable=0;locked=1;connectable=0;" parent="At6EdBGd9hR8QfE1C5nS-380" vertex="1">
          <mxGeometry y="150" width="180" height="30" as="geometry" />
        </mxCell>
        <mxCell id="At6EdBGd9hR8QfE1C5nS-391" value="" style="shape=partialRectangle;connectable=0;fillColor=none;top=0;left=0;bottom=0;right=0;editable=0;overflow=hidden;whiteSpace=wrap;html=1;movable=0;resizable=0;rotatable=0;deletable=0;locked=1;" parent="At6EdBGd9hR8QfE1C5nS-390" vertex="1">
          <mxGeometry width="30" height="30" as="geometry">
            <mxRectangle width="30" height="30" as="alternateBounds" />
          </mxGeometry>
        </mxCell>
        <mxCell id="At6EdBGd9hR8QfE1C5nS-392" value="itemprice" style="shape=partialRectangle;connectable=0;fillColor=none;top=0;left=0;bottom=0;right=0;align=left;spacingLeft=6;overflow=hidden;whiteSpace=wrap;html=1;movable=0;resizable=0;rotatable=0;deletable=0;editable=0;locked=1;" parent="At6EdBGd9hR8QfE1C5nS-390" vertex="1">
          <mxGeometry x="30" width="150" height="30" as="geometry">
            <mxRectangle width="150" height="30" as="alternateBounds" />
          </mxGeometry>
        </mxCell>
        <mxCell id="At6EdBGd9hR8QfE1C5nS-393" value="" style="shape=tableRow;horizontal=0;startSize=0;swimlaneHead=0;swimlaneBody=0;fillColor=none;collapsible=0;dropTarget=0;points=[[0,0.5],[1,0.5]];portConstraint=eastwest;top=0;left=0;right=0;bottom=0;movable=0;resizable=0;rotatable=0;deletable=0;editable=0;locked=1;connectable=0;" parent="At6EdBGd9hR8QfE1C5nS-380" vertex="1">
          <mxGeometry y="180" width="180" height="30" as="geometry" />
        </mxCell>
        <mxCell id="At6EdBGd9hR8QfE1C5nS-394" value="" style="shape=partialRectangle;connectable=0;fillColor=none;top=0;left=0;bottom=0;right=0;editable=0;overflow=hidden;whiteSpace=wrap;html=1;movable=0;resizable=0;rotatable=0;deletable=0;locked=1;" parent="At6EdBGd9hR8QfE1C5nS-393" vertex="1">
          <mxGeometry width="30" height="30" as="geometry">
            <mxRectangle width="30" height="30" as="alternateBounds" />
          </mxGeometry>
        </mxCell>
        <mxCell id="At6EdBGd9hR8QfE1C5nS-395" value="ordereddate" style="shape=partialRectangle;connectable=0;fillColor=none;top=0;left=0;bottom=0;right=0;align=left;spacingLeft=6;overflow=hidden;whiteSpace=wrap;html=1;movable=0;resizable=0;rotatable=0;deletable=0;editable=0;locked=1;" parent="At6EdBGd9hR8QfE1C5nS-393" vertex="1">
          <mxGeometry x="30" width="150" height="30" as="geometry">
            <mxRectangle width="150" height="30" as="alternateBounds" />
          </mxGeometry>
        </mxCell>
        <mxCell id="MEfVUGlpha1yjeblBSF6-1" value="" style="shape=tableRow;horizontal=0;startSize=0;swimlaneHead=0;swimlaneBody=0;fillColor=none;collapsible=0;dropTarget=0;points=[[0,0.5],[1,0.5]];portConstraint=eastwest;top=0;left=0;right=0;bottom=0;movable=0;resizable=0;rotatable=0;deletable=0;editable=0;locked=1;connectable=0;" parent="At6EdBGd9hR8QfE1C5nS-380" vertex="1">
          <mxGeometry y="210" width="180" height="30" as="geometry" />
        </mxCell>
        <mxCell id="MEfVUGlpha1yjeblBSF6-2" value="" style="shape=partialRectangle;connectable=0;fillColor=none;top=0;left=0;bottom=0;right=0;editable=0;overflow=hidden;whiteSpace=wrap;html=1;movable=0;resizable=0;rotatable=0;deletable=0;locked=1;" parent="MEfVUGlpha1yjeblBSF6-1" vertex="1">
          <mxGeometry width="30" height="30" as="geometry">
            <mxRectangle width="30" height="30" as="alternateBounds" />
          </mxGeometry>
        </mxCell>
        <mxCell id="MEfVUGlpha1yjeblBSF6-3" value="refunddate" style="shape=partialRectangle;connectable=0;fillColor=none;top=0;left=0;bottom=0;right=0;align=left;spacingLeft=6;overflow=hidden;whiteSpace=wrap;html=1;movable=0;resizable=0;rotatable=0;deletable=0;editable=0;locked=1;" parent="MEfVUGlpha1yjeblBSF6-1" vertex="1">
          <mxGeometry x="30" width="150" height="30" as="geometry">
            <mxRectangle width="150" height="30" as="alternateBounds" />
          </mxGeometry>
        </mxCell>
        <mxCell id="At6EdBGd9hR8QfE1C5nS-402" style="edgeStyle=orthogonalEdgeStyle;shape=connector;rounded=0;orthogonalLoop=1;jettySize=auto;html=1;entryX=1;entryY=0.5;entryDx=0;entryDy=0;strokeColor=default;align=center;verticalAlign=middle;fontFamily=Helvetica;fontSize=11;fontColor=default;labelBackgroundColor=default;startArrow=ERmany;startFill=0;endArrow=ERone;endFill=0;movable=0;resizable=0;rotatable=0;deletable=0;editable=0;locked=1;connectable=0;" parent="1" source="At6EdBGd9hR8QfE1C5nS-384" target="At6EdBGd9hR8QfE1C5nS-363" edge="1">
          <mxGeometry relative="1" as="geometry" />
        </mxCell>
        <mxCell id="At6EdBGd9hR8QfE1C5nS-403" value="환불된 것들" style="edgeLabel;html=1;align=center;verticalAlign=middle;resizable=0;points=[];fontFamily=Helvetica;fontSize=11;fontColor=default;labelBackgroundColor=default;movable=0;rotatable=0;deletable=0;editable=0;locked=1;connectable=0;" parent="At6EdBGd9hR8QfE1C5nS-402" connectable="0" vertex="1">
          <mxGeometry x="0.0175" y="3" relative="1" as="geometry">
            <mxPoint as="offset" />
          </mxGeometry>
        </mxCell>
        <mxCell id="At6EdBGd9hR8QfE1C5nS-426" style="edgeStyle=orthogonalEdgeStyle;shape=connector;rounded=0;orthogonalLoop=1;jettySize=auto;html=1;strokeColor=default;align=center;verticalAlign=middle;fontFamily=Helvetica;fontSize=11;fontColor=default;labelBackgroundColor=default;startArrow=ERmany;startFill=0;endArrow=ERone;endFill=0;entryX=0;entryY=0.667;entryDx=0;entryDy=0;entryPerimeter=0;movable=0;resizable=0;rotatable=0;deletable=0;editable=0;locked=1;connectable=0;" parent="1" source="At6EdBGd9hR8QfE1C5nS-423" target="At6EdBGd9hR8QfE1C5nS-243" edge="1">
          <mxGeometry relative="1" as="geometry">
            <mxPoint x="3360" y="3420" as="targetPoint" />
            <Array as="points">
              <mxPoint x="3380" y="3277" />
              <mxPoint x="3380" y="3400" />
              <mxPoint x="3140" y="3400" />
              <mxPoint x="3140" y="3490" />
            </Array>
          </mxGeometry>
        </mxCell>
        <mxCell id="At6EdBGd9hR8QfE1C5nS-427" value="아이템 번호로 연결" style="edgeLabel;html=1;align=center;verticalAlign=middle;resizable=0;points=[];fontFamily=Helvetica;fontSize=11;fontColor=default;labelBackgroundColor=default;movable=0;rotatable=0;deletable=0;editable=0;locked=1;connectable=0;" parent="At6EdBGd9hR8QfE1C5nS-426" connectable="0" vertex="1">
          <mxGeometry x="-0.0049" y="1" relative="1" as="geometry">
            <mxPoint as="offset" />
          </mxGeometry>
        </mxCell>
        <mxCell id="MEfVUGlpha1yjeblBSF6-44" style="edgeStyle=orthogonalEdgeStyle;rounded=0;orthogonalLoop=1;jettySize=auto;html=1;entryX=1;entryY=0.5;entryDx=0;entryDy=0;exitX=0;exitY=0.5;exitDx=0;exitDy=0;movable=0;resizable=0;rotatable=0;deletable=0;editable=0;locked=1;connectable=0;" parent="1" source="MEfVUGlpha1yjeblBSF6-38" target="At6EdBGd9hR8QfE1C5nS-252" edge="1">
          <mxGeometry relative="1" as="geometry">
            <mxPoint x="3660" y="3830" as="targetPoint" />
            <Array as="points">
              <mxPoint x="3660" y="3575" />
              <mxPoint x="3660" y="3660" />
              <mxPoint x="3380" y="3660" />
              <mxPoint x="3380" y="3575" />
            </Array>
          </mxGeometry>
        </mxCell>
        <mxCell id="MEfVUGlpha1yjeblBSF6-45" value="(로직) 재고 - 1&amp;nbsp;" style="edgeLabel;html=1;align=center;verticalAlign=middle;resizable=0;points=[];movable=0;rotatable=0;deletable=0;editable=0;locked=1;connectable=0;" parent="MEfVUGlpha1yjeblBSF6-44" connectable="0" vertex="1">
          <mxGeometry x="0.1" relative="1" as="geometry">
            <mxPoint as="offset" />
          </mxGeometry>
        </mxCell>
        <mxCell id="MEfVUGlpha1yjeblBSF6-46" style="edgeStyle=orthogonalEdgeStyle;rounded=0;orthogonalLoop=1;jettySize=auto;html=1;entryX=0;entryY=0.5;entryDx=0;entryDy=0;movable=0;resizable=0;rotatable=0;deletable=0;editable=0;locked=1;connectable=0;" parent="1" source="MEfVUGlpha1yjeblBSF6-41" target="At6EdBGd9hR8QfE1C5nS-252" edge="1">
          <mxGeometry relative="1" as="geometry">
            <mxPoint x="3120" y="3720" as="targetPoint" />
            <Array as="points">
              <mxPoint x="3940" y="3575" />
              <mxPoint x="3940" y="3720" />
              <mxPoint x="3100" y="3720" />
              <mxPoint x="3100" y="3575" />
            </Array>
          </mxGeometry>
        </mxCell>
        <mxCell id="MEfVUGlpha1yjeblBSF6-47" value="(로직) 재고 + 1&amp;nbsp;" style="edgeLabel;html=1;align=center;verticalAlign=middle;resizable=0;points=[];movable=0;rotatable=0;deletable=0;editable=0;locked=1;connectable=0;" parent="MEfVUGlpha1yjeblBSF6-46" connectable="0" vertex="1">
          <mxGeometry x="-0.0022" y="1" relative="1" as="geometry">
            <mxPoint as="offset" />
          </mxGeometry>
        </mxCell>
        <mxCell id="MEfVUGlpha1yjeblBSF6-91" value="" style="shape=table;startSize=30;container=1;collapsible=1;childLayout=tableLayout;fixedRows=1;rowLines=0;fontStyle=1;align=center;resizeLast=1;html=1;movable=0;resizable=0;rotatable=0;deletable=0;editable=0;locked=1;connectable=0;" parent="1" vertex="1">
          <mxGeometry x="3120" y="3760" width="190" height="120" as="geometry" />
        </mxCell>
        <mxCell id="MEfVUGlpha1yjeblBSF6-92" value="" style="shape=tableRow;horizontal=0;startSize=0;swimlaneHead=0;swimlaneBody=0;fillColor=none;collapsible=0;dropTarget=0;points=[[0,0.5],[1,0.5]];portConstraint=eastwest;top=0;left=0;right=0;bottom=1;movable=0;resizable=0;rotatable=0;deletable=0;editable=0;locked=1;connectable=0;" parent="MEfVUGlpha1yjeblBSF6-91" vertex="1">
          <mxGeometry y="30" width="190" height="30" as="geometry" />
        </mxCell>
        <mxCell id="MEfVUGlpha1yjeblBSF6-93" value="PK/FK" style="shape=partialRectangle;connectable=0;fillColor=none;top=0;left=0;bottom=0;right=0;fontStyle=1;overflow=hidden;whiteSpace=wrap;html=1;movable=0;resizable=0;rotatable=0;deletable=0;editable=0;locked=1;" parent="MEfVUGlpha1yjeblBSF6-92" vertex="1">
          <mxGeometry width="40" height="30" as="geometry">
            <mxRectangle width="40" height="30" as="alternateBounds" />
          </mxGeometry>
        </mxCell>
        <mxCell id="MEfVUGlpha1yjeblBSF6-94" value="" style="shape=partialRectangle;connectable=0;fillColor=none;top=0;left=0;bottom=0;right=0;align=left;spacingLeft=6;fontStyle=1;overflow=hidden;whiteSpace=wrap;html=1;movable=0;resizable=0;rotatable=0;deletable=0;editable=0;locked=1;" parent="MEfVUGlpha1yjeblBSF6-92" vertex="1">
          <mxGeometry x="40" width="150" height="30" as="geometry">
            <mxRectangle width="150" height="30" as="alternateBounds" />
          </mxGeometry>
        </mxCell>
        <mxCell id="MEfVUGlpha1yjeblBSF6-95" value="" style="shape=tableRow;horizontal=0;startSize=0;swimlaneHead=0;swimlaneBody=0;fillColor=none;collapsible=0;dropTarget=0;points=[[0,0.5],[1,0.5]];portConstraint=eastwest;top=0;left=0;right=0;bottom=0;movable=0;resizable=0;rotatable=0;deletable=0;editable=0;locked=1;connectable=0;" parent="MEfVUGlpha1yjeblBSF6-91" vertex="1">
          <mxGeometry y="60" width="190" height="30" as="geometry" />
        </mxCell>
        <mxCell id="MEfVUGlpha1yjeblBSF6-96" value="" style="shape=partialRectangle;connectable=0;fillColor=none;top=0;left=0;bottom=0;right=0;editable=0;overflow=hidden;whiteSpace=wrap;html=1;movable=0;resizable=0;rotatable=0;deletable=0;locked=1;" parent="MEfVUGlpha1yjeblBSF6-95" vertex="1">
          <mxGeometry width="40" height="30" as="geometry">
            <mxRectangle width="40" height="30" as="alternateBounds" />
          </mxGeometry>
        </mxCell>
        <mxCell id="MEfVUGlpha1yjeblBSF6-97" value="" style="shape=partialRectangle;connectable=0;fillColor=none;top=0;left=0;bottom=0;right=0;align=left;spacingLeft=6;overflow=hidden;whiteSpace=wrap;html=1;movable=0;resizable=0;rotatable=0;deletable=0;editable=0;locked=1;" parent="MEfVUGlpha1yjeblBSF6-95" vertex="1">
          <mxGeometry x="40" width="150" height="30" as="geometry">
            <mxRectangle width="150" height="30" as="alternateBounds" />
          </mxGeometry>
        </mxCell>
        <mxCell id="MEfVUGlpha1yjeblBSF6-98" value="" style="shape=tableRow;horizontal=0;startSize=0;swimlaneHead=0;swimlaneBody=0;fillColor=none;collapsible=0;dropTarget=0;points=[[0,0.5],[1,0.5]];portConstraint=eastwest;top=0;left=0;right=0;bottom=0;movable=0;resizable=0;rotatable=0;deletable=0;editable=0;locked=1;connectable=0;" parent="MEfVUGlpha1yjeblBSF6-91" vertex="1">
          <mxGeometry y="90" width="190" height="30" as="geometry" />
        </mxCell>
        <mxCell id="MEfVUGlpha1yjeblBSF6-99" value="" style="shape=partialRectangle;connectable=0;fillColor=none;top=0;left=0;bottom=0;right=0;editable=0;overflow=hidden;whiteSpace=wrap;html=1;movable=0;resizable=0;rotatable=0;deletable=0;locked=1;" parent="MEfVUGlpha1yjeblBSF6-98" vertex="1">
          <mxGeometry width="40" height="30" as="geometry">
            <mxRectangle width="40" height="30" as="alternateBounds" />
          </mxGeometry>
        </mxCell>
        <mxCell id="MEfVUGlpha1yjeblBSF6-100" value="" style="shape=partialRectangle;connectable=0;fillColor=none;top=0;left=0;bottom=0;right=0;align=left;spacingLeft=6;overflow=hidden;whiteSpace=wrap;html=1;movable=0;resizable=0;rotatable=0;deletable=0;editable=0;locked=1;" parent="MEfVUGlpha1yjeblBSF6-98" vertex="1">
          <mxGeometry x="40" width="150" height="30" as="geometry">
            <mxRectangle width="150" height="30" as="alternateBounds" />
          </mxGeometry>
        </mxCell>
        <mxCell id="MEfVUGlpha1yjeblBSF6-129" value="&lt;font style=&quot;font-size: 30px;&quot;&gt;DB&lt;/font&gt;" style="ellipse;whiteSpace=wrap;html=1;fontFamily=Helvetica;fontSize=11;labelBackgroundColor=default;fillColor=#e1d5e7;strokeColor=#9673a6;movable=1;resizable=1;rotatable=1;deletable=1;editable=1;locked=0;connectable=1;" parent="1" vertex="1">
          <mxGeometry x="3735" y="3210" width="150" height="150" as="geometry" />
        </mxCell>
        <mxCell id="8R7Ud1Q_m8-Yb0eB26Qq-19" value="메인 / 시작&amp;nbsp;&lt;div&gt;페이지 박스&lt;/div&gt;" style="rounded=0;whiteSpace=wrap;html=1;fontSize=22;fontStyle=0" parent="1" vertex="1">
          <mxGeometry x="2870" y="2880" width="120" height="60" as="geometry" />
        </mxCell>
        <mxCell id="8R7Ud1Q_m8-Yb0eB26Qq-27" value="상호작용&amp;nbsp;&lt;div&gt;페이지 박스&lt;/div&gt;" style="rounded=1;whiteSpace=wrap;html=1;strokeColor=default;align=center;verticalAlign=middle;fontFamily=Helvetica;fontSize=22;fontColor=default;fontStyle=0;fillColor=default;" parent="1" vertex="1">
          <mxGeometry x="2870" y="2980" width="120" height="60" as="geometry" />
        </mxCell>
        <mxCell id="8R7Ud1Q_m8-Yb0eB26Qq-29" value="기본 DB 연결 선" style="text;strokeColor=none;fillColor=none;html=1;fontSize=22;fontStyle=1;verticalAlign=middle;align=center;fontFamily=Helvetica;fontColor=default;" parent="1" vertex="1">
          <mxGeometry x="2880" y="2740" width="100" height="40" as="geometry" />
        </mxCell>
        <mxCell id="8R7Ud1Q_m8-Yb0eB26Qq-30" value="" style="endArrow=classic;startArrow=classic;html=1;rounded=0;strokeColor=default;align=center;verticalAlign=middle;fontFamily=Helvetica;fontSize=22;fontColor=default;fontStyle=1;labelBackgroundColor=default;edgeStyle=orthogonalEdgeStyle;" parent="1" edge="1">
          <mxGeometry width="50" height="50" relative="1" as="geometry">
            <mxPoint x="2710" y="2960" as="sourcePoint" />
            <mxPoint x="2760" y="2910" as="targetPoint" />
          </mxGeometry>
        </mxCell>
        <mxCell id="8R7Ud1Q_m8-Yb0eB26Qq-31" value="" style="endArrow=classic;html=1;rounded=0;strokeColor=default;align=center;verticalAlign=middle;fontFamily=Helvetica;fontSize=22;fontColor=default;fontStyle=1;labelBackgroundColor=default;edgeStyle=orthogonalEdgeStyle;" parent="1" edge="1">
          <mxGeometry width="50" height="50" relative="1" as="geometry">
            <mxPoint x="2580" y="2960" as="sourcePoint" />
            <mxPoint x="2630" y="2910" as="targetPoint" />
          </mxGeometry>
        </mxCell>
        <mxCell id="8R7Ud1Q_m8-Yb0eB26Qq-32" value="기본 이동" style="text;strokeColor=none;fillColor=none;html=1;fontSize=22;fontStyle=1;verticalAlign=middle;align=center;fontFamily=Helvetica;fontColor=default;" parent="1" vertex="1">
          <mxGeometry x="2580" y="2860" width="100" height="40" as="geometry" />
        </mxCell>
        <mxCell id="8R7Ud1Q_m8-Yb0eB26Qq-33" value="양방향 이동" style="text;strokeColor=none;fillColor=none;html=1;fontSize=22;fontStyle=1;verticalAlign=middle;align=center;fontFamily=Helvetica;fontColor=default;" parent="1" vertex="1">
          <mxGeometry x="2710" y="2860" width="100" height="40" as="geometry" />
        </mxCell>
        <mxCell id="8R7Ud1Q_m8-Yb0eB26Qq-34" value="PK" style="text;strokeColor=#b85450;fillColor=#f8cecc;html=1;fontSize=22;fontStyle=1;verticalAlign=middle;align=center;fontFamily=Helvetica;" parent="1" vertex="1">
          <mxGeometry x="2740" y="2780" width="100" height="40" as="geometry" />
        </mxCell>
        <mxCell id="8R7Ud1Q_m8-Yb0eB26Qq-35" value="FK" style="text;strokeColor=#d79b00;fillColor=#ffe6cc;html=1;fontSize=22;fontStyle=1;verticalAlign=middle;align=center;fontFamily=Helvetica;" parent="1" vertex="1">
          <mxGeometry x="3020" y="2780" width="100" height="40" as="geometry" />
        </mxCell>
        <mxCell id="vPy_nyRhq1alHM-Djr_y-190" style="edgeStyle=orthogonalEdgeStyle;rounded=0;orthogonalLoop=1;jettySize=auto;html=1;strokeWidth=3;exitX=0.5;exitY=1;exitDx=0;exitDy=0;entryX=0;entryY=0.5;entryDx=0;entryDy=0;" parent="1" source="vPy_nyRhq1alHM-Djr_y-248" target="vPy_nyRhq1alHM-Djr_y-180" edge="1">
          <mxGeometry relative="1" as="geometry">
            <mxPoint x="7360" y="5250" as="sourcePoint" />
            <mxPoint x="7210" y="5550" as="targetPoint" />
            <Array as="points">
              <mxPoint x="7160" y="5630" />
            </Array>
          </mxGeometry>
        </mxCell>
        <mxCell id="vPy_nyRhq1alHM-Djr_y-192" style="edgeStyle=orthogonalEdgeStyle;rounded=0;orthogonalLoop=1;jettySize=auto;html=1;exitX=0.5;exitY=1;exitDx=0;exitDy=0;entryX=0.5;entryY=0;entryDx=0;entryDy=0;strokeWidth=3;" parent="1" source="vPy_nyRhq1alHM-Djr_y-155" target="vPy_nyRhq1alHM-Djr_y-151" edge="1">
          <mxGeometry relative="1" as="geometry">
            <Array as="points">
              <mxPoint x="7357" y="5200" />
              <mxPoint x="7357" y="5200" />
            </Array>
          </mxGeometry>
        </mxCell>
        <mxCell id="vPy_nyRhq1alHM-Djr_y-155" value="&lt;b style=&quot;&quot;&gt;&lt;font style=&quot;font-size: 31px;&quot;&gt;메인 페이지&lt;/font&gt;&lt;/b&gt;&lt;div&gt;&lt;span style=&quot;font-size: 31px;&quot;&gt;&lt;b&gt;(로그인 후)&lt;/b&gt;&lt;/span&gt;&lt;/div&gt;" style="rounded=0;whiteSpace=wrap;html=1;strokeWidth=4;fillColor=#e1d5e7;container=0;" parent="1" vertex="1">
          <mxGeometry x="7262.41" y="5020" width="190" height="109.6" as="geometry" />
        </mxCell>
        <mxCell id="vPy_nyRhq1alHM-Djr_y-201" style="edgeStyle=orthogonalEdgeStyle;rounded=0;orthogonalLoop=1;jettySize=auto;html=1;exitX=0.5;exitY=1;exitDx=0;exitDy=0;entryX=0.5;entryY=0;entryDx=0;entryDy=0;" parent="1" source="vPy_nyRhq1alHM-Djr_y-2" target="vPy_nyRhq1alHM-Djr_y-16" edge="1">
          <mxGeometry relative="1" as="geometry" />
        </mxCell>
        <mxCell id="vPy_nyRhq1alHM-Djr_y-2" value="&lt;b style=&quot;font-size: 21px;&quot;&gt;배송지&lt;/b&gt;" style="rounded=1;whiteSpace=wrap;html=1;strokeWidth=2;container=0;fontSize=21;" parent="1" vertex="1">
          <mxGeometry x="6487.539856115108" y="6423.64474358558" width="168.34532374100718" height="71.94230614476075" as="geometry" />
        </mxCell>
        <mxCell id="vPy_nyRhq1alHM-Djr_y-215" style="edgeStyle=orthogonalEdgeStyle;rounded=0;orthogonalLoop=1;jettySize=auto;html=1;exitX=0.5;exitY=1;exitDx=0;exitDy=0;entryX=0.5;entryY=0;entryDx=0;entryDy=0;" parent="1" source="vPy_nyRhq1alHM-Djr_y-4" target="vPy_nyRhq1alHM-Djr_y-72" edge="1">
          <mxGeometry relative="1" as="geometry" />
        </mxCell>
        <mxCell id="vPy_nyRhq1alHM-Djr_y-4" value="&lt;b style=&quot;font-size: 21px;&quot;&gt;주문 상품 확인&lt;/b&gt;" style="rounded=1;whiteSpace=wrap;html=1;strokeWidth=2;container=0;fontSize=21;" parent="1" vertex="1">
          <mxGeometry x="7073.331223021582" y="6423.64474358558" width="168.34532374100718" height="71.94230614476075" as="geometry" />
        </mxCell>
        <mxCell id="vPy_nyRhq1alHM-Djr_y-227" style="edgeStyle=orthogonalEdgeStyle;rounded=0;orthogonalLoop=1;jettySize=auto;html=1;exitX=0.5;exitY=1;exitDx=0;exitDy=0;entryX=0.5;entryY=0;entryDx=0;entryDy=0;" parent="1" source="vPy_nyRhq1alHM-Djr_y-5" target="vPy_nyRhq1alHM-Djr_y-226" edge="1">
          <mxGeometry relative="1" as="geometry" />
        </mxCell>
        <mxCell id="vPy_nyRhq1alHM-Djr_y-5" value="&lt;b style=&quot;font-size: 21px;&quot;&gt;결제 수단&lt;/b&gt;" style="rounded=1;whiteSpace=wrap;html=1;strokeWidth=2;container=0;fontSize=21;" parent="1" vertex="1">
          <mxGeometry x="8129.996978417267" y="6423.64474358558" width="168.34532374100718" height="71.94230614476075" as="geometry" />
        </mxCell>
        <mxCell id="vPy_nyRhq1alHM-Djr_y-51" style="edgeStyle=orthogonalEdgeStyle;rounded=0;orthogonalLoop=1;jettySize=auto;html=1;exitX=0.5;exitY=1;exitDx=0;exitDy=0;fontSize=21;entryX=0.5;entryY=0;entryDx=0;entryDy=0;" parent="1" source="vPy_nyRhq1alHM-Djr_y-6" target="vPy_nyRhq1alHM-Djr_y-52" edge="1">
          <mxGeometry relative="1" as="geometry">
            <mxPoint x="7553.816834532374" y="6555.538971517642" as="targetPoint" />
          </mxGeometry>
        </mxCell>
        <mxCell id="vPy_nyRhq1alHM-Djr_y-6" value="&lt;b style=&quot;font-size: 21px;&quot;&gt;보유 적립금 사용&lt;/b&gt;" style="rounded=1;whiteSpace=wrap;html=1;strokeWidth=2;container=0;fontSize=21;" parent="1" vertex="1">
          <mxGeometry x="7510.004172661869" y="6423.64474358558" width="168.34532374100718" height="71.94230614476075" as="geometry" />
        </mxCell>
        <mxCell id="vPy_nyRhq1alHM-Djr_y-61" style="edgeStyle=orthogonalEdgeStyle;rounded=0;orthogonalLoop=1;jettySize=auto;html=1;exitX=0.5;exitY=1;exitDx=0;exitDy=0;entryX=0.5;entryY=0;entryDx=0;entryDy=0;endSize=6;strokeWidth=3;" parent="1" source="vPy_nyRhq1alHM-Djr_y-1" target="vPy_nyRhq1alHM-Djr_y-2" edge="1">
          <mxGeometry relative="1" as="geometry">
            <mxPoint x="7553.816834532374" y="6279.760131296058" as="sourcePoint" />
          </mxGeometry>
        </mxCell>
        <mxCell id="vPy_nyRhq1alHM-Djr_y-1" value="&lt;font style=&quot;font-size: 21px;&quot;&gt;&lt;b style=&quot;font-size: 21px;&quot;&gt;주문 페이지&lt;/b&gt;&lt;/font&gt;" style="rounded=0;whiteSpace=wrap;html=1;strokeWidth=4;fillColor=#e1d5e7;container=0;fontSize=21;" parent="1" vertex="1">
          <mxGeometry x="7273.241294964028" y="6147.865903363996" width="168.34532374100718" height="71.94230614476075" as="geometry" />
        </mxCell>
        <mxCell id="vPy_nyRhq1alHM-Djr_y-202" style="edgeStyle=orthogonalEdgeStyle;rounded=0;orthogonalLoop=1;jettySize=auto;html=1;exitX=0.5;exitY=1;exitDx=0;exitDy=0;entryX=0.5;entryY=0;entryDx=0;entryDy=0;" parent="1" source="vPy_nyRhq1alHM-Djr_y-16" target="vPy_nyRhq1alHM-Djr_y-39" edge="1">
          <mxGeometry relative="1" as="geometry" />
        </mxCell>
        <mxCell id="vPy_nyRhq1alHM-Djr_y-210" style="edgeStyle=orthogonalEdgeStyle;rounded=0;orthogonalLoop=1;jettySize=auto;html=1;exitX=0;exitY=0.5;exitDx=0;exitDy=0;entryX=0;entryY=0.5;entryDx=0;entryDy=0;" parent="1" source="vPy_nyRhq1alHM-Djr_y-16" target="vPy_nyRhq1alHM-Djr_y-31" edge="1">
          <mxGeometry relative="1" as="geometry">
            <Array as="points">
              <mxPoint x="6260" y="6660" />
              <mxPoint x="6260" y="7748" />
            </Array>
          </mxGeometry>
        </mxCell>
        <mxCell id="vPy_nyRhq1alHM-Djr_y-16" value="&lt;b style=&quot;font-size: 21px;&quot;&gt;배송지&lt;/b&gt;&lt;div style=&quot;font-size: 21px;&quot;&gt;&lt;b style=&quot;font-size: 21px;&quot;&gt;변경 여부&lt;/b&gt;&lt;/div&gt;" style="rhombus;whiteSpace=wrap;html=1;container=0;fontSize=21;" parent="1" vertex="1">
          <mxGeometry x="6451.712661870503" y="6589.998971517642" width="240" height="140" as="geometry" />
        </mxCell>
        <mxCell id="vPy_nyRhq1alHM-Djr_y-204" style="edgeStyle=orthogonalEdgeStyle;rounded=0;orthogonalLoop=1;jettySize=auto;html=1;exitX=0.5;exitY=1;exitDx=0;exitDy=0;entryX=0.5;entryY=0;entryDx=0;entryDy=0;" parent="1" source="vPy_nyRhq1alHM-Djr_y-28" target="vPy_nyRhq1alHM-Djr_y-41" edge="1">
          <mxGeometry relative="1" as="geometry" />
        </mxCell>
        <mxCell id="vPy_nyRhq1alHM-Djr_y-211" style="edgeStyle=orthogonalEdgeStyle;rounded=0;orthogonalLoop=1;jettySize=auto;html=1;exitX=0;exitY=0.5;exitDx=0;exitDy=0;entryX=0;entryY=0.5;entryDx=0;entryDy=0;" parent="1" source="vPy_nyRhq1alHM-Djr_y-28" target="vPy_nyRhq1alHM-Djr_y-199" edge="1">
          <mxGeometry relative="1" as="geometry">
            <Array as="points">
              <mxPoint x="6360" y="7070" />
              <mxPoint x="6360" y="7539" />
            </Array>
          </mxGeometry>
        </mxCell>
        <mxCell id="vPy_nyRhq1alHM-Djr_y-28" value="&lt;b style=&quot;font-size: 21px;&quot;&gt;신규 배송지&lt;/b&gt;&lt;div style=&quot;font-size: 21px;&quot;&gt;&lt;b style=&quot;font-size: 21px;&quot;&gt;추가 여부&lt;/b&gt;&lt;/div&gt;" style="rhombus;whiteSpace=wrap;html=1;container=0;fontSize=21;" parent="1" vertex="1">
          <mxGeometry x="6451.712661870503" y="7000.00060000732" width="240" height="140" as="geometry" />
        </mxCell>
        <mxCell id="vPy_nyRhq1alHM-Djr_y-30" value="Yes" style="text;html=1;align=center;verticalAlign=middle;resizable=0;points=[];autosize=1;strokeColor=none;fillColor=none;container=0;fontSize=21;" parent="1" vertex="1">
          <mxGeometry x="6570.002517985611" y="6755.344834645416" width="60" height="40" as="geometry" />
        </mxCell>
        <mxCell id="vPy_nyRhq1alHM-Djr_y-208" style="edgeStyle=orthogonalEdgeStyle;rounded=0;orthogonalLoop=1;jettySize=auto;html=1;entryX=0.5;entryY=0;entryDx=0;entryDy=0;exitX=0.496;exitY=0.911;exitDx=0;exitDy=0;exitPerimeter=0;" parent="1" source="vPy_nyRhq1alHM-Djr_y-31" target="vPy_nyRhq1alHM-Djr_y-200" edge="1">
          <mxGeometry relative="1" as="geometry" />
        </mxCell>
        <mxCell id="vPy_nyRhq1alHM-Djr_y-31" value="&lt;b style=&quot;font-size: 21px;&quot;&gt;배송지 적용 완료&lt;/b&gt;" style="shape=document;whiteSpace=wrap;html=1;boundedLbl=1;container=0;fontSize=21;" parent="1" vertex="1">
          <mxGeometry x="6487.539856115108" y="7699.995205590803" width="168.34532374100718" height="95.923074859681" as="geometry" />
        </mxCell>
        <mxCell id="vPy_nyRhq1alHM-Djr_y-33" value="No" style="text;html=1;align=center;verticalAlign=middle;resizable=0;points=[];autosize=1;strokeColor=none;fillColor=none;container=0;fontSize=21;" parent="1" vertex="1">
          <mxGeometry x="6329.997410071942" y="6618.449355875101" width="50" height="40" as="geometry" />
        </mxCell>
        <mxCell id="vPy_nyRhq1alHM-Djr_y-203" style="edgeStyle=orthogonalEdgeStyle;rounded=0;orthogonalLoop=1;jettySize=auto;html=1;exitX=0.5;exitY=1;exitDx=0;exitDy=0;entryX=0.5;entryY=0;entryDx=0;entryDy=0;" parent="1" source="vPy_nyRhq1alHM-Djr_y-39" target="vPy_nyRhq1alHM-Djr_y-28" edge="1">
          <mxGeometry relative="1" as="geometry" />
        </mxCell>
        <mxCell id="vPy_nyRhq1alHM-Djr_y-39" value="배송지 정보&amp;nbsp;&lt;div&gt;팝업창&lt;/div&gt;" style="rounded=1;whiteSpace=wrap;html=1;strokeWidth=3;container=0;fontSize=21;fillColor=#FFFF99;fontStyle=1" parent="1" vertex="1">
          <mxGeometry x="6487.539856115108" y="6834.3263720752575" width="168.34532374100718" height="71.94230614476075" as="geometry" />
        </mxCell>
        <mxCell id="vPy_nyRhq1alHM-Djr_y-205" style="edgeStyle=orthogonalEdgeStyle;rounded=0;orthogonalLoop=1;jettySize=auto;html=1;exitX=0.5;exitY=1;exitDx=0;exitDy=0;entryX=0.5;entryY=0;entryDx=0;entryDy=0;" parent="1" source="vPy_nyRhq1alHM-Djr_y-41" target="vPy_nyRhq1alHM-Djr_y-199" edge="1">
          <mxGeometry relative="1" as="geometry" />
        </mxCell>
        <mxCell id="vPy_nyRhq1alHM-Djr_y-41" value="신규 배송지 입력" style="shape=parallelogram;perimeter=parallelogramPerimeter;whiteSpace=wrap;html=1;fixedSize=1;container=0;fontSize=21;" parent="1" vertex="1">
          <mxGeometry x="6461.71" y="7260" width="220" height="96.93" as="geometry" />
        </mxCell>
        <mxCell id="vPy_nyRhq1alHM-Djr_y-46" value="No" style="text;html=1;align=center;verticalAlign=middle;resizable=0;points=[];autosize=1;strokeColor=none;fillColor=none;container=0;fontSize=21;" parent="1" vertex="1">
          <mxGeometry x="6389.996258992805" y="7028.128580454144" width="50" height="40" as="geometry" />
        </mxCell>
        <mxCell id="vPy_nyRhq1alHM-Djr_y-40" value="Yes" style="text;html=1;align=center;verticalAlign=middle;resizable=0;points=[];autosize=1;strokeColor=none;fillColor=none;container=0;fontSize=21;" parent="1" vertex="1">
          <mxGeometry x="6570.002517985611" y="7169.997905481476" width="60" height="40" as="geometry" />
        </mxCell>
        <mxCell id="vPy_nyRhq1alHM-Djr_y-223" style="edgeStyle=orthogonalEdgeStyle;rounded=0;orthogonalLoop=1;jettySize=auto;html=1;exitX=0;exitY=0.5;exitDx=0;exitDy=0;entryX=0;entryY=0.5;entryDx=0;entryDy=0;" parent="1" source="vPy_nyRhq1alHM-Djr_y-52" target="vPy_nyRhq1alHM-Djr_y-57" edge="1">
          <mxGeometry relative="1" as="geometry">
            <Array as="points">
              <mxPoint x="7400" y="6638" />
              <mxPoint x="7400" y="7070" />
            </Array>
          </mxGeometry>
        </mxCell>
        <mxCell id="vPy_nyRhq1alHM-Djr_y-224" style="edgeStyle=orthogonalEdgeStyle;rounded=0;orthogonalLoop=1;jettySize=auto;html=1;exitX=0.5;exitY=1;exitDx=0;exitDy=0;entryX=0.5;entryY=0;entryDx=0;entryDy=0;" parent="1" source="vPy_nyRhq1alHM-Djr_y-52" target="vPy_nyRhq1alHM-Djr_y-222" edge="1">
          <mxGeometry relative="1" as="geometry" />
        </mxCell>
        <mxCell id="vPy_nyRhq1alHM-Djr_y-52" value="&lt;b style=&quot;font-size: 21px;&quot;&gt;적립금 5000원&lt;/b&gt;&lt;div style=&quot;font-size: 21px;&quot;&gt;&lt;b style=&quot;font-size: 21px;&quot;&gt;이상 보유 여부&amp;nbsp;&lt;/b&gt;&lt;/div&gt;" style="rhombus;whiteSpace=wrap;html=1;container=0;fontSize=21;" parent="1" vertex="1">
          <mxGeometry x="7474.176978417267" y="6568.446567607007" width="240" height="140" as="geometry" />
        </mxCell>
        <mxCell id="vPy_nyRhq1alHM-Djr_y-53" value="Yes" style="text;html=1;align=center;verticalAlign=middle;resizable=0;points=[];autosize=1;strokeColor=none;fillColor=none;container=0;fontSize=21;" parent="1" vertex="1">
          <mxGeometry x="7599.996834532374" y="6748.292430734783" width="60" height="40" as="geometry" />
        </mxCell>
        <mxCell id="vPy_nyRhq1alHM-Djr_y-145" style="edgeStyle=orthogonalEdgeStyle;rounded=0;orthogonalLoop=1;jettySize=auto;html=1;entryX=0;entryY=0.5;entryDx=0;entryDy=0;exitX=0.502;exitY=0.873;exitDx=0;exitDy=0;exitPerimeter=0;strokeWidth=3;fontSize=21;" parent="1" source="vPy_nyRhq1alHM-Djr_y-57" target="vPy_nyRhq1alHM-Djr_y-5" edge="1">
          <mxGeometry relative="1" as="geometry">
            <Array as="points">
              <mxPoint x="7595" y="7210" />
              <mxPoint x="7840" y="7210" />
              <mxPoint x="7840" y="6460" />
              <mxPoint x="8073" y="6460" />
            </Array>
          </mxGeometry>
        </mxCell>
        <mxCell id="vPy_nyRhq1alHM-Djr_y-57" value="&lt;b style=&quot;font-size: 21px;&quot;&gt;적립금&amp;nbsp;&lt;/b&gt;&lt;div style=&quot;font-size: 21px;&quot;&gt;&lt;b style=&quot;font-size: 21px;&quot;&gt;적용/미적용 완료&lt;/b&gt;&lt;/div&gt;" style="shape=document;whiteSpace=wrap;html=1;boundedLbl=1;container=0;fontSize=21;" parent="1" vertex="1">
          <mxGeometry x="7510.004172661869" y="7022.038196096683" width="168.34532374100718" height="95.923074859681" as="geometry" />
        </mxCell>
        <mxCell id="vPy_nyRhq1alHM-Djr_y-59" value="No" style="text;html=1;align=center;verticalAlign=middle;resizable=0;points=[];autosize=1;strokeColor=none;fillColor=none;container=0;fontSize=21;" parent="1" vertex="1">
          <mxGeometry x="7419.641870503597" y="6601.41791352872" width="50" height="40" as="geometry" />
        </mxCell>
        <mxCell id="vPy_nyRhq1alHM-Djr_y-70" style="edgeStyle=orthogonalEdgeStyle;rounded=0;orthogonalLoop=1;jettySize=auto;html=1;entryX=0;entryY=0.5;entryDx=0;entryDy=0;strokeWidth=3;exitX=0.527;exitY=0.841;exitDx=0;exitDy=0;exitPerimeter=0;fontSize=21;" parent="1" source="vPy_nyRhq1alHM-Djr_y-68" target="vPy_nyRhq1alHM-Djr_y-4" edge="1">
          <mxGeometry relative="1" as="geometry">
            <Array as="points">
              <mxPoint x="6576" y="8270" />
              <mxPoint x="6810" y="8270" />
              <mxPoint x="6810" y="6460" />
            </Array>
          </mxGeometry>
        </mxCell>
        <mxCell id="vPy_nyRhq1alHM-Djr_y-68" value="&lt;b style=&quot;font-size: 21px;&quot;&gt;배송 메세지&lt;/b&gt;&lt;div style=&quot;font-size: 21px;&quot;&gt;&lt;b style=&quot;font-size: 21px;&quot;&gt;적용 완료&lt;/b&gt;&lt;/div&gt;" style="shape=document;whiteSpace=wrap;html=1;boundedLbl=1;container=0;fontSize=21;" parent="1" vertex="1">
          <mxGeometry x="6487.539856115108" y="8120.002410616672" width="168.34532374100718" height="95.923074859681" as="geometry" />
        </mxCell>
        <mxCell id="vPy_nyRhq1alHM-Djr_y-216" style="edgeStyle=orthogonalEdgeStyle;rounded=0;orthogonalLoop=1;jettySize=auto;html=1;exitX=0.5;exitY=1;exitDx=0;exitDy=0;entryX=0.5;entryY=0;entryDx=0;entryDy=0;" parent="1" source="vPy_nyRhq1alHM-Djr_y-72" target="vPy_nyRhq1alHM-Djr_y-73" edge="1">
          <mxGeometry relative="1" as="geometry" />
        </mxCell>
        <mxCell id="vPy_nyRhq1alHM-Djr_y-220" style="edgeStyle=orthogonalEdgeStyle;rounded=0;orthogonalLoop=1;jettySize=auto;html=1;exitX=0;exitY=0.5;exitDx=0;exitDy=0;entryX=0;entryY=0.5;entryDx=0;entryDy=0;" parent="1" source="vPy_nyRhq1alHM-Djr_y-72" target="vPy_nyRhq1alHM-Djr_y-81" edge="1">
          <mxGeometry relative="1" as="geometry">
            <Array as="points">
              <mxPoint x="6910" y="6649" />
              <mxPoint x="6910" y="7538" />
            </Array>
          </mxGeometry>
        </mxCell>
        <mxCell id="vPy_nyRhq1alHM-Djr_y-72" value="&lt;b style=&quot;font-size: 21px;&quot;&gt;쿠폰 사용&lt;/b&gt;&lt;div style=&quot;font-size: 21px;&quot;&gt;&lt;b style=&quot;font-size: 21px;&quot;&gt;여부&lt;/b&gt;&lt;/div&gt;" style="rhombus;whiteSpace=wrap;html=1;container=0;fontSize=21;" parent="1" vertex="1">
          <mxGeometry x="7037.504028776978" y="6578.888971517642" width="240" height="140" as="geometry" />
        </mxCell>
        <mxCell id="vPy_nyRhq1alHM-Djr_y-217" style="edgeStyle=orthogonalEdgeStyle;rounded=0;orthogonalLoop=1;jettySize=auto;html=1;exitX=0.5;exitY=1;exitDx=0;exitDy=0;entryX=0.5;entryY=0;entryDx=0;entryDy=0;" parent="1" source="vPy_nyRhq1alHM-Djr_y-73" target="vPy_nyRhq1alHM-Djr_y-213" edge="1">
          <mxGeometry relative="1" as="geometry" />
        </mxCell>
        <mxCell id="vPy_nyRhq1alHM-Djr_y-73" value="쿠폰 사용&amp;nbsp;&lt;div&gt;팝업창&lt;/div&gt;" style="rounded=1;whiteSpace=wrap;html=1;strokeWidth=3;container=0;fontSize=21;fillColor=#FFFF99;fontStyle=1" parent="1" vertex="1">
          <mxGeometry x="7073.331223021582" y="6834.3263720752575" width="168.34532374100718" height="71.94230614476075" as="geometry" />
        </mxCell>
        <mxCell id="vPy_nyRhq1alHM-Djr_y-74" value="Yes" style="text;html=1;align=center;verticalAlign=middle;resizable=0;points=[];autosize=1;strokeColor=none;fillColor=none;container=0;fontSize=21;" parent="1" vertex="1">
          <mxGeometry x="7160.003884892086" y="6755.344834645416" width="60" height="40" as="geometry" />
        </mxCell>
        <mxCell id="vPy_nyRhq1alHM-Djr_y-80" value="Yes" style="text;html=1;align=center;verticalAlign=middle;resizable=0;points=[];autosize=1;strokeColor=none;fillColor=none;container=0;fontSize=21;" parent="1" vertex="1">
          <mxGeometry x="7160.003884892086" y="7169.996943917221" width="60" height="40" as="geometry" />
        </mxCell>
        <mxCell id="vPy_nyRhq1alHM-Djr_y-89" style="edgeStyle=orthogonalEdgeStyle;rounded=0;orthogonalLoop=1;jettySize=auto;html=1;exitX=0.496;exitY=0.872;exitDx=0;exitDy=0;entryX=0;entryY=0.5;entryDx=0;entryDy=0;strokeWidth=3;exitPerimeter=0;fontSize=21;" parent="1" source="vPy_nyRhq1alHM-Djr_y-81" target="vPy_nyRhq1alHM-Djr_y-6" edge="1">
          <mxGeometry relative="1" as="geometry">
            <Array as="points">
              <mxPoint x="7157" y="7660" />
              <mxPoint x="7356" y="7660" />
              <mxPoint x="7356" y="6460" />
            </Array>
          </mxGeometry>
        </mxCell>
        <mxCell id="vPy_nyRhq1alHM-Djr_y-81" value="&lt;b style=&quot;font-size: 21px;&quot;&gt;쿠폰&amp;nbsp;&lt;/b&gt;&lt;div style=&quot;font-size: 21px;&quot;&gt;&lt;b style=&quot;font-size: 21px;&quot;&gt;적용/미적용 완료&lt;/b&gt;&lt;/div&gt;" style="shape=document;whiteSpace=wrap;html=1;boundedLbl=1;container=0;fontSize=21;" parent="1" vertex="1">
          <mxGeometry x="7073.331223021582" y="7489.997420675726" width="168.34532374100718" height="95.923074859681" as="geometry" />
        </mxCell>
        <mxCell id="vPy_nyRhq1alHM-Djr_y-85" value="No" style="text;html=1;align=center;verticalAlign=middle;resizable=0;points=[];autosize=1;strokeColor=none;fillColor=none;container=0;fontSize=21;" parent="1" vertex="1">
          <mxGeometry x="6980.003309352518" y="7028.128580454143" width="50" height="40" as="geometry" />
        </mxCell>
        <mxCell id="vPy_nyRhq1alHM-Djr_y-86" value="No" style="text;html=1;align=center;verticalAlign=middle;resizable=0;points=[];autosize=1;strokeColor=none;fillColor=none;container=0;fontSize=21;" parent="1" vertex="1">
          <mxGeometry x="6980.003021582733" y="6611.42791352872" width="50" height="40" as="geometry" />
        </mxCell>
        <mxCell id="vPy_nyRhq1alHM-Djr_y-130" style="edgeStyle=orthogonalEdgeStyle;rounded=0;orthogonalLoop=1;jettySize=auto;html=1;exitX=0.5;exitY=1;exitDx=0;exitDy=0;fontSize=21;" parent="1" source="vPy_nyRhq1alHM-Djr_y-226" target="vPy_nyRhq1alHM-Djr_y-100" edge="1">
          <mxGeometry relative="1" as="geometry">
            <mxPoint x="8157.809640287771" y="6901.194450287957" as="sourcePoint" />
            <Array as="points">
              <mxPoint x="8214" y="6910" />
              <mxPoint x="8158" y="6910" />
            </Array>
          </mxGeometry>
        </mxCell>
        <mxCell id="vPy_nyRhq1alHM-Djr_y-131" style="edgeStyle=orthogonalEdgeStyle;rounded=0;orthogonalLoop=1;jettySize=auto;html=1;exitX=0.5;exitY=1;exitDx=0;exitDy=0;entryX=0.5;entryY=0;entryDx=0;entryDy=0;fontSize=21;" parent="1" source="vPy_nyRhq1alHM-Djr_y-226" edge="1">
          <mxGeometry relative="1" as="geometry">
            <mxPoint x="8157.809640287769" y="6899.995411852211" as="sourcePoint" />
            <mxPoint x="7933.349208633093" y="7010.906467158717" as="targetPoint" />
            <Array as="points">
              <mxPoint x="8214" y="6910" />
              <mxPoint x="7933" y="6910" />
            </Array>
          </mxGeometry>
        </mxCell>
        <mxCell id="vPy_nyRhq1alHM-Djr_y-132" style="edgeStyle=orthogonalEdgeStyle;rounded=0;orthogonalLoop=1;jettySize=auto;html=1;exitX=0.5;exitY=1;exitDx=0;exitDy=0;fontSize=21;" parent="1" source="vPy_nyRhq1alHM-Djr_y-226" target="vPy_nyRhq1alHM-Djr_y-101" edge="1">
          <mxGeometry relative="1" as="geometry">
            <mxPoint x="8157.809640287771" y="6901.194450287957" as="sourcePoint" />
            <Array as="points">
              <mxPoint x="8214" y="6910" />
              <mxPoint x="8270" y="6910" />
            </Array>
          </mxGeometry>
        </mxCell>
        <mxCell id="vPy_nyRhq1alHM-Djr_y-133" style="edgeStyle=orthogonalEdgeStyle;rounded=0;orthogonalLoop=1;jettySize=auto;html=1;exitX=0.5;exitY=1;exitDx=0;exitDy=0;entryX=0.5;entryY=0;entryDx=0;entryDy=0;fontSize=21;" parent="1" source="vPy_nyRhq1alHM-Djr_y-226" target="vPy_nyRhq1alHM-Djr_y-99" edge="1">
          <mxGeometry relative="1" as="geometry">
            <mxPoint x="8157.809640287771" y="6901.194450287957" as="sourcePoint" />
            <Array as="points">
              <mxPoint x="8214" y="6910" />
              <mxPoint x="8046" y="6910" />
            </Array>
          </mxGeometry>
        </mxCell>
        <mxCell id="vPy_nyRhq1alHM-Djr_y-147" style="edgeStyle=orthogonalEdgeStyle;rounded=0;orthogonalLoop=1;jettySize=auto;html=1;entryX=0.5;entryY=0;entryDx=0;entryDy=0;strokeWidth=3;fontSize=21;exitX=0.515;exitY=0.809;exitDx=0;exitDy=0;exitPerimeter=0;" parent="1" source="vPy_nyRhq1alHM-Djr_y-95" target="vPy_nyRhq1alHM-Djr_y-146" edge="1">
          <mxGeometry relative="1" as="geometry">
            <Array as="points">
              <mxPoint x="8220" y="7472" />
              <mxPoint x="8220" y="7743" />
              <mxPoint x="7357" y="7743" />
            </Array>
          </mxGeometry>
        </mxCell>
        <mxCell id="vPy_nyRhq1alHM-Djr_y-95" value="&lt;b style=&quot;font-size: 21px;&quot;&gt;결제 수단&lt;/b&gt;&lt;div style=&quot;font-size: 21px;&quot;&gt;&lt;b style=&quot;font-size: 21px;&quot;&gt;적용 완료&lt;/b&gt;&lt;/div&gt;" style="shape=document;whiteSpace=wrap;html=1;boundedLbl=1;container=0;fontSize=21;" parent="1" vertex="1">
          <mxGeometry x="8129.996978417268" y="7394.074345816046" width="168.34532374100718" height="95.923074859681" as="geometry" />
        </mxCell>
        <mxCell id="vPy_nyRhq1alHM-Djr_y-233" style="edgeStyle=orthogonalEdgeStyle;rounded=0;orthogonalLoop=1;jettySize=auto;html=1;exitX=0.5;exitY=1;exitDx=0;exitDy=0;entryX=0.5;entryY=0;entryDx=0;entryDy=0;" parent="1" source="vPy_nyRhq1alHM-Djr_y-98" target="vPy_nyRhq1alHM-Djr_y-95" edge="1">
          <mxGeometry relative="1" as="geometry">
            <Array as="points">
              <mxPoint x="7933" y="7330" />
              <mxPoint x="8214" y="7330" />
            </Array>
          </mxGeometry>
        </mxCell>
        <mxCell id="vPy_nyRhq1alHM-Djr_y-98" value="토스페이" style="shape=hexagon;perimeter=hexagonPerimeter2;whiteSpace=wrap;html=1;fixedSize=1;container=0;fontSize=21;" parent="1" vertex="1">
          <mxGeometry x="7870.219712230217" y="7012.1055055944635" width="126.25899280575538" height="71.94230614476075" as="geometry" />
        </mxCell>
        <mxCell id="vPy_nyRhq1alHM-Djr_y-234" style="edgeStyle=orthogonalEdgeStyle;rounded=0;orthogonalLoop=1;jettySize=auto;html=1;exitX=0.5;exitY=1;exitDx=0;exitDy=0;entryX=0.5;entryY=0;entryDx=0;entryDy=0;" parent="1" source="vPy_nyRhq1alHM-Djr_y-99" target="vPy_nyRhq1alHM-Djr_y-95" edge="1">
          <mxGeometry relative="1" as="geometry">
            <Array as="points">
              <mxPoint x="8046" y="7330" />
              <mxPoint x="8214" y="7330" />
            </Array>
          </mxGeometry>
        </mxCell>
        <mxCell id="vPy_nyRhq1alHM-Djr_y-99" value="카카오페이" style="shape=hexagon;perimeter=hexagonPerimeter2;whiteSpace=wrap;html=1;fixedSize=1;container=0;fontSize=21;" parent="1" vertex="1">
          <mxGeometry x="7982.449928057555" y="6976.134352522083" width="126.25899280575538" height="71.94230614476075" as="geometry" />
        </mxCell>
        <mxCell id="vPy_nyRhq1alHM-Djr_y-236" style="edgeStyle=orthogonalEdgeStyle;rounded=0;orthogonalLoop=1;jettySize=auto;html=1;exitX=0.5;exitY=1;exitDx=0;exitDy=0;entryX=0.5;entryY=0;entryDx=0;entryDy=0;" parent="1" source="vPy_nyRhq1alHM-Djr_y-100" target="vPy_nyRhq1alHM-Djr_y-95" edge="1">
          <mxGeometry relative="1" as="geometry">
            <Array as="points">
              <mxPoint x="8158" y="7330" />
              <mxPoint x="8214" y="7330" />
            </Array>
          </mxGeometry>
        </mxCell>
        <mxCell id="vPy_nyRhq1alHM-Djr_y-100" value="페이코" style="shape=hexagon;perimeter=hexagonPerimeter2;whiteSpace=wrap;html=1;fixedSize=1;container=0;fontSize=21;" parent="1" vertex="1">
          <mxGeometry x="8094.6801438848925" y="7012.1055055944635" width="126.25899280575538" height="71.94230614476075" as="geometry" />
        </mxCell>
        <mxCell id="vPy_nyRhq1alHM-Djr_y-134" style="edgeStyle=orthogonalEdgeStyle;rounded=0;orthogonalLoop=1;jettySize=auto;html=1;exitX=0.5;exitY=1;exitDx=0;exitDy=0;entryX=0.5;entryY=0;entryDx=0;entryDy=0;fontSize=21;" parent="1" source="vPy_nyRhq1alHM-Djr_y-101" target="vPy_nyRhq1alHM-Djr_y-112" edge="1">
          <mxGeometry relative="1" as="geometry" />
        </mxCell>
        <mxCell id="vPy_nyRhq1alHM-Djr_y-135" style="edgeStyle=orthogonalEdgeStyle;rounded=0;orthogonalLoop=1;jettySize=auto;html=1;exitX=0.5;exitY=1;exitDx=0;exitDy=0;entryX=0.5;entryY=0;entryDx=0;entryDy=0;fontSize=21;" parent="1" source="vPy_nyRhq1alHM-Djr_y-101" target="vPy_nyRhq1alHM-Djr_y-113" edge="1">
          <mxGeometry relative="1" as="geometry" />
        </mxCell>
        <mxCell id="vPy_nyRhq1alHM-Djr_y-136" style="edgeStyle=orthogonalEdgeStyle;rounded=0;orthogonalLoop=1;jettySize=auto;html=1;exitX=0.5;exitY=1;exitDx=0;exitDy=0;entryX=0.5;entryY=0;entryDx=0;entryDy=0;fontSize=21;" parent="1" target="vPy_nyRhq1alHM-Djr_y-114" edge="1">
          <mxGeometry relative="1" as="geometry">
            <mxPoint x="8270.039856115109" y="7042.081466488113" as="sourcePoint" />
            <mxPoint x="8494.500287769784" y="7138.004541347795" as="targetPoint" />
            <Array as="points">
              <mxPoint x="8270.039856115109" y="7078.052619560493" />
              <mxPoint x="8494.500287769784" y="7078.052619560493" />
            </Array>
          </mxGeometry>
        </mxCell>
        <mxCell id="vPy_nyRhq1alHM-Djr_y-137" style="edgeStyle=orthogonalEdgeStyle;rounded=0;orthogonalLoop=1;jettySize=auto;html=1;exitX=0.5;exitY=1;exitDx=0;exitDy=0;entryX=0.5;entryY=0;entryDx=0;entryDy=0;fontSize=21;" parent="1" source="vPy_nyRhq1alHM-Djr_y-101" target="vPy_nyRhq1alHM-Djr_y-115" edge="1">
          <mxGeometry relative="1" as="geometry" />
        </mxCell>
        <mxCell id="vPy_nyRhq1alHM-Djr_y-101" value="기타 결제" style="shape=hexagon;perimeter=hexagonPerimeter2;whiteSpace=wrap;html=1;fixedSize=1;container=0;fontSize=21;" parent="1" vertex="1">
          <mxGeometry x="8206.91035971223" y="6976.134352522083" width="126.25899280575538" height="71.94230614476075" as="geometry" />
        </mxCell>
        <mxCell id="vPy_nyRhq1alHM-Djr_y-229" style="edgeStyle=orthogonalEdgeStyle;rounded=0;orthogonalLoop=1;jettySize=auto;html=1;exitX=0.5;exitY=1;exitDx=0;exitDy=0;entryX=0.5;entryY=0;entryDx=0;entryDy=0;" parent="1" source="vPy_nyRhq1alHM-Djr_y-112" target="vPy_nyRhq1alHM-Djr_y-95" edge="1">
          <mxGeometry relative="1" as="geometry">
            <Array as="points">
              <mxPoint x="8270" y="7330" />
              <mxPoint x="8214" y="7330" />
            </Array>
          </mxGeometry>
        </mxCell>
        <mxCell id="vPy_nyRhq1alHM-Djr_y-112" value="카드" style="shape=hexagon;perimeter=hexagonPerimeter2;whiteSpace=wrap;html=1;fixedSize=1;container=0;fontSize=21;" parent="1" vertex="1">
          <mxGeometry x="8206.91035971223" y="7143.999733526525" width="126.25899280575538" height="71.94230614476075" as="geometry" />
        </mxCell>
        <mxCell id="vPy_nyRhq1alHM-Djr_y-230" style="edgeStyle=orthogonalEdgeStyle;rounded=0;orthogonalLoop=1;jettySize=auto;html=1;exitX=0.5;exitY=1;exitDx=0;exitDy=0;entryX=0.5;entryY=0;entryDx=0;entryDy=0;" parent="1" source="vPy_nyRhq1alHM-Djr_y-113" target="vPy_nyRhq1alHM-Djr_y-95" edge="1">
          <mxGeometry relative="1" as="geometry">
            <Array as="points">
              <mxPoint x="8382" y="7330" />
              <mxPoint x="8214" y="7330" />
            </Array>
          </mxGeometry>
        </mxCell>
        <mxCell id="vPy_nyRhq1alHM-Djr_y-113" value="가상계좌" style="shape=hexagon;perimeter=hexagonPerimeter2;whiteSpace=wrap;html=1;fixedSize=1;container=0;fontSize=21;" parent="1" vertex="1">
          <mxGeometry x="8319.140575539568" y="7108.0285804541445" width="126.25899280575538" height="71.94230614476075" as="geometry" />
        </mxCell>
        <mxCell id="vPy_nyRhq1alHM-Djr_y-231" style="edgeStyle=orthogonalEdgeStyle;rounded=0;orthogonalLoop=1;jettySize=auto;html=1;exitX=0.5;exitY=1;exitDx=0;exitDy=0;entryX=0.5;entryY=0;entryDx=0;entryDy=0;" parent="1" source="vPy_nyRhq1alHM-Djr_y-114" target="vPy_nyRhq1alHM-Djr_y-95" edge="1">
          <mxGeometry relative="1" as="geometry">
            <Array as="points">
              <mxPoint x="8495" y="7330" />
              <mxPoint x="8214" y="7330" />
            </Array>
          </mxGeometry>
        </mxCell>
        <mxCell id="vPy_nyRhq1alHM-Djr_y-114" value="휴대폰" style="shape=hexagon;perimeter=hexagonPerimeter2;whiteSpace=wrap;html=1;fixedSize=1;container=0;fontSize=21;" parent="1" vertex="1">
          <mxGeometry x="8431.370791366906" y="7143.999733526525" width="126.25899280575538" height="71.94230614476075" as="geometry" />
        </mxCell>
        <mxCell id="vPy_nyRhq1alHM-Djr_y-237" style="edgeStyle=orthogonalEdgeStyle;rounded=0;orthogonalLoop=1;jettySize=auto;html=1;exitX=0.5;exitY=1;exitDx=0;exitDy=0;entryX=0.5;entryY=0;entryDx=0;entryDy=0;" parent="1" source="vPy_nyRhq1alHM-Djr_y-115" target="vPy_nyRhq1alHM-Djr_y-95" edge="1">
          <mxGeometry relative="1" as="geometry">
            <Array as="points">
              <mxPoint x="8607" y="7330" />
              <mxPoint x="8214" y="7330" />
            </Array>
          </mxGeometry>
        </mxCell>
        <mxCell id="vPy_nyRhq1alHM-Djr_y-115" value="네이버페이" style="shape=hexagon;perimeter=hexagonPerimeter2;whiteSpace=wrap;html=1;fixedSize=1;container=0;fontSize=21;" parent="1" vertex="1">
          <mxGeometry x="8543.601007194246" y="7108.0285804541445" width="126.25899280575538" height="71.94230614476075" as="geometry" />
        </mxCell>
        <mxCell id="vPy_nyRhq1alHM-Djr_y-146" value="&lt;font style=&quot;font-size: 21px;&quot;&gt;&lt;b style=&quot;font-size: 21px;&quot;&gt;결제 하기&lt;/b&gt;&lt;/font&gt;" style="rounded=0;whiteSpace=wrap;html=1;strokeWidth=4;fillColor=#e1d5e7;container=0;fontSize=21;" parent="1" vertex="1">
          <mxGeometry x="7273.241294964028" y="7841.507693855239" width="168.34532374100718" height="71.94230614476075" as="geometry" />
        </mxCell>
        <mxCell id="vPy_nyRhq1alHM-Djr_y-181" style="edgeStyle=orthogonalEdgeStyle;rounded=0;orthogonalLoop=1;jettySize=auto;html=1;exitX=0.5;exitY=1;exitDx=0;exitDy=0;entryX=0.5;entryY=0;entryDx=0;entryDy=0;" parent="1" source="vPy_nyRhq1alHM-Djr_y-151" target="vPy_nyRhq1alHM-Djr_y-180" edge="1">
          <mxGeometry relative="1" as="geometry" />
        </mxCell>
        <mxCell id="vPy_nyRhq1alHM-Djr_y-151" value="&lt;b style=&quot;font-size: 21px;&quot;&gt;&lt;font style=&quot;font-size: 21px;&quot;&gt;카테고리&lt;/font&gt;&lt;/b&gt;" style="rounded=0;whiteSpace=wrap;html=1;strokeWidth=4;fillColor=#e1d5e7;container=0;fontSize=21;" parent="1" vertex="1">
          <mxGeometry x="7273.241294964028" y="5400.007926381329" width="168.34532374100718" height="71.94230614476075" as="geometry" />
        </mxCell>
        <mxCell id="ZkuJw2kYBf4pHHgQ_IU--6" style="edgeStyle=orthogonalEdgeStyle;rounded=0;orthogonalLoop=1;jettySize=auto;html=1;strokeWidth=3;" parent="1" source="vPy_nyRhq1alHM-Djr_y-158" edge="1">
          <mxGeometry relative="1" as="geometry">
            <mxPoint x="6684.444444444443" y="5935.97" as="targetPoint" />
          </mxGeometry>
        </mxCell>
        <mxCell id="vPy_nyRhq1alHM-Djr_y-158" value="&lt;font style=&quot;font-size: 21px;&quot;&gt;&lt;b style=&quot;font-size: 21px;&quot;&gt;장바구니&lt;/b&gt;&lt;/font&gt;" style="rounded=0;whiteSpace=wrap;html=1;strokeWidth=4;fillColor=#e1d5e7;container=0;fontSize=21;" parent="1" vertex="1">
          <mxGeometry x="7034" y="5900" width="181.85" height="71.94" as="geometry" />
        </mxCell>
        <mxCell id="vPy_nyRhq1alHM-Djr_y-184" style="edgeStyle=orthogonalEdgeStyle;rounded=0;orthogonalLoop=1;jettySize=auto;html=1;exitX=0.5;exitY=1;exitDx=0;exitDy=0;entryX=0.5;entryY=0;entryDx=0;entryDy=0;" parent="1" source="vPy_nyRhq1alHM-Djr_y-180" target="vPy_nyRhq1alHM-Djr_y-183" edge="1">
          <mxGeometry relative="1" as="geometry" />
        </mxCell>
        <mxCell id="vPy_nyRhq1alHM-Djr_y-180" value="&lt;b&gt;상품 검색&amp;nbsp;&lt;/b&gt;&lt;div&gt;&lt;b&gt;및 클릭&lt;/b&gt;&lt;/div&gt;" style="rhombus;whiteSpace=wrap;html=1;container=0;fontSize=21;" parent="1" vertex="1">
          <mxGeometry x="7237.41" y="5560" width="240" height="140" as="geometry" />
        </mxCell>
        <mxCell id="vPy_nyRhq1alHM-Djr_y-185" style="edgeStyle=orthogonalEdgeStyle;rounded=0;orthogonalLoop=1;jettySize=auto;html=1;exitX=0.5;exitY=1;exitDx=0;exitDy=0;entryX=0.5;entryY=0;entryDx=0;entryDy=0;strokeWidth=3;" parent="1" source="vPy_nyRhq1alHM-Djr_y-183" target="vPy_nyRhq1alHM-Djr_y-1" edge="1">
          <mxGeometry relative="1" as="geometry" />
        </mxCell>
        <mxCell id="vPy_nyRhq1alHM-Djr_y-186" style="edgeStyle=orthogonalEdgeStyle;rounded=0;orthogonalLoop=1;jettySize=auto;html=1;exitX=1;exitY=0.5;exitDx=0;exitDy=0;strokeWidth=3;" parent="1" source="vPy_nyRhq1alHM-Djr_y-183" edge="1">
          <mxGeometry relative="1" as="geometry">
            <Array as="points">
              <mxPoint x="7132" y="5814" />
            </Array>
            <mxPoint x="7132" y="5900" as="targetPoint" />
          </mxGeometry>
        </mxCell>
        <mxCell id="vPy_nyRhq1alHM-Djr_y-183" value="&lt;font style=&quot;font-size: 21px;&quot;&gt;&lt;b style=&quot;font-size: 21px;&quot;&gt;상품 상세페이지&lt;/b&gt;&lt;/font&gt;" style="rounded=0;whiteSpace=wrap;html=1;strokeWidth=4;fillColor=#e1d5e7;container=0;fontSize=21;" parent="1" vertex="1">
          <mxGeometry x="7273.241294964028" y="5778.055903363997" width="168.34532374100718" height="71.94230614476075" as="geometry" />
        </mxCell>
        <mxCell id="vPy_nyRhq1alHM-Djr_y-207" style="edgeStyle=orthogonalEdgeStyle;rounded=0;orthogonalLoop=1;jettySize=auto;html=1;exitX=0.5;exitY=1;exitDx=0;exitDy=0;" parent="1" source="vPy_nyRhq1alHM-Djr_y-199" target="vPy_nyRhq1alHM-Djr_y-31" edge="1">
          <mxGeometry relative="1" as="geometry" />
        </mxCell>
        <mxCell id="vPy_nyRhq1alHM-Djr_y-199" value="배송지 선택" style="shape=parallelogram;perimeter=parallelogramPerimeter;whiteSpace=wrap;html=1;fixedSize=1;container=0;fontSize=21;" parent="1" vertex="1">
          <mxGeometry x="6461.71" y="7490" width="220" height="96.93" as="geometry" />
        </mxCell>
        <mxCell id="vPy_nyRhq1alHM-Djr_y-209" style="edgeStyle=orthogonalEdgeStyle;rounded=0;orthogonalLoop=1;jettySize=auto;html=1;exitX=0.5;exitY=1;exitDx=0;exitDy=0;" parent="1" source="vPy_nyRhq1alHM-Djr_y-200" edge="1">
          <mxGeometry relative="1" as="geometry">
            <mxPoint x="6571" y="8120" as="targetPoint" />
          </mxGeometry>
        </mxCell>
        <mxCell id="vPy_nyRhq1alHM-Djr_y-200" value="배송 메세지 선택" style="shape=parallelogram;perimeter=parallelogramPerimeter;whiteSpace=wrap;html=1;fixedSize=1;container=0;fontSize=21;" parent="1" vertex="1">
          <mxGeometry x="6461.71" y="7913.45" width="220" height="96.93" as="geometry" />
        </mxCell>
        <mxCell id="vPy_nyRhq1alHM-Djr_y-213" value="&lt;b&gt;쿠폰 사용&lt;/b&gt;&lt;div&gt;&lt;b&gt;가능여부&lt;/b&gt;&lt;/div&gt;" style="rhombus;whiteSpace=wrap;html=1;container=0;fontSize=21;" parent="1" vertex="1">
          <mxGeometry x="7037.502661870503" y="7000.00060000732" width="240" height="140" as="geometry" />
        </mxCell>
        <mxCell id="vPy_nyRhq1alHM-Djr_y-219" style="edgeStyle=orthogonalEdgeStyle;rounded=0;orthogonalLoop=1;jettySize=auto;html=1;exitX=0.5;exitY=1;exitDx=0;exitDy=0;entryX=0.5;entryY=0;entryDx=0;entryDy=0;" parent="1" source="vPy_nyRhq1alHM-Djr_y-214" target="vPy_nyRhq1alHM-Djr_y-81" edge="1">
          <mxGeometry relative="1" as="geometry" />
        </mxCell>
        <mxCell id="vPy_nyRhq1alHM-Djr_y-214" value="쿠폰 선택" style="shape=parallelogram;perimeter=parallelogramPerimeter;whiteSpace=wrap;html=1;fixedSize=1;container=0;fontSize=21;" parent="1" vertex="1">
          <mxGeometry x="7047.5" y="7260" width="220" height="96.93" as="geometry" />
        </mxCell>
        <mxCell id="vPy_nyRhq1alHM-Djr_y-218" style="edgeStyle=orthogonalEdgeStyle;rounded=0;orthogonalLoop=1;jettySize=auto;html=1;exitX=0.5;exitY=1;exitDx=0;exitDy=0;entryX=0.5;entryY=0;entryDx=0;entryDy=0;" parent="1" source="vPy_nyRhq1alHM-Djr_y-213" target="vPy_nyRhq1alHM-Djr_y-214" edge="1">
          <mxGeometry relative="1" as="geometry" />
        </mxCell>
        <mxCell id="vPy_nyRhq1alHM-Djr_y-221" style="edgeStyle=orthogonalEdgeStyle;rounded=0;orthogonalLoop=1;jettySize=auto;html=1;exitX=0;exitY=0.5;exitDx=0;exitDy=0;entryX=0;entryY=0.5;entryDx=0;entryDy=0;" parent="1" source="vPy_nyRhq1alHM-Djr_y-213" target="vPy_nyRhq1alHM-Djr_y-81" edge="1">
          <mxGeometry relative="1" as="geometry">
            <Array as="points">
              <mxPoint x="6970" y="7070" />
              <mxPoint x="6970" y="7538" />
            </Array>
          </mxGeometry>
        </mxCell>
        <mxCell id="vPy_nyRhq1alHM-Djr_y-225" style="edgeStyle=orthogonalEdgeStyle;rounded=0;orthogonalLoop=1;jettySize=auto;html=1;exitX=0.5;exitY=1;exitDx=0;exitDy=0;entryX=0.5;entryY=0;entryDx=0;entryDy=0;" parent="1" source="vPy_nyRhq1alHM-Djr_y-222" target="vPy_nyRhq1alHM-Djr_y-57" edge="1">
          <mxGeometry relative="1" as="geometry" />
        </mxCell>
        <mxCell id="vPy_nyRhq1alHM-Djr_y-222" value="사용 적립금 입력" style="shape=parallelogram;perimeter=parallelogramPerimeter;whiteSpace=wrap;html=1;fixedSize=1;container=0;fontSize=21;" parent="1" vertex="1">
          <mxGeometry x="7484.18" y="6821.83" width="220" height="96.93" as="geometry" />
        </mxCell>
        <mxCell id="vPy_nyRhq1alHM-Djr_y-226" value="결제 수단 선택" style="shape=parallelogram;perimeter=parallelogramPerimeter;whiteSpace=wrap;html=1;fixedSize=1;container=0;fontSize=21;" parent="1" vertex="1">
          <mxGeometry x="8104.17" y="6582.96" width="220" height="96.93" as="geometry" />
        </mxCell>
        <mxCell id="vPy_nyRhq1alHM-Djr_y-323" style="edgeStyle=orthogonalEdgeStyle;rounded=0;orthogonalLoop=1;jettySize=auto;html=1;exitX=0.5;exitY=1;exitDx=0;exitDy=0;entryX=0.5;entryY=0;entryDx=0;entryDy=0;" parent="1" source="vPy_nyRhq1alHM-Djr_y-308" target="vPy_nyRhq1alHM-Djr_y-317" edge="1">
          <mxGeometry relative="1" as="geometry" />
        </mxCell>
        <mxCell id="vPy_nyRhq1alHM-Djr_y-324" style="edgeStyle=orthogonalEdgeStyle;rounded=0;orthogonalLoop=1;jettySize=auto;html=1;exitX=0.5;exitY=1;exitDx=0;exitDy=0;entryX=0.5;entryY=0;entryDx=0;entryDy=0;" parent="1" source="vPy_nyRhq1alHM-Djr_y-308" target="vPy_nyRhq1alHM-Djr_y-309" edge="1">
          <mxGeometry relative="1" as="geometry" />
        </mxCell>
        <mxCell id="vPy_nyRhq1alHM-Djr_y-325" style="edgeStyle=orthogonalEdgeStyle;rounded=0;orthogonalLoop=1;jettySize=auto;html=1;exitX=0.5;exitY=1;exitDx=0;exitDy=0;entryX=0.5;entryY=0;entryDx=0;entryDy=0;" parent="1" source="vPy_nyRhq1alHM-Djr_y-308" target="vPy_nyRhq1alHM-Djr_y-318" edge="1">
          <mxGeometry relative="1" as="geometry" />
        </mxCell>
        <mxCell id="vPy_nyRhq1alHM-Djr_y-326" style="edgeStyle=orthogonalEdgeStyle;rounded=0;orthogonalLoop=1;jettySize=auto;html=1;exitX=0.5;exitY=1;exitDx=0;exitDy=0;entryX=0.5;entryY=0;entryDx=0;entryDy=0;" parent="1" source="vPy_nyRhq1alHM-Djr_y-308" target="vPy_nyRhq1alHM-Djr_y-315" edge="1">
          <mxGeometry relative="1" as="geometry" />
        </mxCell>
        <mxCell id="vPy_nyRhq1alHM-Djr_y-327" style="edgeStyle=orthogonalEdgeStyle;rounded=0;orthogonalLoop=1;jettySize=auto;html=1;exitX=0.5;exitY=1;exitDx=0;exitDy=0;entryX=0.5;entryY=0;entryDx=0;entryDy=0;" parent="1" source="vPy_nyRhq1alHM-Djr_y-308" target="vPy_nyRhq1alHM-Djr_y-314" edge="1">
          <mxGeometry relative="1" as="geometry" />
        </mxCell>
        <mxCell id="vPy_nyRhq1alHM-Djr_y-328" style="edgeStyle=orthogonalEdgeStyle;rounded=0;orthogonalLoop=1;jettySize=auto;html=1;exitX=0.5;exitY=1;exitDx=0;exitDy=0;entryX=0.5;entryY=0;entryDx=0;entryDy=0;" parent="1" source="vPy_nyRhq1alHM-Djr_y-308" target="vPy_nyRhq1alHM-Djr_y-310" edge="1">
          <mxGeometry relative="1" as="geometry">
            <Array as="points">
              <mxPoint x="8479.26" y="5341.94" />
              <mxPoint x="8191.26" y="5341.94" />
            </Array>
          </mxGeometry>
        </mxCell>
        <mxCell id="vPy_nyRhq1alHM-Djr_y-329" style="edgeStyle=orthogonalEdgeStyle;rounded=0;orthogonalLoop=1;jettySize=auto;html=1;exitX=0.5;exitY=1;exitDx=0;exitDy=0;entryX=0.5;entryY=0;entryDx=0;entryDy=0;" parent="1" source="vPy_nyRhq1alHM-Djr_y-308" target="vPy_nyRhq1alHM-Djr_y-312" edge="1">
          <mxGeometry relative="1" as="geometry">
            <Array as="points">
              <mxPoint x="8479.26" y="5341.94" />
              <mxPoint x="8769.26" y="5341.94" />
            </Array>
          </mxGeometry>
        </mxCell>
        <mxCell id="vPy_nyRhq1alHM-Djr_y-330" style="edgeStyle=orthogonalEdgeStyle;rounded=0;orthogonalLoop=1;jettySize=auto;html=1;exitX=0.5;exitY=1;exitDx=0;exitDy=0;entryX=0.5;entryY=0;entryDx=0;entryDy=0;" parent="1" source="vPy_nyRhq1alHM-Djr_y-308" target="vPy_nyRhq1alHM-Djr_y-313" edge="1">
          <mxGeometry relative="1" as="geometry">
            <Array as="points">
              <mxPoint x="8479.26" y="5341.94" />
              <mxPoint x="9059.26" y="5341.94" />
            </Array>
          </mxGeometry>
        </mxCell>
        <mxCell id="vPy_nyRhq1alHM-Djr_y-349" style="edgeStyle=orthogonalEdgeStyle;rounded=0;orthogonalLoop=1;jettySize=auto;html=1;exitX=0.5;exitY=0;exitDx=0;exitDy=0;" parent="1" source="vPy_nyRhq1alHM-Djr_y-308" edge="1">
          <mxGeometry relative="1" as="geometry">
            <mxPoint x="8479.6" y="5169.8" as="targetPoint" />
          </mxGeometry>
        </mxCell>
        <mxCell id="vPy_nyRhq1alHM-Djr_y-352" style="edgeStyle=orthogonalEdgeStyle;rounded=0;orthogonalLoop=1;jettySize=auto;html=1;exitX=0;exitY=0.25;exitDx=0;exitDy=0;strokeWidth=3;" parent="1" source="vPy_nyRhq1alHM-Djr_y-308" edge="1">
          <mxGeometry relative="1" as="geometry">
            <Array as="points">
              <mxPoint x="6990" y="5188" />
              <mxPoint x="6990" y="5810" />
              <mxPoint x="7090" y="5810" />
            </Array>
            <mxPoint x="7090" y="5900" as="targetPoint" />
          </mxGeometry>
        </mxCell>
        <mxCell id="vPy_nyRhq1alHM-Djr_y-308" value="&lt;b style=&quot;font-size: 21px;&quot;&gt;&lt;font style=&quot;font-size: 21px;&quot;&gt;마이페이지&lt;/font&gt;&lt;/b&gt;" style="rounded=0;whiteSpace=wrap;html=1;strokeWidth=4;fillColor=#e1d5e7;container=0;fontSize=21;" parent="1" vertex="1">
          <mxGeometry x="8395.26129496403" y="5169.997926381328" width="168.34532374100718" height="71.94230614476075" as="geometry" />
        </mxCell>
        <mxCell id="vPy_nyRhq1alHM-Djr_y-309" value="&lt;b style=&quot;font-size: 21px;&quot;&gt;나의 정보&lt;/b&gt;" style="rounded=1;whiteSpace=wrap;html=1;strokeWidth=2;container=0;fontSize=21;" parent="1" vertex="1">
          <mxGeometry x="7950.656978417268" y="5441.944743585579" width="168.34532374100718" height="71.94230614476075" as="geometry" />
        </mxCell>
        <mxCell id="vPy_nyRhq1alHM-Djr_y-334" style="edgeStyle=orthogonalEdgeStyle;rounded=0;orthogonalLoop=1;jettySize=auto;html=1;exitX=0.5;exitY=1;exitDx=0;exitDy=0;entryX=0.5;entryY=0;entryDx=0;entryDy=0;strokeWidth=3;" parent="1" source="vPy_nyRhq1alHM-Djr_y-310" target="vPy_nyRhq1alHM-Djr_y-322" edge="1">
          <mxGeometry relative="1" as="geometry" />
        </mxCell>
        <mxCell id="vPy_nyRhq1alHM-Djr_y-310" value="&lt;b style=&quot;font-size: 21px;&quot;&gt;주문내역&lt;/b&gt;" style="rounded=1;whiteSpace=wrap;html=1;strokeWidth=2;container=0;fontSize=21;" parent="1" vertex="1">
          <mxGeometry x="8106.916978417268" y="5661.944743585579" width="168.34532374100718" height="71.94230614476075" as="geometry" />
        </mxCell>
        <mxCell id="vPy_nyRhq1alHM-Djr_y-312" value="&lt;b style=&quot;font-size: 21px;&quot;&gt;이벤트&lt;/b&gt;" style="rounded=1;whiteSpace=wrap;html=1;strokeWidth=2;container=0;fontSize=21;" parent="1" vertex="1">
          <mxGeometry x="8685.256978417268" y="5661.944743585579" width="168.34532374100718" height="71.94230614476075" as="geometry" />
        </mxCell>
        <mxCell id="vPy_nyRhq1alHM-Djr_y-342" style="edgeStyle=orthogonalEdgeStyle;rounded=0;orthogonalLoop=1;jettySize=auto;html=1;exitX=0.5;exitY=1;exitDx=0;exitDy=0;entryX=0.5;entryY=0;entryDx=0;entryDy=0;strokeWidth=4;entryPerimeter=0;" parent="1" source="vPy_nyRhq1alHM-Djr_y-313" target="b6Gug5kaAHU02orueKdw-2" edge="1">
          <mxGeometry relative="1" as="geometry">
            <mxPoint x="9059.43" y="5871.94" as="targetPoint" />
          </mxGeometry>
        </mxCell>
        <mxCell id="vPy_nyRhq1alHM-Djr_y-313" value="&lt;b style=&quot;font-size: 21px;&quot;&gt;회원 탈퇴&lt;/b&gt;" style="rounded=1;whiteSpace=wrap;html=1;strokeWidth=2;container=0;fontSize=21;" parent="1" vertex="1">
          <mxGeometry x="8975.256978417268" y="5661.944743585579" width="168.34532374100718" height="71.94230614476075" as="geometry" />
        </mxCell>
        <mxCell id="vPy_nyRhq1alHM-Djr_y-314" value="&lt;b style=&quot;font-size: 21px;&quot;&gt;공지사항&lt;/b&gt;" style="rounded=1;whiteSpace=wrap;html=1;strokeWidth=2;container=0;fontSize=21;" parent="1" vertex="1">
          <mxGeometry x="8845.256978417268" y="5441.94474358558" width="168.34532374100718" height="71.94230614476075" as="geometry" />
        </mxCell>
        <mxCell id="vPy_nyRhq1alHM-Djr_y-332" style="edgeStyle=orthogonalEdgeStyle;rounded=0;orthogonalLoop=1;jettySize=auto;html=1;exitX=0.5;exitY=1;exitDx=0;exitDy=0;entryX=0.5;entryY=0;entryDx=0;entryDy=0;strokeWidth=3;" parent="1" source="vPy_nyRhq1alHM-Djr_y-315" target="vPy_nyRhq1alHM-Djr_y-331" edge="1">
          <mxGeometry relative="1" as="geometry" />
        </mxCell>
        <mxCell id="vPy_nyRhq1alHM-Djr_y-315" value="&lt;b style=&quot;font-size: 21px;&quot;&gt;환불/교환&lt;/b&gt;" style="rounded=1;whiteSpace=wrap;html=1;strokeWidth=2;container=0;fontSize=21;" parent="1" vertex="1">
          <mxGeometry x="8545.256978417268" y="5441.94474358558" width="168.34532374100718" height="71.94230614476075" as="geometry" />
        </mxCell>
        <mxCell id="vPy_nyRhq1alHM-Djr_y-317" value="&lt;b style=&quot;font-size: 21px;&quot;&gt;고객센터&lt;/b&gt;" style="rounded=1;whiteSpace=wrap;html=1;strokeWidth=2;container=0;fontSize=21;" parent="1" vertex="1">
          <mxGeometry x="8395.256978417268" y="5661.944743585579" width="168.34532374100718" height="71.94230614476075" as="geometry" />
        </mxCell>
        <mxCell id="vPy_nyRhq1alHM-Djr_y-318" value="&lt;b style=&quot;font-size: 21px;&quot;&gt;멤버십&lt;/b&gt;" style="rounded=1;whiteSpace=wrap;html=1;strokeWidth=2;container=0;fontSize=21;" parent="1" vertex="1">
          <mxGeometry x="8245.256978417268" y="5441.944743585579" width="168.34532374100718" height="71.94230614476075" as="geometry" />
        </mxCell>
        <mxCell id="vPy_nyRhq1alHM-Djr_y-335" style="edgeStyle=orthogonalEdgeStyle;rounded=0;orthogonalLoop=1;jettySize=auto;html=1;exitX=0;exitY=0.5;exitDx=0;exitDy=0;entryX=0;entryY=0.5;entryDx=0;entryDy=0;strokeWidth=3;" parent="1" source="vPy_nyRhq1alHM-Djr_y-321" target="vPy_nyRhq1alHM-Djr_y-308" edge="1">
          <mxGeometry relative="1" as="geometry">
            <Array as="points">
              <mxPoint x="7845.26" y="5997.94" />
              <mxPoint x="7845.26" y="5205.94" />
            </Array>
          </mxGeometry>
        </mxCell>
        <mxCell id="vPy_nyRhq1alHM-Djr_y-336" value="&lt;font style=&quot;font-size: 17px;&quot;&gt;확인 클릭&lt;/font&gt;" style="edgeLabel;html=1;align=center;verticalAlign=middle;resizable=0;points=[];" parent="vPy_nyRhq1alHM-Djr_y-335" connectable="0" vertex="1">
          <mxGeometry x="0.0216" y="-2" relative="1" as="geometry">
            <mxPoint as="offset" />
          </mxGeometry>
        </mxCell>
        <mxCell id="vPy_nyRhq1alHM-Djr_y-321" value="&lt;b style=&quot;font-size: 21px;&quot;&gt;&lt;font style=&quot;font-size: 21px;&quot;&gt;환불 완료 창&lt;/font&gt;&lt;/b&gt;" style="rounded=0;whiteSpace=wrap;html=1;strokeWidth=4;fillColor=#e1d5e7;container=0;fontSize=21;" parent="1" vertex="1">
          <mxGeometry x="8545.26129496403" y="5961.937926381329" width="168.34532374100718" height="71.94230614476075" as="geometry" />
        </mxCell>
        <mxCell id="vPy_nyRhq1alHM-Djr_y-339" style="edgeStyle=orthogonalEdgeStyle;rounded=0;orthogonalLoop=1;jettySize=auto;html=1;exitX=0;exitY=0.5;exitDx=0;exitDy=0;entryX=0;entryY=0.75;entryDx=0;entryDy=0;strokeWidth=3;" parent="1" source="vPy_nyRhq1alHM-Djr_y-322" target="vPy_nyRhq1alHM-Djr_y-308" edge="1">
          <mxGeometry relative="1" as="geometry">
            <Array as="points">
              <mxPoint x="7915.26" y="5825.94" />
              <mxPoint x="7915.26" y="5223.94" />
            </Array>
          </mxGeometry>
        </mxCell>
        <mxCell id="vPy_nyRhq1alHM-Djr_y-345" style="edgeStyle=orthogonalEdgeStyle;rounded=0;orthogonalLoop=1;jettySize=auto;html=1;exitX=1;exitY=0.5;exitDx=0;exitDy=0;entryX=0;entryY=0.5;entryDx=0;entryDy=0;strokeWidth=3;" parent="1" source="vPy_nyRhq1alHM-Djr_y-322" target="vPy_nyRhq1alHM-Djr_y-331" edge="1">
          <mxGeometry relative="1" as="geometry">
            <Array as="points">
              <mxPoint x="8390" y="5826" />
              <mxPoint x="8390" y="5826" />
            </Array>
          </mxGeometry>
        </mxCell>
        <mxCell id="vPy_nyRhq1alHM-Djr_y-322" value="&lt;b style=&quot;font-size: 21px;&quot;&gt;&lt;font style=&quot;font-size: 21px;&quot;&gt;주문내역&lt;/font&gt;&lt;/b&gt;&lt;div&gt;&lt;b style=&quot;font-size: 21px;&quot;&gt;&lt;font style=&quot;font-size: 21px;&quot;&gt;페이지&lt;/font&gt;&lt;/b&gt;&lt;/div&gt;" style="rounded=0;whiteSpace=wrap;html=1;strokeWidth=4;fillColor=#e1d5e7;container=0;fontSize=21;" parent="1" vertex="1">
          <mxGeometry x="8106.92129496403" y="5789.997926381329" width="168.34532374100718" height="71.94230614476075" as="geometry" />
        </mxCell>
        <mxCell id="vPy_nyRhq1alHM-Djr_y-333" style="edgeStyle=orthogonalEdgeStyle;rounded=0;orthogonalLoop=1;jettySize=auto;html=1;exitX=0.5;exitY=1;exitDx=0;exitDy=0;entryX=0.5;entryY=0;entryDx=0;entryDy=0;strokeWidth=4;" parent="1" source="vPy_nyRhq1alHM-Djr_y-331" target="vPy_nyRhq1alHM-Djr_y-321" edge="1">
          <mxGeometry relative="1" as="geometry" />
        </mxCell>
        <mxCell id="vPy_nyRhq1alHM-Djr_y-343" value="&lt;font style=&quot;font-size: 17px;&quot;&gt;환불하기 클릭&lt;/font&gt;" style="edgeLabel;html=1;align=center;verticalAlign=middle;resizable=0;points=[];" parent="vPy_nyRhq1alHM-Djr_y-333" connectable="0" vertex="1">
          <mxGeometry x="-0.235" relative="1" as="geometry">
            <mxPoint y="11" as="offset" />
          </mxGeometry>
        </mxCell>
        <mxCell id="vPy_nyRhq1alHM-Djr_y-331" value="&lt;b&gt;환불/교환&lt;/b&gt;&lt;div&gt;&lt;b&gt;페이지&lt;/b&gt;&lt;/div&gt;" style="rounded=0;whiteSpace=wrap;html=1;strokeWidth=4;fillColor=#e1d5e7;container=0;fontSize=21;" parent="1" vertex="1">
          <mxGeometry x="8545.26129496403" y="5789.997926381328" width="168.34532374100718" height="71.94230614476075" as="geometry" />
        </mxCell>
        <mxCell id="vPy_nyRhq1alHM-Djr_y-354" style="edgeStyle=orthogonalEdgeStyle;rounded=0;orthogonalLoop=1;jettySize=auto;html=1;exitX=0.5;exitY=1;exitDx=0;exitDy=0;entryX=0.5;entryY=0;entryDx=0;entryDy=0;strokeWidth=3;" parent="1" source="vPy_nyRhq1alHM-Djr_y-340" target="vPy_nyRhq1alHM-Djr_y-194" edge="1">
          <mxGeometry relative="1" as="geometry" />
        </mxCell>
        <mxCell id="vPy_nyRhq1alHM-Djr_y-340" value="&lt;b style=&quot;&quot;&gt;&lt;font style=&quot;font-size: 31px;&quot;&gt;메인 페이지&lt;/font&gt;&lt;/b&gt;&lt;div&gt;&lt;span style=&quot;font-size: 31px;&quot;&gt;&lt;b&gt;(로그인 전)&lt;/b&gt;&lt;/span&gt;&lt;/div&gt;" style="rounded=0;whiteSpace=wrap;html=1;strokeWidth=4;fillColor=#e1d5e7;container=0;" parent="1" vertex="1">
          <mxGeometry x="7264.73" y="3519.9999999999995" width="190" height="106.6" as="geometry" />
        </mxCell>
        <mxCell id="vPy_nyRhq1alHM-Djr_y-346" style="edgeStyle=orthogonalEdgeStyle;rounded=0;orthogonalLoop=1;jettySize=auto;html=1;entryX=1;entryY=0.5;entryDx=0;entryDy=0;strokeWidth=3;exitX=1;exitY=0.5;exitDx=0;exitDy=0;" parent="1" source="vPy_nyRhq1alHM-Djr_y-313" target="vPy_nyRhq1alHM-Djr_y-340" edge="1">
          <mxGeometry relative="1" as="geometry">
            <Array as="points">
              <mxPoint x="9144" y="5700" />
              <mxPoint x="9290" y="5700" />
              <mxPoint x="9290" y="3573" />
            </Array>
            <mxPoint x="9150" y="5700" as="sourcePoint" />
          </mxGeometry>
        </mxCell>
        <mxCell id="vPy_nyRhq1alHM-Djr_y-347" style="edgeStyle=orthogonalEdgeStyle;rounded=0;orthogonalLoop=1;jettySize=auto;html=1;exitX=0.5;exitY=1;exitDx=0;exitDy=0;entryX=0.5;entryY=0;entryDx=0;entryDy=0;strokeWidth=3;" parent="1" source="zhixcDU8-2-EMlRIzcLj-5" target="vPy_nyRhq1alHM-Djr_y-155" edge="1">
          <mxGeometry relative="1" as="geometry" />
        </mxCell>
        <mxCell id="vPy_nyRhq1alHM-Djr_y-348" value="&lt;font style=&quot;font-size: 17px;&quot;&gt;메인 페이지 이동&lt;/font&gt;" style="edgeLabel;html=1;align=center;verticalAlign=middle;resizable=0;points=[];" parent="vPy_nyRhq1alHM-Djr_y-347" connectable="0" vertex="1">
          <mxGeometry x="0.0972" y="3" relative="1" as="geometry">
            <mxPoint y="1" as="offset" />
          </mxGeometry>
        </mxCell>
        <mxCell id="vPy_nyRhq1alHM-Djr_y-351" value="" style="endArrow=classic;startArrow=classic;html=1;rounded=0;exitX=1;exitY=0.5;exitDx=0;exitDy=0;entryX=0.5;entryY=0;entryDx=0;entryDy=0;edgeStyle=orthogonalEdgeStyle;strokeWidth=3;" parent="1" source="vPy_nyRhq1alHM-Djr_y-155" target="vPy_nyRhq1alHM-Djr_y-308" edge="1">
          <mxGeometry width="50" height="50" relative="1" as="geometry">
            <mxPoint x="8070" y="5080" as="sourcePoint" />
            <mxPoint x="8120" y="5030" as="targetPoint" />
          </mxGeometry>
        </mxCell>
        <mxCell id="vPy_nyRhq1alHM-Djr_y-353" value="" style="edgeStyle=orthogonalEdgeStyle;rounded=0;orthogonalLoop=1;jettySize=auto;html=1;strokeWidth=3;exitX=0.5;exitY=1;exitDx=0;exitDy=0;entryX=0;entryY=0.5;entryDx=0;entryDy=0;" parent="1" source="vPy_nyRhq1alHM-Djr_y-155" target="vPy_nyRhq1alHM-Djr_y-248" edge="1">
          <mxGeometry relative="1" as="geometry">
            <mxPoint x="7357" y="5130" as="sourcePoint" />
            <mxPoint x="7237" y="5630" as="targetPoint" />
            <Array as="points">
              <mxPoint x="7357" y="5240" />
              <mxPoint x="7160" y="5240" />
            </Array>
          </mxGeometry>
        </mxCell>
        <mxCell id="vPy_nyRhq1alHM-Djr_y-248" value="&lt;b style=&quot;&quot;&gt;&lt;font style=&quot;font-size: 17px;&quot;&gt;검색 버튼&lt;/font&gt;&lt;/b&gt;" style="rounded=1;whiteSpace=wrap;html=1;strokeWidth=2;container=0;fontSize=16;" parent="1" vertex="1">
          <mxGeometry x="7073.326978417266" y="5290.00474358558" width="168.34532374100718" height="71.94230614476075" as="geometry" />
        </mxCell>
        <mxCell id="0JZCLnDZgmn6ij402Tt3-24" style="edgeStyle=orthogonalEdgeStyle;rounded=0;orthogonalLoop=1;jettySize=auto;html=1;exitX=0.25;exitY=1;exitDx=0;exitDy=0;entryX=1;entryY=0.5;entryDx=0;entryDy=0;fontSize=17;" parent="1" source="vPy_nyRhq1alHM-Djr_y-194" target="vPy_nyRhq1alHM-Djr_y-359" edge="1">
          <mxGeometry relative="1" as="geometry">
            <Array as="points">
              <mxPoint x="7288" y="4041" />
              <mxPoint x="7288" y="4330" />
            </Array>
            <mxPoint x="7145.82" y="4329.840707964601" as="targetPoint" />
          </mxGeometry>
        </mxCell>
        <mxCell id="0JZCLnDZgmn6ij402Tt3-28" style="edgeStyle=orthogonalEdgeStyle;rounded=0;orthogonalLoop=1;jettySize=auto;html=1;fontSize=17;entryX=1;entryY=0.5;entryDx=0;entryDy=0;exitX=0.051;exitY=1.011;exitDx=0;exitDy=0;exitPerimeter=0;" parent="1" source="vPy_nyRhq1alHM-Djr_y-194" target="vPy_nyRhq1alHM-Djr_y-360" edge="1">
          <mxGeometry relative="1" as="geometry">
            <Array as="points">
              <mxPoint x="7270" y="4100" />
              <mxPoint x="7271" y="4100" />
              <mxPoint x="7271" y="4575" />
            </Array>
            <mxPoint x="7270" y="4050" as="sourcePoint" />
            <mxPoint x="7190.083309352517" y="4572.129444901774" as="targetPoint" />
          </mxGeometry>
        </mxCell>
        <mxCell id="zhixcDU8-2-EMlRIzcLj-1" value="ID/PW 입력" style="shape=parallelogram;html=1;strokeWidth=2;perimeter=parallelogramPerimeter;whiteSpace=wrap;rounded=1;arcSize=12;size=0.23;direction=west;fontSize=17;container=0;" parent="1" vertex="1">
          <mxGeometry x="7282.91909090909" y="4323.509380530973" width="153.63636363636365" height="75.929203539823" as="geometry" />
        </mxCell>
        <mxCell id="0JZCLnDZgmn6ij402Tt3-6" value="&lt;span style=&quot;forced-color-adjust: none; color: rgb(0, 0, 0); font-family: Helvetica; font-style: normal; font-variant-ligatures: normal; font-variant-caps: normal; font-weight: 400; letter-spacing: normal; orphans: 2; text-align: center; text-indent: 0px; text-transform: none; widows: 2; word-spacing: 0px; -webkit-text-stroke-width: 0px; white-space: nowrap; background-color: rgb(255, 255, 255); text-decoration-thickness: initial; text-decoration-style: initial; text-decoration-color: initial; font-size: 17px; float: none; display: inline !important;&quot;&gt;YES 로그인 성공&lt;/span&gt;" style="edgeStyle=orthogonalEdgeStyle;rounded=0;orthogonalLoop=1;jettySize=auto;html=1;exitX=0.5;exitY=1;exitDx=0;exitDy=0;exitPerimeter=0;fontSize=17;" parent="1" source="zhixcDU8-2-EMlRIzcLj-3" target="zhixcDU8-2-EMlRIzcLj-5" edge="1">
          <mxGeometry x="-0.0988" y="1" relative="1" as="geometry">
            <mxPoint as="offset" />
          </mxGeometry>
        </mxCell>
        <mxCell id="zhixcDU8-2-EMlRIzcLj-3" value="&lt;b&gt;ID/PW&lt;br style=&quot;font-size: 17px;&quot;&gt;체크&lt;/b&gt;" style="strokeWidth=2;html=1;shape=mxgraph.flowchart.decision;whiteSpace=wrap;fontSize=17;container=0;" parent="1" vertex="1">
          <mxGeometry x="7290.001818181818" y="4486.495309734513" width="139.45454545454547" height="126.54867256637168" as="geometry" />
        </mxCell>
        <mxCell id="zhixcDU8-2-EMlRIzcLj-5" value="로그인 처리" style="whiteSpace=wrap;html=1;strokeWidth=2;fontSize=17;container=0;" parent="1" vertex="1">
          <mxGeometry x="7287.638181818182" y="4715.4092035398235" width="141.8181818181818" height="75.929203539823" as="geometry" />
        </mxCell>
        <mxCell id="0JZCLnDZgmn6ij402Tt3-15" style="edgeStyle=orthogonalEdgeStyle;rounded=0;orthogonalLoop=1;jettySize=auto;html=1;exitX=0;exitY=0.25;exitDx=0;exitDy=0;entryX=0.604;entryY=1.029;entryDx=0;entryDy=0;fontSize=17;entryPerimeter=0;strokeWidth=3;" parent="1" source="vPy_nyRhq1alHM-Djr_y-194" target="vPy_nyRhq1alHM-Djr_y-254" edge="1">
          <mxGeometry relative="1" as="geometry">
            <mxPoint x="7287.638181818182" y="3988.159292035398" as="sourcePoint" />
            <mxPoint x="7063.092727272728" y="3793.249026548672" as="targetPoint" />
            <Array as="points">
              <mxPoint x="7259.82" y="3974" />
              <mxPoint x="7022.82" y="3974" />
            </Array>
          </mxGeometry>
        </mxCell>
        <mxCell id="zhixcDU8-2-EMlRIzcLj-9" style="edgeStyle=none;curved=1;rounded=0;orthogonalLoop=1;jettySize=auto;html=1;exitX=0.5;exitY=0;exitDx=0;exitDy=0;entryX=0.5;entryY=0;entryDx=0;entryDy=0;entryPerimeter=0;fontSize=17;startSize=8;endSize=8;" parent="1" source="zhixcDU8-2-EMlRIzcLj-1" target="zhixcDU8-2-EMlRIzcLj-3" edge="1">
          <mxGeometry relative="1" as="geometry" />
        </mxCell>
        <mxCell id="0JZCLnDZgmn6ij402Tt3-16" style="edgeStyle=orthogonalEdgeStyle;rounded=0;orthogonalLoop=1;jettySize=auto;html=1;exitX=0;exitY=0.639;exitDx=0;exitDy=0;fontSize=17;exitPerimeter=0;" parent="1" source="vPy_nyRhq1alHM-Djr_y-254" target="zhixcDU8-2-EMlRIzcLj-13" edge="1">
          <mxGeometry relative="1" as="geometry">
            <Array as="points">
              <mxPoint x="6696" y="3800" />
            </Array>
            <mxPoint x="6921.274545454545" y="3793.249026548672" as="sourcePoint" />
          </mxGeometry>
        </mxCell>
        <mxCell id="0JZCLnDZgmn6ij402Tt3-17" value="YES 회원가입 성공" style="edgeStyle=orthogonalEdgeStyle;rounded=0;orthogonalLoop=1;jettySize=auto;html=1;exitX=0.5;exitY=1;exitDx=0;exitDy=0;entryX=0;entryY=0.5;entryDx=0;entryDy=0;fontSize=17;" parent="1" source="zhixcDU8-2-EMlRIzcLj-13" target="zhixcDU8-2-EMlRIzcLj-14" edge="1">
          <mxGeometry relative="1" as="geometry" />
        </mxCell>
        <mxCell id="0JZCLnDZgmn6ij402Tt3-19" value="NO 회원가입 실패" style="edgeStyle=orthogonalEdgeStyle;rounded=0;orthogonalLoop=1;jettySize=auto;html=1;exitX=1;exitY=0.5;exitDx=0;exitDy=0;fontSize=17;entryX=0.412;entryY=1.052;entryDx=0;entryDy=0;entryPerimeter=0;strokeWidth=3;" parent="1" source="zhixcDU8-2-EMlRIzcLj-13" target="vPy_nyRhq1alHM-Djr_y-254" edge="1">
          <mxGeometry x="-0.2192" relative="1" as="geometry">
            <mxPoint x="6905.82" y="3854" as="targetPoint" />
            <Array as="points">
              <mxPoint x="6989.82" y="3988" />
              <mxPoint x="6989.82" y="3874" />
              <mxPoint x="6990.82" y="3874" />
            </Array>
            <mxPoint as="offset" />
          </mxGeometry>
        </mxCell>
        <mxCell id="zhixcDU8-2-EMlRIzcLj-13" value="회원정보 입력" style="shape=parallelogram;html=1;strokeWidth=2;perimeter=parallelogramPerimeter;whiteSpace=wrap;rounded=1;arcSize=12;size=0.23;fontSize=17;container=0;" parent="1" vertex="1">
          <mxGeometry x="6614.004545454545" y="3950.1946902654863" width="153.63636363636365" height="75.929203539823" as="geometry" />
        </mxCell>
        <mxCell id="vPy_nyRhq1alHM-Djr_y-195" style="edgeStyle=orthogonalEdgeStyle;rounded=0;orthogonalLoop=1;jettySize=auto;html=1;exitX=1;exitY=0.5;exitDx=0;exitDy=0;entryX=0;entryY=0.5;entryDx=0;entryDy=0;fontSize=17;" parent="1" source="vPy_nyRhq1alHM-Djr_y-196" target="vPy_nyRhq1alHM-Djr_y-194" edge="1">
          <mxGeometry relative="1" as="geometry">
            <Array as="points">
              <mxPoint x="7204.910909090909" y="4127.362831858407" />
              <mxPoint x="7204.910909090909" y="3995.7522123893805" />
            </Array>
          </mxGeometry>
        </mxCell>
        <mxCell id="zhixcDU8-2-EMlRIzcLj-14" value="회원가입 완료" style="whiteSpace=wrap;html=1;strokeWidth=2;rounded=1;arcSize=12;fontSize=17;container=0;" parent="1" vertex="1">
          <mxGeometry x="6803.092727272727" y="4089.3982300884954" width="141.8181818181818" height="75.929203539823" as="geometry" />
        </mxCell>
        <mxCell id="0JZCLnDZgmn6ij402Tt3-26" style="edgeStyle=orthogonalEdgeStyle;rounded=0;orthogonalLoop=1;jettySize=auto;html=1;exitX=0;exitY=0.5;exitDx=0;exitDy=0;entryX=1;entryY=0.5;entryDx=0;entryDy=0;fontSize=17;" parent="1" source="zhixcDU8-2-EMlRIzcLj-19" target="zhixcDU8-2-EMlRIzcLj-28" edge="1">
          <mxGeometry relative="1" as="geometry" />
        </mxCell>
        <mxCell id="zhixcDU8-2-EMlRIzcLj-19" value="회원정보 입력" style="shape=parallelogram;html=1;strokeWidth=2;perimeter=parallelogramPerimeter;whiteSpace=wrap;rounded=1;arcSize=12;size=0.22499999999999998;fontSize=17;container=0;" parent="1" vertex="1">
          <mxGeometry x="6767.638181818182" y="4291.87610619469" width="153.63636363636365" height="75.929203539823" as="geometry" />
        </mxCell>
        <mxCell id="0JZCLnDZgmn6ij402Tt3-30" style="edgeStyle=orthogonalEdgeStyle;rounded=0;orthogonalLoop=1;jettySize=auto;html=1;exitX=0;exitY=0.5;exitDx=0;exitDy=0;entryX=1;entryY=0.5;entryDx=0;entryDy=0;fontSize=17;" parent="1" source="zhixcDU8-2-EMlRIzcLj-21" target="zhixcDU8-2-EMlRIzcLj-30" edge="1">
          <mxGeometry relative="1" as="geometry" />
        </mxCell>
        <mxCell id="zhixcDU8-2-EMlRIzcLj-21" value="회원정보 입력" style="shape=parallelogram;html=1;strokeWidth=2;perimeter=parallelogramPerimeter;whiteSpace=wrap;rounded=1;arcSize=12;size=0.22499999999999998;fontSize=17;container=0;" parent="1" vertex="1">
          <mxGeometry x="6767.638181818182" y="4537.114778761062" width="153.63636363636365" height="75.929203539823" as="geometry" />
        </mxCell>
        <mxCell id="0JZCLnDZgmn6ij402Tt3-25" style="edgeStyle=orthogonalEdgeStyle;rounded=0;orthogonalLoop=1;jettySize=auto;html=1;exitX=0;exitY=0.5;exitDx=0;exitDy=0;entryX=1;entryY=0.5;entryDx=0;entryDy=0;fontSize=17;" parent="1" target="zhixcDU8-2-EMlRIzcLj-19" edge="1">
          <mxGeometry relative="1" as="geometry">
            <mxPoint x="7004.001818181818" y="4329.840707964601" as="sourcePoint" />
          </mxGeometry>
        </mxCell>
        <mxCell id="0JZCLnDZgmn6ij402Tt3-29" style="edgeStyle=orthogonalEdgeStyle;rounded=0;orthogonalLoop=1;jettySize=auto;html=1;exitX=-0.01;exitY=0.487;exitDx=0;exitDy=0;fontSize=17;exitPerimeter=0;" parent="1" source="vPy_nyRhq1alHM-Djr_y-360" target="zhixcDU8-2-EMlRIzcLj-21" edge="1">
          <mxGeometry relative="1" as="geometry">
            <mxPoint x="7004.001818181818" y="4575.079380530972" as="sourcePoint" />
          </mxGeometry>
        </mxCell>
        <mxCell id="0JZCLnDZgmn6ij402Tt3-27" style="edgeStyle=orthogonalEdgeStyle;rounded=0;orthogonalLoop=1;jettySize=auto;html=1;exitX=0;exitY=0.5;exitDx=0;exitDy=0;entryX=1;entryY=0.5;entryDx=0;entryDy=0;fontSize=17;" parent="1" source="zhixcDU8-2-EMlRIzcLj-28" target="zhixcDU8-2-EMlRIzcLj-33" edge="1">
          <mxGeometry relative="1" as="geometry" />
        </mxCell>
        <mxCell id="zhixcDU8-2-EMlRIzcLj-28" value="&lt;b&gt;회원 정보 체크&lt;/b&gt;" style="rhombus;whiteSpace=wrap;html=1;strokeWidth=2;rounded=1;arcSize=12;fontSize=17;container=0;" parent="1" vertex="1">
          <mxGeometry x="6543.092727272727" y="4260.238938053098" width="147.72727272727275" height="139.20353982300884" as="geometry" />
        </mxCell>
        <mxCell id="0JZCLnDZgmn6ij402Tt3-31" style="edgeStyle=orthogonalEdgeStyle;rounded=0;orthogonalLoop=1;jettySize=auto;html=1;exitX=0;exitY=0.5;exitDx=0;exitDy=0;fontSize=17;" parent="1" source="zhixcDU8-2-EMlRIzcLj-30" target="zhixcDU8-2-EMlRIzcLj-34" edge="1">
          <mxGeometry relative="1" as="geometry" />
        </mxCell>
        <mxCell id="zhixcDU8-2-EMlRIzcLj-30" value="&lt;b&gt;회원 정보 체크&lt;/b&gt;" style="rhombus;whiteSpace=wrap;html=1;strokeWidth=2;rounded=1;arcSize=12;fontSize=17;container=0;" parent="1" vertex="1">
          <mxGeometry x="6543.092727272727" y="4505.477610619468" width="147.72727272727275" height="139.20353982300884" as="geometry" />
        </mxCell>
        <mxCell id="0JZCLnDZgmn6ij402Tt3-68" value="&lt;font style=&quot;font-size: 17px;&quot;&gt;로그인 화면 이동&lt;/font&gt;" style="edgeStyle=orthogonalEdgeStyle;rounded=0;orthogonalLoop=1;jettySize=auto;html=1;entryX=1;entryY=0.5;entryDx=0;entryDy=0;fontSize=13;strokeWidth=3;" parent="1" target="vPy_nyRhq1alHM-Djr_y-194" edge="1">
          <mxGeometry x="-0.8934" relative="1" as="geometry">
            <Array as="points">
              <mxPoint x="6318" y="4330" />
              <mxPoint x="6236" y="4330" />
              <mxPoint x="6236" y="4874" />
              <mxPoint x="7536" y="4874" />
              <mxPoint x="7536" y="3996" />
            </Array>
            <mxPoint as="offset" />
            <mxPoint x="6318" y="4330" as="sourcePoint" />
          </mxGeometry>
        </mxCell>
        <mxCell id="0JZCLnDZgmn6ij402Tt3-69" style="edgeStyle=orthogonalEdgeStyle;rounded=0;orthogonalLoop=1;jettySize=auto;html=1;exitX=0.5;exitY=0;exitDx=0;exitDy=0;fontSize=17;strokeWidth=3;" parent="1" source="zhixcDU8-2-EMlRIzcLj-33" edge="1">
          <mxGeometry relative="1" as="geometry">
            <Array as="points">
              <mxPoint x="6390" y="3770" />
            </Array>
            <mxPoint x="6920" y="3770" as="targetPoint" />
          </mxGeometry>
        </mxCell>
        <mxCell id="zhixcDU8-2-EMlRIzcLj-33" value="ID 찾기 결과" style="whiteSpace=wrap;html=1;strokeWidth=2;rounded=1;arcSize=12;fontSize=17;container=0;" parent="1" vertex="1">
          <mxGeometry x="6318.547272727273" y="4291.87610619469" width="141.8181818181818" height="75.929203539823" as="geometry" />
        </mxCell>
        <mxCell id="0JZCLnDZgmn6ij402Tt3-67" value="&lt;font style=&quot;font-size: 17px;&quot;&gt;로그인 화면 이동&lt;/font&gt;" style="edgeStyle=orthogonalEdgeStyle;rounded=0;orthogonalLoop=1;jettySize=auto;html=1;exitX=0;exitY=0.5;exitDx=0;exitDy=0;entryX=1;entryY=0.5;entryDx=0;entryDy=0;fontSize=13;strokeWidth=3;" parent="1" source="zhixcDU8-2-EMlRIzcLj-34" target="vPy_nyRhq1alHM-Djr_y-194" edge="1">
          <mxGeometry x="-0.6673" relative="1" as="geometry">
            <mxPoint x="7488.547272727273" y="4342.495575221239" as="targetPoint" />
            <Array as="points">
              <mxPoint x="6318.82" y="4574" />
              <mxPoint x="6294.82" y="4574" />
              <mxPoint x="6294.82" y="4874" />
              <mxPoint x="7535.82" y="4874" />
              <mxPoint x="7535.82" y="3996" />
            </Array>
            <mxPoint as="offset" />
          </mxGeometry>
        </mxCell>
        <mxCell id="zhixcDU8-2-EMlRIzcLj-34" value="PW 찾기 결과" style="whiteSpace=wrap;html=1;strokeWidth=2;rounded=1;arcSize=12;fontSize=17;container=0;" parent="1" vertex="1">
          <mxGeometry x="6318.547272727273" y="4537.114778761062" width="141.8181818181818" height="75.929203539823" as="geometry" />
        </mxCell>
        <mxCell id="0JZCLnDZgmn6ij402Tt3-32" value="아이디 다시찾기" style="edgeStyle=orthogonalEdgeStyle;rounded=0;orthogonalLoop=1;jettySize=auto;html=1;exitX=0.5;exitY=1;exitDx=0;exitDy=0;entryX=0.448;entryY=0.988;entryDx=0;entryDy=0;entryPerimeter=0;fontSize=17;" parent="1" source="zhixcDU8-2-EMlRIzcLj-33" target="zhixcDU8-2-EMlRIzcLj-19" edge="1">
          <mxGeometry relative="1" as="geometry">
            <Array as="points">
              <mxPoint x="6389.456363636364" y="4431.079646017699" />
              <mxPoint x="6836.183636363636" y="4431.079646017699" />
            </Array>
          </mxGeometry>
        </mxCell>
        <mxCell id="0JZCLnDZgmn6ij402Tt3-33" value="비밀번호 다시 찾기" style="edgeStyle=orthogonalEdgeStyle;rounded=0;orthogonalLoop=1;jettySize=auto;html=1;exitX=0.5;exitY=1;exitDx=0;exitDy=0;entryX=0.448;entryY=1.013;entryDx=0;entryDy=0;entryPerimeter=0;fontSize=17;" parent="1" source="zhixcDU8-2-EMlRIzcLj-34" target="zhixcDU8-2-EMlRIzcLj-21" edge="1">
          <mxGeometry relative="1" as="geometry">
            <Array as="points">
              <mxPoint x="6389.456363636364" y="4684.1769911504425" />
              <mxPoint x="6836.183636363636" y="4684.1769911504425" />
            </Array>
          </mxGeometry>
        </mxCell>
        <mxCell id="vPy_nyRhq1alHM-Djr_y-251" style="edgeStyle=orthogonalEdgeStyle;rounded=0;orthogonalLoop=1;jettySize=auto;html=1;exitX=0.5;exitY=1;exitDx=0;exitDy=0;" parent="1" source="vPy_nyRhq1alHM-Djr_y-194" target="zhixcDU8-2-EMlRIzcLj-1" edge="1">
          <mxGeometry relative="1" as="geometry" />
        </mxCell>
        <mxCell id="vPy_nyRhq1alHM-Djr_y-194" value="&lt;b style=&quot;&quot;&gt;&lt;font style=&quot;font-size: 21px;&quot;&gt;로그인 화면&lt;/font&gt;&lt;/b&gt;" style="rounded=0;whiteSpace=wrap;html=1;strokeWidth=4;fillColor=#e1d5e7;container=0;fontSize=17;" parent="1" vertex="1">
          <mxGeometry x="7260.256984957488" y="3950.192066128584" width="198.95356442119032" height="91.04203343982998" as="geometry" />
        </mxCell>
        <mxCell id="vPy_nyRhq1alHM-Djr_y-196" value="&lt;span style=&quot;color: rgb(0, 0, 0); font-family: Helvetica; font-size: 17px; font-style: normal; font-variant-ligatures: normal; font-variant-caps: normal; font-weight: 400; letter-spacing: normal; orphans: 2; text-align: center; text-indent: 0px; text-transform: none; widows: 2; word-spacing: 0px; -webkit-text-stroke-width: 0px; white-space: nowrap; background-color: rgb(255, 255, 255); text-decoration-thickness: initial; text-decoration-style: initial; text-decoration-color: initial; float: none; display: inline !important;&quot;&gt;로그인 화면 이동&lt;/span&gt;" style="text;whiteSpace=wrap;html=1;fontSize=17;container=0;" parent="1" vertex="1">
          <mxGeometry x="7063.092727272727" y="4108.380530973452" width="118.18181818181819" height="37.9646017699115" as="geometry" />
        </mxCell>
        <mxCell id="vPy_nyRhq1alHM-Djr_y-197" value="" style="edgeStyle=orthogonalEdgeStyle;rounded=0;orthogonalLoop=1;jettySize=auto;html=1;exitX=1;exitY=0.5;exitDx=0;exitDy=0;entryX=0;entryY=0.5;entryDx=0;entryDy=0;fontSize=17;" parent="1" source="zhixcDU8-2-EMlRIzcLj-14" target="vPy_nyRhq1alHM-Djr_y-196" edge="1">
          <mxGeometry relative="1" as="geometry">
            <mxPoint x="6944.910909090909" y="4127.362831858407" as="sourcePoint" />
            <mxPoint x="7260.456363636364" y="3995.7522123893805" as="targetPoint" />
            <Array as="points" />
          </mxGeometry>
        </mxCell>
        <mxCell id="vPy_nyRhq1alHM-Djr_y-254" value="&lt;b&gt;회원가입 화면&lt;/b&gt;" style="rounded=0;whiteSpace=wrap;html=1;strokeWidth=4;fillColor=#e1d5e7;container=0;fontSize=21;" parent="1" vertex="1">
          <mxGeometry x="6921.271294964028" y="3753.9979263813284" width="168.34532374100718" height="71.94230614476075" as="geometry" />
        </mxCell>
        <mxCell id="vPy_nyRhq1alHM-Djr_y-363" value="" style="edgeStyle=orthogonalEdgeStyle;rounded=0;orthogonalLoop=1;jettySize=auto;html=1;" parent="1" source="vPy_nyRhq1alHM-Djr_y-359" target="zhixcDU8-2-EMlRIzcLj-19" edge="1">
          <mxGeometry relative="1" as="geometry" />
        </mxCell>
        <mxCell id="vPy_nyRhq1alHM-Djr_y-359" value="&lt;b&gt;ID 찾기 화면&lt;/b&gt;" style="rounded=0;whiteSpace=wrap;html=1;strokeWidth=4;fillColor=#e1d5e7;container=0;fontSize=21;" parent="1" vertex="1">
          <mxGeometry x="6991.6612949640285" y="4293.867926381329" width="168.34532374100718" height="71.94230614476075" as="geometry" />
        </mxCell>
        <mxCell id="vPy_nyRhq1alHM-Djr_y-360" value="&lt;b&gt;PW 찾기 화면&lt;/b&gt;" style="rounded=0;whiteSpace=wrap;html=1;strokeWidth=4;fillColor=#e1d5e7;container=0;fontSize=21;" parent="1" vertex="1">
          <mxGeometry x="6991.661294964028" y="4539.107926381329" width="168.34532374100718" height="71.94230614476075" as="geometry" />
        </mxCell>
        <mxCell id="b6Gug5kaAHU02orueKdw-2" value="&lt;font style=&quot;font-size: 100px;&quot;&gt;&lt;b&gt;DB&lt;/b&gt;&lt;/font&gt;" style="shape=cylinder3;whiteSpace=wrap;html=1;boundedLbl=1;backgroundOutline=1;size=15;" parent="1" vertex="1">
          <mxGeometry x="9070" y="6310" width="400" height="400" as="geometry" />
        </mxCell>
        <mxCell id="ZkuJw2kYBf4pHHgQ_IU--9" style="edgeStyle=orthogonalEdgeStyle;rounded=0;orthogonalLoop=1;jettySize=auto;html=1;entryX=0.5;entryY=0;entryDx=0;entryDy=0;strokeWidth=3;" parent="1" source="ZkuJw2kYBf4pHHgQ_IU--8" edge="1" target="ZkuJw2kYBf4pHHgQ_IU--11">
          <mxGeometry relative="1" as="geometry">
            <mxPoint x="6596" y="6115" as="targetPoint" />
          </mxGeometry>
        </mxCell>
        <mxCell id="ZkuJw2kYBf4pHHgQ_IU--8" value="&lt;font style=&quot;font-size: 21px;&quot;&gt;결제상품 선택&lt;/font&gt;" style="rounded=1;whiteSpace=wrap;html=1;" parent="1" vertex="1">
          <mxGeometry x="6511" y="5893.95" width="170.71" height="84.03" as="geometry" />
        </mxCell>
        <mxCell id="ZkuJw2kYBf4pHHgQ_IU--12" style="edgeStyle=orthogonalEdgeStyle;rounded=0;orthogonalLoop=1;jettySize=auto;html=1;entryX=0;entryY=0.5;entryDx=0;entryDy=0;strokeWidth=3;" parent="1" source="ZkuJw2kYBf4pHHgQ_IU--11" target="vPy_nyRhq1alHM-Djr_y-1" edge="1">
          <mxGeometry relative="1" as="geometry" />
        </mxCell>
        <mxCell id="ZkuJw2kYBf4pHHgQ_IU--11" value="&lt;font style=&quot;font-size: 21px;&quot;&gt;구매하기 클릭&lt;/font&gt;" style="rounded=1;whiteSpace=wrap;html=1;" parent="1" vertex="1">
          <mxGeometry x="6511" y="6141.82" width="170.71" height="84.03" as="geometry" />
        </mxCell>
      </root>
    </mxGraphModel>
  </diagram>
</mxfile>
